<svg xmlns="http://www.w3.org/2000/svg" width="381" height="78" viewBox="0 0 381 78" fill="none">
<path d="M274.008 36.0301C273.318 35.3401 272.199 35.3401 271.509 36.0301C270.819 36.7201 270.819 37.8388 271.509 38.5288L272.027 39.0463L271.509 39.5638C270.819 40.2538 270.819 41.3724 271.509 42.0624C272.199 42.7524 273.318 42.7524 274.008 42.0624L274.525 41.5449L275.043 42.0624C275.733 42.7524 276.852 42.7524 277.542 42.0624C278.232 41.3724 278.232 40.2538 277.542 39.5638L277.024 39.0463L277.542 38.5288C278.232 37.8388 278.232 36.7201 277.542 36.0301C276.852 35.3401 275.733 35.3401 275.043 36.0301L274.525 36.5476L274.008 36.0301Z" fill="white"/>
<path fill-rule="evenodd" clip-rule="evenodd" d="M256.205 58.0678C260.443 62.0226 266.77 64 275.188 64C283.437 64 289.51 61.6836 293.409 57.0508C297.364 52.4181 299.341 46.0621 299.341 37.983C299.341 21.9943 291.318 14 275.273 14C267.646 14 261.516 15.9774 256.883 19.9322C252.251 23.887 249.934 30.1864 249.934 38.8305C249.934 47.6441 252.025 54.0565 256.205 58.0678ZM278.832 53.2373C277.759 53.7458 276.431 54 274.849 54C273.154 54 271.742 53.661 270.612 52.983C269.482 52.2486 268.606 51.0621 267.985 49.4237C267.081 47.2203 266.629 43.7458 266.629 39C266.629 35.9492 266.799 33.1525 267.138 30.6102C267.533 28.0113 268.07 26.3164 268.748 25.5254C269.087 25.0734 269.878 24.7345 271.121 24.5085C272.42 24.226 273.663 24.0847 274.849 24.0847C278.013 24.1977 280.188 25.4407 281.375 27.8136C282.561 30.1299 283.154 33.8588 283.154 39C283.154 44.2542 282.561 48.0396 281.375 50.3559C280.753 51.7119 279.906 52.6723 278.832 53.2373Z" fill="white"/>
<path d="M104.561 14.5932H119.816V51.7119H139.561V62.8983H104.561V14.5932Z" fill="white"/>
<path d="M145.12 14.5932H160.374V62.8983H145.12V14.5932Z" fill="white"/>
<path d="M203.444 14.5932H168.783V62.8983H184.037V43.9153H200.054V34.678H184.037V25.1017H203.444V14.5932Z" fill="white"/>
<path d="M233.933 62.8983H218.679V25.1864H205.035V14.5932H247.577V25.1864H233.933V62.8983Z" fill="white"/>
<path d="M305.915 14.5932H340.576V25.1017H321.17V34.678H337.187V43.9153H321.17V62.8983H305.915V14.5932Z" fill="white"/>
<path d="M380.218 14.5932H345.557V62.8983H360.811V43.9153H376.828V34.678H360.811V25.1017H380.218V14.5932Z" fill="white"/>
<circle cx="47.5614" cy="44" r="23" fill="#39303B" stroke="white" stroke-width="4"/>
<path d="M24.5614 46.7077C10.8685 56.4794 2.5777 65.2242 4.56144 68.6602C7.32286 73.4431 28.9481 66.1275 52.8627 52.3204C76.7773 38.5133 93.9254 23.4431 91.164 18.6602C89.1334 15.143 76.9023 18.168 61.0614 25.5057" stroke="white" stroke-width="4"/>
<path d="M45.6157 42L49.6157 46M49.6157 42L45.6157 46" stroke="white" stroke-width="4" stroke-linecap="round" stroke-linejoin="round"/>
<path d="M48.5614 18C48.5614 17.4477 48.1137 17 47.5614 17C47.0091 17 46.5614 17.4477 46.5614 18V22C46.5614 22.5523 47.0091 23 47.5614 23C48.1137 23 48.5614 22.5523 48.5614 22V18Z" fill="white"/>
<path d="M47.5614 25C48.1137 25 48.5614 25.4477 48.5614 26V30C48.5614 30.5523 48.1137 31 47.5614 31C47.0091 31 46.5614 30.5523 46.5614 30V26C46.5614 25.4477 47.0091 25 47.5614 25Z" fill="white"/>
<path d="M47.5614 33C48.1137 33 48.5614 33.4477 48.5614 34V38C48.5614 38.5523 48.1137 39 47.5614 39C47.0091 39 46.5614 38.5523 46.5614 38V34C46.5614 33.4477 47.0091 33 47.5614 33Z" fill="white"/>
<path d="M49.6 5.47826C49.6 5.47826 49.075 2 47.5 2C45.925 2 45.4 5.47826 45.4 5.47826M49.6 5.47826H45.4M49.6 5.47826L49.6 12.4348H48.2M45.4 5.47826L45.4 12.4348H46.8M46.8 12.4348V13.3043C46.8 13.6885 47.1134 14 47.5 14C47.8866 14 48.2 13.6885 48.2 13.3043V12.4348M46.8 12.4348V10.3478C46.8 9.96363 47.1134 9.65218 47.5 9.65218C47.8866 9.65218 48.2 9.96363 48.2 10.3478L48.2 12.4348M48.55 7.56521C48.55 8.14151 48.0799 8.60869 47.5 8.60869C46.9201 8.60869 46.45 8.14151 46.45 7.56521C46.45 6.98891 46.9201 6.52173 47.5 6.52173C48.0799 6.52173 48.55 6.98891 48.55 7.56521ZM45.4 8.95652C44.6268 8.95652 44 9.57943 44 10.3478V12.7826C44 13.1668 44.3134 13.4783 44.7 13.4783C45.0866 13.4783 45.4 13.1668 45.4 12.7826V8.95652ZM51 10.3478C51 9.57943 50.3732 8.95652 49.6 8.95652V12.7826C49.6 13.1668 49.9134 13.4783 50.3 13.4783C50.6866 13.4783 51 13.1668 51 12.7826V10.3478Z" stroke="white" stroke-width="0.978571"/>
</svg>