<svg width="397" height="100" viewBox="0 0 397 100" fill="none" xmlns="http://www.w3.org/2000/svg">
<path d="M8.02396 24.9726C8.29143 24.9726 29.9561 24.7051 30.4911 24.9726C31.026 25.24 30.7585 25.775 30.7585 26.0424C30.7585 26.3099 7.7565 26.0424 7.7565 26.0424C7.7565 26.0424 7.7565 24.9726 8.02396 24.9726Z" fill="#BB6BD9"/>
<path d="M30.8922 25.5577C30.8922 25.5577 27.9961 6.25 19.3076 6.25C10.6191 6.25 7.72299 25.5577 7.72299 25.5577H30.8922Z" fill="#BB6BD9"/>
<path d="M30.8922 64.1731L30.8922 25.5577H7.72299L7.72297 64.1731H30.8922Z" fill="#BB6BD9"/>
<path fill-rule="evenodd" clip-rule="evenodd" d="M25.1 31.35C25.1 34.549 22.5067 37.1423 19.3077 37.1423C16.1087 37.1423 13.5154 34.549 13.5154 31.35C13.5154 28.151 16.1087 25.5577 19.3077 25.5577C22.5067 25.5577 25.1 28.151 25.1 31.35ZM7.72307 44.8654C3.45774 44.8654 0 48.3231 0 52.5885L0 66.1038C0 68.2365 1.72887 69.9654 3.86154 69.9654C5.9942 69.9654 7.72307 68.2365 7.72307 66.1038L7.72307 44.8654ZM38.6154 52.5885C38.6154 48.3231 35.1576 44.8654 30.8923 44.8654L30.8923 66.1038C30.8923 68.2365 32.6212 69.9654 34.7538 69.9654C36.8865 69.9654 38.6154 68.2365 38.6154 66.1038V52.5885ZM15.4461 52.5885C15.4461 50.4558 17.175 48.7269 19.3077 48.7269C21.4403 48.7269 23.1692 50.4558 23.1692 52.5885L23.1692 69C23.1692 71.1327 21.4403 72.8615 19.3077 72.8615C17.175 72.8615 15.4461 71.1327 15.4461 69V52.5885ZM8.24071 80.4153C8.24071 78.8982 9.47052 77.6684 10.9876 77.6684C12.5046 77.6684 13.7344 78.8982 13.7344 80.4153C13.7344 81.9323 12.5046 83.1622 10.9876 83.1622C9.47052 83.1622 8.24071 81.9323 8.24071 80.4153ZM24.7219 80.4154C24.7219 78.8983 25.9517 77.6685 27.4688 77.6685C28.9858 77.6685 30.2157 78.8983 30.2157 80.4154C30.2157 81.9324 28.9858 83.1622 27.4688 83.1622C25.9517 83.1622 24.7219 81.9324 24.7219 80.4154ZM16.4812 91.4029C16.4812 89.8859 17.711 88.6561 19.2281 88.6561C20.7451 88.6561 21.9749 89.8859 21.9749 91.4029C21.9749 92.92 20.7451 94.1498 19.2281 94.1498C17.711 94.1498 16.4812 92.92 16.4812 91.4029ZM9.79488e-05 91.4028C9.79488e-05 89.8858 1.22991 88.656 2.74696 88.656C4.26402 88.656 5.49383 89.8858 5.49383 91.4028C5.49383 92.9199 4.26402 94.1497 2.74696 94.1497C1.22991 94.1497 9.79488e-05 92.9199 9.79488e-05 91.4028ZM32.9625 91.4028C32.9625 89.8857 34.1923 88.6559 35.7094 88.6559C37.2264 88.6559 38.4563 89.8857 38.4563 91.4028C38.4563 92.9198 37.2264 94.1497 35.7094 94.1497C34.1923 94.1497 32.9625 92.9198 32.9625 91.4028Z" fill="url(#paint0_linear_1210_115)"/>
<path d="M73.5979 30.2746H87.0902V63.1057H104.555V73H73.5979V30.2746ZM114.268 34.2473C112.569 34.2473 111.095 33.6726 109.846 32.5233C108.647 31.3739 108.047 29.9997 108.047 28.4006C108.047 26.8016 108.647 25.4274 109.846 24.278C111.095 23.1287 112.569 22.554 114.268 22.554C115.968 22.554 117.417 23.1287 118.616 24.278C119.815 25.4274 120.415 26.8016 120.415 28.4006C120.415 29.9997 119.815 31.3739 118.616 32.5233C117.417 33.6726 115.968 34.2473 114.268 34.2473ZM107.822 38.5198H120.64V73H107.822V38.5198ZM153.755 61.3067C153.755 65.7542 152.331 68.9523 149.482 70.9012C146.684 72.8501 142.686 73.8245 137.489 73.8245C133.841 73.8245 129.644 73.2998 124.897 72.2504C124.997 71.251 125.221 69.8268 125.571 67.9779C125.971 66.079 126.296 64.6298 126.546 63.6304C128.345 63.9302 130.343 64.1801 132.542 64.38C134.741 64.5299 136.615 64.6048 138.164 64.6048C139.513 64.6048 140.338 64.5299 140.638 64.38C140.687 64.33 140.737 64.2051 140.787 64.0052C140.887 63.7553 140.937 63.5055 140.937 63.2556C140.937 62.2562 140.313 61.5816 139.063 61.2318C138.664 61.1318 137.14 60.7071 134.491 59.9575C131.843 59.2079 129.669 57.8587 127.97 55.9098C126.321 53.911 125.496 51.4374 125.496 48.4891C125.496 46.94 125.846 45.216 126.546 43.3171C127.245 41.4182 127.995 40.2188 128.794 39.7191C129.394 39.3194 130.843 38.9196 133.142 38.5198C135.44 38.0701 137.564 37.8452 139.513 37.8452C143.661 37.8452 147.833 38.145 152.031 38.7447C152.031 39.6442 151.906 41.1683 151.656 43.3171C151.406 45.4159 151.181 46.7401 150.982 47.2898C146.734 46.7401 143.311 46.4653 140.712 46.4653C139.363 46.4653 138.489 46.5402 138.089 46.6901C137.989 46.7401 137.889 46.89 137.789 47.1399C137.689 47.3398 137.639 47.6146 137.639 47.9644C137.639 48.664 137.864 49.1637 138.314 49.4635C138.764 49.8133 139.938 50.2381 141.837 50.7378C144.086 51.3874 146.009 52.062 147.609 52.7616C149.258 53.4612 150.682 54.5106 151.881 55.9098C153.13 57.309 153.755 59.108 153.755 61.3067ZM172.772 58.8331C172.772 59.7326 172.797 60.6821 172.847 61.6815C172.897 62.631 173.047 63.2306 173.297 63.4805C173.647 63.8303 174.871 64.0052 176.97 64.0052L179.518 63.9302C179.968 66.3288 180.193 69.1022 180.193 72.2504C179.244 72.6002 177.844 72.925 175.996 73.2249C174.197 73.5247 172.473 73.6746 170.823 73.6746C167.375 73.6746 164.702 72.925 162.803 71.4259C160.954 69.8768 160.03 67.5032 160.03 64.305V45.8656H154.408V39.0445L160.03 38.5198L163.403 30.2746L172.772 29.7499V38.5198H180.718V45.8656H172.772V58.8331ZM223.004 73H208.837L206.289 62.2062C206.189 61.8064 206.014 61.1318 205.764 60.1824C205.564 59.1829 205.314 58.4584 205.014 58.0086C204.715 57.5089 204.29 57.1841 203.74 57.0342C202.341 57.0842 200.292 57.1091 197.594 57.1091V73H184.101V30.6494C190.148 30.1996 195.795 29.9747 201.042 29.9747C205.789 29.9747 209.637 30.3745 212.585 31.174C215.533 31.9236 217.732 33.2479 219.181 35.1468C220.68 36.9957 221.43 39.5442 221.43 42.7924C221.43 45.8406 220.73 48.2392 219.331 49.9882C217.932 51.6873 215.683 52.7117 212.585 53.0615V53.5112C214.334 53.6611 215.783 54.2358 216.933 55.2352C218.132 56.1847 218.931 57.409 219.331 58.9081L223.004 73ZM197.594 48.639C198.043 48.689 198.918 48.714 200.217 48.714C204.065 48.714 206.314 48.3892 206.963 47.7395C207.563 47.1399 207.863 45.7407 207.863 43.5419C207.863 41.4931 207.313 40.0939 206.214 39.3443C205.164 38.5948 203.415 38.22 200.967 38.22C200.417 38.22 199.293 38.27 197.594 38.3699V48.639ZM242.424 73.9744C236.427 73.9744 231.93 72.5752 228.931 69.7769C225.983 66.9285 224.509 62.4561 224.509 56.3596C224.509 53.0115 224.809 50.0882 225.408 47.5896C226.058 45.0411 226.833 43.2671 227.732 42.2677C228.881 40.9684 230.98 39.894 234.029 39.0445C237.127 38.195 240.025 37.7703 242.724 37.7703C249.17 37.7703 253.767 39.1445 256.516 41.8929C259.264 44.6413 260.638 49.0388 260.638 55.0853C260.638 61.5816 259.164 66.3538 256.216 69.4021C253.267 72.4503 248.67 73.9744 242.424 73.9744ZM242.649 65.2045C244.597 65.2045 245.872 64.5299 246.471 63.1806C247.071 61.7814 247.371 59.3329 247.371 55.8349C247.371 53.3863 247.246 51.5124 246.996 50.2131C246.746 48.8639 246.271 47.8894 245.572 47.2898C244.922 46.6402 243.898 46.3153 242.499 46.3153C240.5 46.3153 239.35 46.4902 239.051 46.84C238.651 47.1898 238.326 48.2892 238.076 50.1381C237.826 51.9871 237.701 53.911 237.701 55.9098C237.701 59.3079 238.026 61.7065 238.676 63.1057C239.375 64.5049 240.7 65.2045 242.649 65.2045ZM293.415 71.9506C289.367 73.2998 284.845 73.9744 279.848 73.9744C274.251 73.9744 270.053 72.5752 267.255 69.7769C264.507 66.9285 263.132 62.506 263.132 56.5095C263.132 53.5612 263.532 50.6628 264.332 47.8145C265.131 44.9161 265.981 42.9673 266.88 41.9678C267.93 40.8185 269.978 39.8441 273.027 39.0445C276.125 38.245 279.323 37.8452 282.621 37.8452C286.069 37.8452 289.542 38.145 293.04 38.7447C292.94 39.994 292.765 41.4681 292.515 43.1672C292.316 44.8162 292.091 46.2904 291.841 47.5896C288.743 47.3897 285.819 47.2898 283.071 47.2898C280.372 47.2898 278.648 47.4397 277.899 47.7395C277.499 47.8894 277.124 48.9138 276.774 50.8128C276.475 52.7117 276.325 54.4856 276.325 56.1347C276.325 58.3334 276.625 60.0325 277.224 61.2318C277.874 62.3811 278.873 63.1806 280.222 63.6304C281.572 64.0801 283.396 64.305 285.694 64.305C286.694 64.305 288.892 64.2051 292.291 64.0052L293.415 71.9506ZM333.242 73H319.3L312.179 58.9831C311.48 57.5339 310.555 56.6094 309.406 56.2097V73H296.588V28.0259L309.406 27.5012V53.0615C310.605 52.5618 311.63 51.5373 312.479 49.9882L318.85 38.5198L332.867 38.4449L325.597 50.1381C324.447 51.9871 323.198 53.4612 321.849 54.5606C322.998 55.8099 324.297 57.7088 325.746 60.2573L333.242 73ZM355.759 64.0052C357.008 64.0052 359.331 63.8802 362.73 63.6304C363.179 63.6304 364.004 63.5804 365.203 63.4805L366.327 71.201C362.48 73 357.483 73.8995 351.336 73.8995C345.589 73.8995 341.167 72.4503 338.069 69.552C335.02 66.6536 333.496 62.2812 333.496 56.4345C333.496 53.4362 333.871 50.5379 334.621 47.7395C335.42 44.9411 336.32 42.9923 337.319 41.8929C338.369 40.7935 340.317 39.8441 343.166 39.0445C346.014 38.245 348.838 37.8452 351.636 37.8452C356.133 37.8452 359.506 38.6448 361.755 40.2438C364.004 41.8429 365.478 44.0666 366.178 46.915C366.877 49.7134 367.227 53.4862 367.227 58.2335C363.829 58.4334 360.506 58.5333 357.258 58.5333H346.614C346.614 60.1324 346.939 61.3317 347.588 62.1312C348.288 62.9308 349.262 63.4555 350.512 63.7053C351.761 63.9052 353.51 64.0052 355.759 64.0052ZM347.363 46.7651C347.064 46.915 346.839 47.5646 346.689 48.714C346.539 49.8633 346.439 51.1626 346.389 52.6117H350.287C352.635 52.6117 354.334 52.5867 355.384 52.5368C355.384 50.1381 355.034 48.4391 354.334 47.4397C353.685 46.4403 352.535 45.9406 350.886 45.9406C349.537 45.9406 348.363 46.2154 347.363 46.7651ZM386.505 58.8331C386.505 59.7326 386.53 60.6821 386.58 61.6815C386.63 62.631 386.78 63.2306 387.03 63.4805C387.379 63.8303 388.604 64.0052 390.703 64.0052L393.251 63.9302C393.701 66.3288 393.926 69.1022 393.926 72.2504C392.976 72.6002 391.577 72.925 389.728 73.2249C387.929 73.5247 386.205 73.6746 384.556 73.6746C381.108 73.6746 378.435 72.925 376.536 71.4259C374.687 69.8768 373.762 67.5032 373.762 64.305V45.8656H368.14V39.0445L373.762 38.5198L377.135 30.2746L386.505 29.7499V38.5198H394.45V45.8656H386.505V58.8331Z" fill="white"/>
<defs>
<linearGradient id="paint0_linear_1210_115" x1="19.3077" y1="25.5577" x2="19.3077" y2="94.1498" gradientUnits="userSpaceOnUse">
<stop stop-color="#56CCF2"/>
<stop offset="1" stop-color="#AD00FF"/>
</linearGradient>
</defs>
</svg>
