<svg width="406" height="109" viewBox="0 0 406 109" fill="none" xmlns="http://www.w3.org/2000/svg">
<mask id="path-1-outside-1_302_3" maskUnits="userSpaceOnUse" x="0" y="27" width="335" height="54" fill="black">
<rect fill="white" y="27" width="335" height="54"/>
<path d="M8.00923 78.2757C7.75884 78.3758 7.38327 78.476 6.8825 78.5761C6.38173 78.7264 5.83088 78.8015 5.22996 78.8015C3.07665 78.8015 2 77.9001 2 76.0973V29.7512C2.25038 29.651 2.62596 29.5508 3.12673 29.4507C3.67758 29.3005 4.22842 29.2253 4.77927 29.2253C6.93257 29.2253 8.00923 30.1267 8.00923 31.9295V78.2757Z"/>
<path d="M30.1718 78.2757C29.9214 78.3758 29.5458 78.476 29.045 78.5761C28.5443 78.7264 27.9934 78.8015 27.3925 78.8015C25.2392 78.8015 24.1625 77.9001 24.1625 76.0973V43.8728C24.4129 43.7727 24.7885 43.6725 25.2893 43.5724C25.8401 43.4221 26.416 43.347 27.0169 43.347C29.1202 43.347 30.1718 44.2735 30.1718 46.1263V78.2757ZM23.2612 32.7558C23.2612 31.7042 23.6117 30.8278 24.3128 30.1267C25.0639 29.3756 26.0154 29 27.1672 29C28.3189 29 29.2454 29.3756 29.9464 30.1267C30.6475 30.8278 30.998 31.7042 30.998 32.7558C30.998 33.8074 30.6475 34.7088 29.9464 35.4599C29.2454 36.161 28.3189 36.5115 27.1672 36.5115C26.0154 36.5115 25.0639 36.161 24.3128 35.4599C23.6117 34.7088 23.2612 33.8074 23.2612 32.7558Z"/>
<path d="M70.149 69.1867C70.149 72.3916 68.9722 74.8955 66.6186 76.6982C64.2649 78.501 60.8597 79.4024 56.4029 79.4024C54.5 79.4024 52.7473 79.2271 51.1448 78.8766C49.5423 78.5761 48.1652 78.1755 47.0135 77.6747C45.9118 77.1239 45.0354 76.523 44.3844 75.872C43.7835 75.1709 43.483 74.4698 43.483 73.7687C43.483 73.1678 43.6333 72.5919 43.9337 72.0411C44.2843 71.4902 44.785 71.0145 45.436 70.6139C46.7881 71.6154 48.3655 72.5168 50.1683 73.3181C51.9711 74.0692 54.0242 74.4448 56.3278 74.4448C61.5358 74.4448 64.1398 72.6921 64.1398 69.1867C64.1398 66.3323 62.4121 64.4795 58.9568 63.6282L52.7222 61.9756C49.6675 61.1744 47.4391 60.0226 46.037 58.5203C44.6348 56.9679 43.9337 54.9899 43.9337 52.5862C43.9337 51.2842 44.1841 50.0323 44.6849 48.8305C45.2357 47.6286 46.062 46.577 47.1637 45.6756C48.2654 44.7742 49.6175 44.0731 51.2199 43.5724C52.8725 43.0215 54.8004 42.7461 57.0038 42.7461C60.5092 42.7461 63.3385 43.2719 65.4918 44.3235C67.6451 45.3251 68.7218 46.5019 68.7218 47.854C68.7218 48.505 68.5465 49.0808 68.196 49.5816C67.8955 50.0824 67.4699 50.458 66.919 50.7083C66.0176 50.1074 64.7407 49.4564 63.0881 48.7553C61.4356 48.0543 59.4826 47.7037 57.2291 47.7037C54.9757 47.7037 53.1729 48.1294 51.8208 48.9807C50.5188 49.832 49.8678 51.0338 49.8678 52.5862C49.8678 53.738 50.2434 54.7145 50.9946 55.5157C51.7457 56.3169 52.9976 56.9179 54.7503 57.3185L59.9333 58.5954C63.3385 59.4468 65.8924 60.7237 67.5951 62.4263C69.2977 64.0789 70.149 66.3323 70.149 69.1867Z"/>
<path d="M94.8819 79.4024C91.3765 79.4024 88.5221 78.6262 86.3187 77.0738C84.1654 75.5214 83.0888 72.9425 83.0888 69.3369V33.6572C83.3392 33.557 83.7147 33.4568 84.2155 33.3567C84.7663 33.2065 85.3422 33.1313 85.9432 33.1313C88.0464 33.1313 89.098 34.0327 89.098 35.8355V44.4738H101.417C101.567 44.7241 101.717 45.0747 101.868 45.5254C102.018 45.926 102.093 46.3767 102.093 46.8775C102.093 48.5801 101.342 49.4314 99.8395 49.4314H89.098V68.9614C89.098 70.9644 89.6488 72.3916 90.7505 73.2429C91.9023 74.0442 93.5048 74.4448 95.5579 74.4448C96.4092 74.4448 97.3607 74.2946 98.4123 73.9941C99.4639 73.6936 100.34 73.3431 101.041 72.9425C101.342 73.2429 101.617 73.6185 101.868 74.0692C102.118 74.5199 102.243 75.0457 102.243 75.6466C102.243 76.7483 101.592 77.6497 100.29 78.3508C98.9882 79.0519 97.1854 79.4024 94.8819 79.4024Z"/>
<path d="M120.727 78.2757C120.476 78.3758 120.101 78.476 119.6 78.5761C119.099 78.7264 118.548 78.8015 117.948 78.8015C115.794 78.8015 114.718 77.9001 114.718 76.0973V50.6332C114.718 49.4815 114.918 48.5801 115.319 47.9291C115.769 47.228 116.495 46.552 117.497 45.901C118.799 45.0496 120.552 44.3235 122.755 43.7226C125.008 43.0716 127.537 42.7461 130.342 42.7461C134.348 42.7461 136.351 43.7476 136.351 45.7507C136.351 46.2515 136.276 46.7272 136.125 47.1779C135.975 47.5785 135.775 47.9291 135.525 48.2295C135.024 48.1294 134.373 48.0292 133.572 47.9291C132.77 47.8289 131.969 47.7788 131.168 47.7788C128.864 47.7788 126.836 48.0292 125.084 48.53C123.331 48.9807 121.879 49.5315 120.727 50.1825V78.2757Z"/>
<path d="M178.646 61.0743C178.646 63.8786 178.245 66.4074 177.444 68.6609C176.643 70.9144 175.491 72.8423 173.989 74.4448C172.537 76.0472 170.759 77.2741 168.656 78.1254C166.552 78.9767 164.199 79.4024 161.595 79.4024C158.991 79.4024 156.637 78.9767 154.534 78.1254C152.431 77.2741 150.628 76.0472 149.126 74.4448C147.623 72.8423 146.472 70.9144 145.67 68.6609C144.869 66.4074 144.469 63.8786 144.469 61.0743C144.469 58.2699 144.869 55.7411 145.67 53.4876C146.522 51.2341 147.699 49.3062 149.201 47.7037C150.703 46.1013 152.506 44.8744 154.609 44.0231C156.712 43.1718 159.041 42.7461 161.595 42.7461C164.149 42.7461 166.477 43.1718 168.581 44.0231C170.684 44.8744 172.462 46.1013 173.914 47.7037C175.416 49.3062 176.568 51.2341 177.369 53.4876C178.22 55.7411 178.646 58.2699 178.646 61.0743ZM161.595 47.7037C158.19 47.7037 155.511 48.8805 153.558 51.2341C151.605 53.5878 150.628 56.8678 150.628 61.0743C150.628 65.3308 151.579 68.6359 153.482 70.9895C155.435 73.293 158.14 74.4448 161.595 74.4448C165.05 74.4448 167.729 73.268 169.632 70.9144C171.535 68.5608 172.487 65.2807 172.487 61.0743C172.487 56.8678 171.51 53.5878 169.557 51.2341C167.654 48.8805 165 47.7037 161.595 47.7037Z"/>
<path d="M207.771 47.7788C206.068 47.7788 204.491 48.0793 203.039 48.6802C201.586 49.2311 200.334 50.0824 199.283 51.2341C198.231 52.3358 197.405 53.738 196.804 55.4406C196.203 57.0931 195.903 58.9961 195.903 61.1494C195.903 65.456 196.979 68.7611 199.133 71.0646C201.286 73.3181 204.165 74.4448 207.771 74.4448C209.874 74.4448 211.627 74.1694 213.029 73.6185C214.431 73.0176 215.683 72.3416 216.785 71.5904C217.336 71.8909 217.786 72.2664 218.137 72.7171C218.487 73.1678 218.663 73.7187 218.663 74.3697C218.663 75.0707 218.387 75.7217 217.836 76.3227C217.285 76.9236 216.509 77.4494 215.508 77.9001C214.556 78.3508 213.405 78.7013 212.052 78.9517C210.75 79.2522 209.323 79.4024 207.771 79.4024C205.167 79.4024 202.763 79.0268 200.56 78.2757C198.356 77.5245 196.453 76.3978 194.851 74.8955C193.249 73.3932 191.997 71.5153 191.095 69.2618C190.194 66.9583 189.743 64.2541 189.743 61.1494C189.743 58.0947 190.219 55.4406 191.17 53.1871C192.122 50.8836 193.399 48.9556 195.001 47.4033C196.604 45.8509 198.482 44.6991 200.635 43.948C202.838 43.1467 205.167 42.7461 207.621 42.7461C209.173 42.7461 210.6 42.8963 211.902 43.1968C213.254 43.4472 214.406 43.8228 215.357 44.3235C216.309 44.8243 217.035 45.4002 217.536 46.0512C218.087 46.6521 218.362 47.2781 218.362 47.9291C218.362 48.53 218.187 49.0558 217.836 49.5065C217.486 49.9572 217.035 50.3077 216.484 50.5581C215.383 49.807 214.181 49.156 212.879 48.6051C211.577 48.0543 209.874 47.7788 207.771 47.7788Z"/>
<path d="M237.482 78.2757C237.232 78.3758 236.856 78.476 236.355 78.5761C235.854 78.7264 235.304 78.8015 234.703 78.8015C232.549 78.8015 231.473 77.9001 231.473 76.0973V29.7512C231.723 29.651 232.099 29.5508 232.599 29.4507C233.15 29.3005 233.726 29.2253 234.327 29.2253C236.43 29.2253 237.482 30.1267 237.482 31.9295V58.971L253.932 43.0466C255.134 43.0966 256.06 43.3971 256.711 43.948C257.413 44.4487 257.763 45.1248 257.763 45.9761C257.763 46.6771 257.538 47.3031 257.087 47.854C256.636 48.3547 256.035 48.9556 255.284 49.6567L243.191 60.248L259.941 75.2711C259.841 76.3727 259.491 77.2491 258.89 77.9001C258.339 78.5511 257.588 78.8766 256.636 78.8766C255.885 78.8766 255.184 78.7013 254.533 78.3508C253.932 77.9502 253.306 77.3993 252.655 76.6982L237.482 61.4498V78.2757Z"/>
<path d="M275.23 64.6047C276.582 71.1647 280.889 74.4448 288.15 74.4448C290.253 74.4448 292.156 74.0942 293.859 73.3932C295.562 72.6921 296.914 71.9409 297.915 71.1397C299.117 71.8408 299.718 72.7922 299.718 73.9941C299.718 74.6952 299.392 75.3712 298.741 76.0222C298.14 76.6732 297.289 77.2491 296.187 77.7499C295.136 78.2506 293.884 78.6512 292.432 78.9517C291.03 79.2522 289.502 79.4024 287.85 79.4024C282.041 79.4024 277.434 77.825 274.028 74.6701C270.673 71.5153 268.996 66.9082 268.996 60.8489C268.996 57.9945 269.396 55.4656 270.198 53.2623C271.049 51.0088 272.201 49.1059 273.653 47.5535C275.155 46.0011 276.933 44.8243 278.986 44.0231C281.039 43.1718 283.268 42.7461 285.671 42.7461C287.925 42.7461 290.003 43.1217 291.906 43.8728C293.809 44.624 295.436 45.7006 296.788 47.1028C298.191 48.4549 299.267 50.0824 300.018 51.9853C300.82 53.8381 301.22 55.8913 301.22 58.1448C301.22 59.2464 300.97 60.0477 300.469 60.5484C299.968 60.9991 299.267 61.2746 298.366 61.3747L275.23 64.6047ZM285.596 47.6286C282.542 47.6286 280.013 48.7053 278.01 50.8586C276.007 52.9618 274.955 55.9914 274.855 59.9475L295.511 57.0931C295.261 54.3389 294.285 52.0855 292.582 50.3328C290.929 48.53 288.601 47.6286 285.596 47.6286Z"/>
<path d="M325.524 79.4024C322.019 79.4024 319.164 78.6262 316.961 77.0738C314.808 75.5214 313.731 72.9425 313.731 69.3369V33.6572C313.981 33.557 314.357 33.4568 314.858 33.3567C315.409 33.2065 315.984 33.1313 316.585 33.1313C318.689 33.1313 319.74 34.0327 319.74 35.8355V44.4738H332.059C332.209 44.7241 332.36 45.0747 332.51 45.5254C332.66 45.926 332.735 46.3767 332.735 46.8775C332.735 48.5801 331.984 49.4314 330.482 49.4314H319.74V68.9614C319.74 70.9644 320.291 72.3916 321.393 73.2429C322.545 74.0442 324.147 74.4448 326.2 74.4448C327.051 74.4448 328.003 74.2946 329.055 73.9941C330.106 73.6936 330.983 73.3431 331.684 72.9425C331.984 73.2429 332.259 73.6185 332.51 74.0692C332.76 74.5199 332.885 75.0457 332.885 75.6466C332.885 76.7483 332.234 77.6497 330.932 78.3508C329.63 79.0519 327.828 79.4024 325.524 79.4024Z"/>
</mask>
<path d="M8.00923 78.2757C7.75884 78.3758 7.38327 78.476 6.8825 78.5761C6.38173 78.7264 5.83088 78.8015 5.22996 78.8015C3.07665 78.8015 2 77.9001 2 76.0973V29.7512C2.25038 29.651 2.62596 29.5508 3.12673 29.4507C3.67758 29.3005 4.22842 29.2253 4.77927 29.2253C6.93257 29.2253 8.00923 30.1267 8.00923 31.9295V78.2757Z" fill="black"/>
<path d="M30.1718 78.2757C29.9214 78.3758 29.5458 78.476 29.045 78.5761C28.5443 78.7264 27.9934 78.8015 27.3925 78.8015C25.2392 78.8015 24.1625 77.9001 24.1625 76.0973V43.8728C24.4129 43.7727 24.7885 43.6725 25.2893 43.5724C25.8401 43.4221 26.416 43.347 27.0169 43.347C29.1202 43.347 30.1718 44.2735 30.1718 46.1263V78.2757ZM23.2612 32.7558C23.2612 31.7042 23.6117 30.8278 24.3128 30.1267C25.0639 29.3756 26.0154 29 27.1672 29C28.3189 29 29.2454 29.3756 29.9464 30.1267C30.6475 30.8278 30.998 31.7042 30.998 32.7558C30.998 33.8074 30.6475 34.7088 29.9464 35.4599C29.2454 36.161 28.3189 36.5115 27.1672 36.5115C26.0154 36.5115 25.0639 36.161 24.3128 35.4599C23.6117 34.7088 23.2612 33.8074 23.2612 32.7558Z" fill="black"/>
<path d="M70.149 69.1867C70.149 72.3916 68.9722 74.8955 66.6186 76.6982C64.2649 78.501 60.8597 79.4024 56.4029 79.4024C54.5 79.4024 52.7473 79.2271 51.1448 78.8766C49.5423 78.5761 48.1652 78.1755 47.0135 77.6747C45.9118 77.1239 45.0354 76.523 44.3844 75.872C43.7835 75.1709 43.483 74.4698 43.483 73.7687C43.483 73.1678 43.6333 72.5919 43.9337 72.0411C44.2843 71.4902 44.785 71.0145 45.436 70.6139C46.7881 71.6154 48.3655 72.5168 50.1683 73.3181C51.9711 74.0692 54.0242 74.4448 56.3278 74.4448C61.5358 74.4448 64.1398 72.6921 64.1398 69.1867C64.1398 66.3323 62.4121 64.4795 58.9568 63.6282L52.7222 61.9756C49.6675 61.1744 47.4391 60.0226 46.037 58.5203C44.6348 56.9679 43.9337 54.9899 43.9337 52.5862C43.9337 51.2842 44.1841 50.0323 44.6849 48.8305C45.2357 47.6286 46.062 46.577 47.1637 45.6756C48.2654 44.7742 49.6175 44.0731 51.2199 43.5724C52.8725 43.0215 54.8004 42.7461 57.0038 42.7461C60.5092 42.7461 63.3385 43.2719 65.4918 44.3235C67.6451 45.3251 68.7218 46.5019 68.7218 47.854C68.7218 48.505 68.5465 49.0808 68.196 49.5816C67.8955 50.0824 67.4699 50.458 66.919 50.7083C66.0176 50.1074 64.7407 49.4564 63.0881 48.7553C61.4356 48.0543 59.4826 47.7037 57.2291 47.7037C54.9757 47.7037 53.1729 48.1294 51.8208 48.9807C50.5188 49.832 49.8678 51.0338 49.8678 52.5862C49.8678 53.738 50.2434 54.7145 50.9946 55.5157C51.7457 56.3169 52.9976 56.9179 54.7503 57.3185L59.9333 58.5954C63.3385 59.4468 65.8924 60.7237 67.5951 62.4263C69.2977 64.0789 70.149 66.3323 70.149 69.1867Z" fill="black"/>
<path d="M94.8819 79.4024C91.3765 79.4024 88.5221 78.6262 86.3187 77.0738C84.1654 75.5214 83.0888 72.9425 83.0888 69.3369V33.6572C83.3392 33.557 83.7147 33.4568 84.2155 33.3567C84.7663 33.2065 85.3422 33.1313 85.9432 33.1313C88.0464 33.1313 89.098 34.0327 89.098 35.8355V44.4738H101.417C101.567 44.7241 101.717 45.0747 101.868 45.5254C102.018 45.926 102.093 46.3767 102.093 46.8775C102.093 48.5801 101.342 49.4314 99.8395 49.4314H89.098V68.9614C89.098 70.9644 89.6488 72.3916 90.7505 73.2429C91.9023 74.0442 93.5048 74.4448 95.5579 74.4448C96.4092 74.4448 97.3607 74.2946 98.4123 73.9941C99.4639 73.6936 100.34 73.3431 101.041 72.9425C101.342 73.2429 101.617 73.6185 101.868 74.0692C102.118 74.5199 102.243 75.0457 102.243 75.6466C102.243 76.7483 101.592 77.6497 100.29 78.3508C98.9882 79.0519 97.1854 79.4024 94.8819 79.4024Z" fill="black"/>
<path d="M120.727 78.2757C120.476 78.3758 120.101 78.476 119.6 78.5761C119.099 78.7264 118.548 78.8015 117.948 78.8015C115.794 78.8015 114.718 77.9001 114.718 76.0973V50.6332C114.718 49.4815 114.918 48.5801 115.319 47.9291C115.769 47.228 116.495 46.552 117.497 45.901C118.799 45.0496 120.552 44.3235 122.755 43.7226C125.008 43.0716 127.537 42.7461 130.342 42.7461C134.348 42.7461 136.351 43.7476 136.351 45.7507C136.351 46.2515 136.276 46.7272 136.125 47.1779C135.975 47.5785 135.775 47.9291 135.525 48.2295C135.024 48.1294 134.373 48.0292 133.572 47.9291C132.77 47.8289 131.969 47.7788 131.168 47.7788C128.864 47.7788 126.836 48.0292 125.084 48.53C123.331 48.9807 121.879 49.5315 120.727 50.1825V78.2757Z" fill="black"/>
<path d="M178.646 61.0743C178.646 63.8786 178.245 66.4074 177.444 68.6609C176.643 70.9144 175.491 72.8423 173.989 74.4448C172.537 76.0472 170.759 77.2741 168.656 78.1254C166.552 78.9767 164.199 79.4024 161.595 79.4024C158.991 79.4024 156.637 78.9767 154.534 78.1254C152.431 77.2741 150.628 76.0472 149.126 74.4448C147.623 72.8423 146.472 70.9144 145.67 68.6609C144.869 66.4074 144.469 63.8786 144.469 61.0743C144.469 58.2699 144.869 55.7411 145.67 53.4876C146.522 51.2341 147.699 49.3062 149.201 47.7037C150.703 46.1013 152.506 44.8744 154.609 44.0231C156.712 43.1718 159.041 42.7461 161.595 42.7461C164.149 42.7461 166.477 43.1718 168.581 44.0231C170.684 44.8744 172.462 46.1013 173.914 47.7037C175.416 49.3062 176.568 51.2341 177.369 53.4876C178.22 55.7411 178.646 58.2699 178.646 61.0743ZM161.595 47.7037C158.19 47.7037 155.511 48.8805 153.558 51.2341C151.605 53.5878 150.628 56.8678 150.628 61.0743C150.628 65.3308 151.579 68.6359 153.482 70.9895C155.435 73.293 158.14 74.4448 161.595 74.4448C165.05 74.4448 167.729 73.268 169.632 70.9144C171.535 68.5608 172.487 65.2807 172.487 61.0743C172.487 56.8678 171.51 53.5878 169.557 51.2341C167.654 48.8805 165 47.7037 161.595 47.7037Z" fill="black"/>
<path d="M207.771 47.7788C206.068 47.7788 204.491 48.0793 203.039 48.6802C201.586 49.2311 200.334 50.0824 199.283 51.2341C198.231 52.3358 197.405 53.738 196.804 55.4406C196.203 57.0931 195.903 58.9961 195.903 61.1494C195.903 65.456 196.979 68.7611 199.133 71.0646C201.286 73.3181 204.165 74.4448 207.771 74.4448C209.874 74.4448 211.627 74.1694 213.029 73.6185C214.431 73.0176 215.683 72.3416 216.785 71.5904C217.336 71.8909 217.786 72.2664 218.137 72.7171C218.487 73.1678 218.663 73.7187 218.663 74.3697C218.663 75.0707 218.387 75.7217 217.836 76.3227C217.285 76.9236 216.509 77.4494 215.508 77.9001C214.556 78.3508 213.405 78.7013 212.052 78.9517C210.75 79.2522 209.323 79.4024 207.771 79.4024C205.167 79.4024 202.763 79.0268 200.56 78.2757C198.356 77.5245 196.453 76.3978 194.851 74.8955C193.249 73.3932 191.997 71.5153 191.095 69.2618C190.194 66.9583 189.743 64.2541 189.743 61.1494C189.743 58.0947 190.219 55.4406 191.17 53.1871C192.122 50.8836 193.399 48.9556 195.001 47.4033C196.604 45.8509 198.482 44.6991 200.635 43.948C202.838 43.1467 205.167 42.7461 207.621 42.7461C209.173 42.7461 210.6 42.8963 211.902 43.1968C213.254 43.4472 214.406 43.8228 215.357 44.3235C216.309 44.8243 217.035 45.4002 217.536 46.0512C218.087 46.6521 218.362 47.2781 218.362 47.9291C218.362 48.53 218.187 49.0558 217.836 49.5065C217.486 49.9572 217.035 50.3077 216.484 50.5581C215.383 49.807 214.181 49.156 212.879 48.6051C211.577 48.0543 209.874 47.7788 207.771 47.7788Z" fill="black"/>
<path d="M237.482 78.2757C237.232 78.3758 236.856 78.476 236.355 78.5761C235.854 78.7264 235.304 78.8015 234.703 78.8015C232.549 78.8015 231.473 77.9001 231.473 76.0973V29.7512C231.723 29.651 232.099 29.5508 232.599 29.4507C233.15 29.3005 233.726 29.2253 234.327 29.2253C236.43 29.2253 237.482 30.1267 237.482 31.9295V58.971L253.932 43.0466C255.134 43.0966 256.06 43.3971 256.711 43.948C257.413 44.4487 257.763 45.1248 257.763 45.9761C257.763 46.6771 257.538 47.3031 257.087 47.854C256.636 48.3547 256.035 48.9556 255.284 49.6567L243.191 60.248L259.941 75.2711C259.841 76.3727 259.491 77.2491 258.89 77.9001C258.339 78.5511 257.588 78.8766 256.636 78.8766C255.885 78.8766 255.184 78.7013 254.533 78.3508C253.932 77.9502 253.306 77.3993 252.655 76.6982L237.482 61.4498V78.2757Z" fill="black"/>
<path d="M275.23 64.6047C276.582 71.1647 280.889 74.4448 288.15 74.4448C290.253 74.4448 292.156 74.0942 293.859 73.3932C295.562 72.6921 296.914 71.9409 297.915 71.1397C299.117 71.8408 299.718 72.7922 299.718 73.9941C299.718 74.6952 299.392 75.3712 298.741 76.0222C298.14 76.6732 297.289 77.2491 296.187 77.7499C295.136 78.2506 293.884 78.6512 292.432 78.9517C291.03 79.2522 289.502 79.4024 287.85 79.4024C282.041 79.4024 277.434 77.825 274.028 74.6701C270.673 71.5153 268.996 66.9082 268.996 60.8489C268.996 57.9945 269.396 55.4656 270.198 53.2623C271.049 51.0088 272.201 49.1059 273.653 47.5535C275.155 46.0011 276.933 44.8243 278.986 44.0231C281.039 43.1718 283.268 42.7461 285.671 42.7461C287.925 42.7461 290.003 43.1217 291.906 43.8728C293.809 44.624 295.436 45.7006 296.788 47.1028C298.191 48.4549 299.267 50.0824 300.018 51.9853C300.82 53.8381 301.22 55.8913 301.22 58.1448C301.22 59.2464 300.97 60.0477 300.469 60.5484C299.968 60.9991 299.267 61.2746 298.366 61.3747L275.23 64.6047ZM285.596 47.6286C282.542 47.6286 280.013 48.7053 278.01 50.8586C276.007 52.9618 274.955 55.9914 274.855 59.9475L295.511 57.0931C295.261 54.3389 294.285 52.0855 292.582 50.3328C290.929 48.53 288.601 47.6286 285.596 47.6286Z" fill="black"/>
<path d="M325.524 79.4024C322.019 79.4024 319.164 78.6262 316.961 77.0738C314.808 75.5214 313.731 72.9425 313.731 69.3369V33.6572C313.981 33.557 314.357 33.4568 314.858 33.3567C315.409 33.2065 315.984 33.1313 316.585 33.1313C318.689 33.1313 319.74 34.0327 319.74 35.8355V44.4738H332.059C332.209 44.7241 332.36 45.0747 332.51 45.5254C332.66 45.926 332.735 46.3767 332.735 46.8775C332.735 48.5801 331.984 49.4314 330.482 49.4314H319.74V68.9614C319.74 70.9644 320.291 72.3916 321.393 73.2429C322.545 74.0442 324.147 74.4448 326.2 74.4448C327.051 74.4448 328.003 74.2946 329.055 73.9941C330.106 73.6936 330.983 73.3431 331.684 72.9425C331.984 73.2429 332.259 73.6185 332.51 74.0692C332.76 74.5199 332.885 75.0457 332.885 75.6466C332.885 76.7483 332.234 77.6497 330.932 78.3508C329.63 79.0519 327.828 79.4024 325.524 79.4024Z" fill="black"/>
<path d="M8.00923 78.2757C7.75884 78.3758 7.38327 78.476 6.8825 78.5761C6.38173 78.7264 5.83088 78.8015 5.22996 78.8015C3.07665 78.8015 2 77.9001 2 76.0973V29.7512C2.25038 29.651 2.62596 29.5508 3.12673 29.4507C3.67758 29.3005 4.22842 29.2253 4.77927 29.2253C6.93257 29.2253 8.00923 30.1267 8.00923 31.9295V78.2757Z" stroke="#071D3F" stroke-width="2.58111" mask="url(#path-1-outside-1_302_3)"/>
<path d="M30.1718 78.2757C29.9214 78.3758 29.5458 78.476 29.045 78.5761C28.5443 78.7264 27.9934 78.8015 27.3925 78.8015C25.2392 78.8015 24.1625 77.9001 24.1625 76.0973V43.8728C24.4129 43.7727 24.7885 43.6725 25.2893 43.5724C25.8401 43.4221 26.416 43.347 27.0169 43.347C29.1202 43.347 30.1718 44.2735 30.1718 46.1263V78.2757ZM23.2612 32.7558C23.2612 31.7042 23.6117 30.8278 24.3128 30.1267C25.0639 29.3756 26.0154 29 27.1672 29C28.3189 29 29.2454 29.3756 29.9464 30.1267C30.6475 30.8278 30.998 31.7042 30.998 32.7558C30.998 33.8074 30.6475 34.7088 29.9464 35.4599C29.2454 36.161 28.3189 36.5115 27.1672 36.5115C26.0154 36.5115 25.0639 36.161 24.3128 35.4599C23.6117 34.7088 23.2612 33.8074 23.2612 32.7558Z" stroke="#071D3F" stroke-width="2.58111" mask="url(#path-1-outside-1_302_3)"/>
<path d="M70.149 69.1867C70.149 72.3916 68.9722 74.8955 66.6186 76.6982C64.2649 78.501 60.8597 79.4024 56.4029 79.4024C54.5 79.4024 52.7473 79.2271 51.1448 78.8766C49.5423 78.5761 48.1652 78.1755 47.0135 77.6747C45.9118 77.1239 45.0354 76.523 44.3844 75.872C43.7835 75.1709 43.483 74.4698 43.483 73.7687C43.483 73.1678 43.6333 72.5919 43.9337 72.0411C44.2843 71.4902 44.785 71.0145 45.436 70.6139C46.7881 71.6154 48.3655 72.5168 50.1683 73.3181C51.9711 74.0692 54.0242 74.4448 56.3278 74.4448C61.5358 74.4448 64.1398 72.6921 64.1398 69.1867C64.1398 66.3323 62.4121 64.4795 58.9568 63.6282L52.7222 61.9756C49.6675 61.1744 47.4391 60.0226 46.037 58.5203C44.6348 56.9679 43.9337 54.9899 43.9337 52.5862C43.9337 51.2842 44.1841 50.0323 44.6849 48.8305C45.2357 47.6286 46.062 46.577 47.1637 45.6756C48.2654 44.7742 49.6175 44.0731 51.2199 43.5724C52.8725 43.0215 54.8004 42.7461 57.0038 42.7461C60.5092 42.7461 63.3385 43.2719 65.4918 44.3235C67.6451 45.3251 68.7218 46.5019 68.7218 47.854C68.7218 48.505 68.5465 49.0808 68.196 49.5816C67.8955 50.0824 67.4699 50.458 66.919 50.7083C66.0176 50.1074 64.7407 49.4564 63.0881 48.7553C61.4356 48.0543 59.4826 47.7037 57.2291 47.7037C54.9757 47.7037 53.1729 48.1294 51.8208 48.9807C50.5188 49.832 49.8678 51.0338 49.8678 52.5862C49.8678 53.738 50.2434 54.7145 50.9946 55.5157C51.7457 56.3169 52.9976 56.9179 54.7503 57.3185L59.9333 58.5954C63.3385 59.4468 65.8924 60.7237 67.5951 62.4263C69.2977 64.0789 70.149 66.3323 70.149 69.1867Z" stroke="#071D3F" stroke-width="2.58111" mask="url(#path-1-outside-1_302_3)"/>
<path d="M94.8819 79.4024C91.3765 79.4024 88.5221 78.6262 86.3187 77.0738C84.1654 75.5214 83.0888 72.9425 83.0888 69.3369V33.6572C83.3392 33.557 83.7147 33.4568 84.2155 33.3567C84.7663 33.2065 85.3422 33.1313 85.9432 33.1313C88.0464 33.1313 89.098 34.0327 89.098 35.8355V44.4738H101.417C101.567 44.7241 101.717 45.0747 101.868 45.5254C102.018 45.926 102.093 46.3767 102.093 46.8775C102.093 48.5801 101.342 49.4314 99.8395 49.4314H89.098V68.9614C89.098 70.9644 89.6488 72.3916 90.7505 73.2429C91.9023 74.0442 93.5048 74.4448 95.5579 74.4448C96.4092 74.4448 97.3607 74.2946 98.4123 73.9941C99.4639 73.6936 100.34 73.3431 101.041 72.9425C101.342 73.2429 101.617 73.6185 101.868 74.0692C102.118 74.5199 102.243 75.0457 102.243 75.6466C102.243 76.7483 101.592 77.6497 100.29 78.3508C98.9882 79.0519 97.1854 79.4024 94.8819 79.4024Z" stroke="#071D3F" stroke-width="2.58111" mask="url(#path-1-outside-1_302_3)"/>
<path d="M120.727 78.2757C120.476 78.3758 120.101 78.476 119.6 78.5761C119.099 78.7264 118.548 78.8015 117.948 78.8015C115.794 78.8015 114.718 77.9001 114.718 76.0973V50.6332C114.718 49.4815 114.918 48.5801 115.319 47.9291C115.769 47.228 116.495 46.552 117.497 45.901C118.799 45.0496 120.552 44.3235 122.755 43.7226C125.008 43.0716 127.537 42.7461 130.342 42.7461C134.348 42.7461 136.351 43.7476 136.351 45.7507C136.351 46.2515 136.276 46.7272 136.125 47.1779C135.975 47.5785 135.775 47.9291 135.525 48.2295C135.024 48.1294 134.373 48.0292 133.572 47.9291C132.77 47.8289 131.969 47.7788 131.168 47.7788C128.864 47.7788 126.836 48.0292 125.084 48.53C123.331 48.9807 121.879 49.5315 120.727 50.1825V78.2757Z" stroke="#071D3F" stroke-width="2.58111" mask="url(#path-1-outside-1_302_3)"/>
<path d="M178.646 61.0743C178.646 63.8786 178.245 66.4074 177.444 68.6609C176.643 70.9144 175.491 72.8423 173.989 74.4448C172.537 76.0472 170.759 77.2741 168.656 78.1254C166.552 78.9767 164.199 79.4024 161.595 79.4024C158.991 79.4024 156.637 78.9767 154.534 78.1254C152.431 77.2741 150.628 76.0472 149.126 74.4448C147.623 72.8423 146.472 70.9144 145.67 68.6609C144.869 66.4074 144.469 63.8786 144.469 61.0743C144.469 58.2699 144.869 55.7411 145.67 53.4876C146.522 51.2341 147.699 49.3062 149.201 47.7037C150.703 46.1013 152.506 44.8744 154.609 44.0231C156.712 43.1718 159.041 42.7461 161.595 42.7461C164.149 42.7461 166.477 43.1718 168.581 44.0231C170.684 44.8744 172.462 46.1013 173.914 47.7037C175.416 49.3062 176.568 51.2341 177.369 53.4876C178.22 55.7411 178.646 58.2699 178.646 61.0743ZM161.595 47.7037C158.19 47.7037 155.511 48.8805 153.558 51.2341C151.605 53.5878 150.628 56.8678 150.628 61.0743C150.628 65.3308 151.579 68.6359 153.482 70.9895C155.435 73.293 158.14 74.4448 161.595 74.4448C165.05 74.4448 167.729 73.268 169.632 70.9144C171.535 68.5608 172.487 65.2807 172.487 61.0743C172.487 56.8678 171.51 53.5878 169.557 51.2341C167.654 48.8805 165 47.7037 161.595 47.7037Z" stroke="#071D3F" stroke-width="2.58111" mask="url(#path-1-outside-1_302_3)"/>
<path d="M207.771 47.7788C206.068 47.7788 204.491 48.0793 203.039 48.6802C201.586 49.2311 200.334 50.0824 199.283 51.2341C198.231 52.3358 197.405 53.738 196.804 55.4406C196.203 57.0931 195.903 58.9961 195.903 61.1494C195.903 65.456 196.979 68.7611 199.133 71.0646C201.286 73.3181 204.165 74.4448 207.771 74.4448C209.874 74.4448 211.627 74.1694 213.029 73.6185C214.431 73.0176 215.683 72.3416 216.785 71.5904C217.336 71.8909 217.786 72.2664 218.137 72.7171C218.487 73.1678 218.663 73.7187 218.663 74.3697C218.663 75.0707 218.387 75.7217 217.836 76.3227C217.285 76.9236 216.509 77.4494 215.508 77.9001C214.556 78.3508 213.405 78.7013 212.052 78.9517C210.75 79.2522 209.323 79.4024 207.771 79.4024C205.167 79.4024 202.763 79.0268 200.56 78.2757C198.356 77.5245 196.453 76.3978 194.851 74.8955C193.249 73.3932 191.997 71.5153 191.095 69.2618C190.194 66.9583 189.743 64.2541 189.743 61.1494C189.743 58.0947 190.219 55.4406 191.17 53.1871C192.122 50.8836 193.399 48.9556 195.001 47.4033C196.604 45.8509 198.482 44.6991 200.635 43.948C202.838 43.1467 205.167 42.7461 207.621 42.7461C209.173 42.7461 210.6 42.8963 211.902 43.1968C213.254 43.4472 214.406 43.8228 215.357 44.3235C216.309 44.8243 217.035 45.4002 217.536 46.0512C218.087 46.6521 218.362 47.2781 218.362 47.9291C218.362 48.53 218.187 49.0558 217.836 49.5065C217.486 49.9572 217.035 50.3077 216.484 50.5581C215.383 49.807 214.181 49.156 212.879 48.6051C211.577 48.0543 209.874 47.7788 207.771 47.7788Z" stroke="#071D3F" stroke-width="2.58111" mask="url(#path-1-outside-1_302_3)"/>
<path d="M237.482 78.2757C237.232 78.3758 236.856 78.476 236.355 78.5761C235.854 78.7264 235.304 78.8015 234.703 78.8015C232.549 78.8015 231.473 77.9001 231.473 76.0973V29.7512C231.723 29.651 232.099 29.5508 232.599 29.4507C233.15 29.3005 233.726 29.2253 234.327 29.2253C236.43 29.2253 237.482 30.1267 237.482 31.9295V58.971L253.932 43.0466C255.134 43.0966 256.06 43.3971 256.711 43.948C257.413 44.4487 257.763 45.1248 257.763 45.9761C257.763 46.6771 257.538 47.3031 257.087 47.854C256.636 48.3547 256.035 48.9556 255.284 49.6567L243.191 60.248L259.941 75.2711C259.841 76.3727 259.491 77.2491 258.89 77.9001C258.339 78.5511 257.588 78.8766 256.636 78.8766C255.885 78.8766 255.184 78.7013 254.533 78.3508C253.932 77.9502 253.306 77.3993 252.655 76.6982L237.482 61.4498V78.2757Z" stroke="#071D3F" stroke-width="2.58111" mask="url(#path-1-outside-1_302_3)"/>
<path d="M275.23 64.6047C276.582 71.1647 280.889 74.4448 288.15 74.4448C290.253 74.4448 292.156 74.0942 293.859 73.3932C295.562 72.6921 296.914 71.9409 297.915 71.1397C299.117 71.8408 299.718 72.7922 299.718 73.9941C299.718 74.6952 299.392 75.3712 298.741 76.0222C298.14 76.6732 297.289 77.2491 296.187 77.7499C295.136 78.2506 293.884 78.6512 292.432 78.9517C291.03 79.2522 289.502 79.4024 287.85 79.4024C282.041 79.4024 277.434 77.825 274.028 74.6701C270.673 71.5153 268.996 66.9082 268.996 60.8489C268.996 57.9945 269.396 55.4656 270.198 53.2623C271.049 51.0088 272.201 49.1059 273.653 47.5535C275.155 46.0011 276.933 44.8243 278.986 44.0231C281.039 43.1718 283.268 42.7461 285.671 42.7461C287.925 42.7461 290.003 43.1217 291.906 43.8728C293.809 44.624 295.436 45.7006 296.788 47.1028C298.191 48.4549 299.267 50.0824 300.018 51.9853C300.82 53.8381 301.22 55.8913 301.22 58.1448C301.22 59.2464 300.97 60.0477 300.469 60.5484C299.968 60.9991 299.267 61.2746 298.366 61.3747L275.23 64.6047ZM285.596 47.6286C282.542 47.6286 280.013 48.7053 278.01 50.8586C276.007 52.9618 274.955 55.9914 274.855 59.9475L295.511 57.0931C295.261 54.3389 294.285 52.0855 292.582 50.3328C290.929 48.53 288.601 47.6286 285.596 47.6286Z" stroke="#071D3F" stroke-width="2.58111" mask="url(#path-1-outside-1_302_3)"/>
<path d="M325.524 79.4024C322.019 79.4024 319.164 78.6262 316.961 77.0738C314.808 75.5214 313.731 72.9425 313.731 69.3369V33.6572C313.981 33.557 314.357 33.4568 314.858 33.3567C315.409 33.2065 315.984 33.1313 316.585 33.1313C318.689 33.1313 319.74 34.0327 319.74 35.8355V44.4738H332.059C332.209 44.7241 332.36 45.0747 332.51 45.5254C332.66 45.926 332.735 46.3767 332.735 46.8775C332.735 48.5801 331.984 49.4314 330.482 49.4314H319.74V68.9614C319.74 70.9644 320.291 72.3916 321.393 73.2429C322.545 74.0442 324.147 74.4448 326.2 74.4448C327.051 74.4448 328.003 74.2946 329.055 73.9941C330.106 73.6936 330.983 73.3431 331.684 72.9425C331.984 73.2429 332.259 73.6185 332.51 74.0692C332.76 74.5199 332.885 75.0457 332.885 75.6466C332.885 76.7483 332.234 77.6497 330.932 78.3508C329.63 79.0519 327.828 79.4024 325.524 79.4024Z" stroke="#071D3F" stroke-width="2.58111" mask="url(#path-1-outside-1_302_3)"/>
<path fill-rule="evenodd" clip-rule="evenodd" d="M396.573 24.2001C396.573 24.2001 393.038 0.633425 382.433 0.633425C371.835 0.633425 368.298 24.1691 368.293 24.2001H368.293V71.3334H396.573V24.2001H396.573Z" fill="#BB6BD9"/>
<path fill-rule="evenodd" clip-rule="evenodd" d="M389.503 31.27C389.503 35.1747 386.338 38.34 382.433 38.34C378.529 38.34 375.363 35.1747 375.363 31.27C375.363 27.3654 378.529 24.2 382.433 24.2C386.338 24.2 389.503 27.3654 389.503 31.27ZM368.293 47.7667C363.087 47.7667 358.867 51.9872 358.867 57.1934V73.6901C358.867 76.2932 360.977 78.4034 363.58 78.4034C366.183 78.4034 368.293 76.2932 368.293 73.6901V47.7667ZM406 57.1934C406 51.9872 401.78 47.7667 396.573 47.7667V73.6901C396.573 76.2932 398.684 78.4034 401.287 78.4034C403.89 78.4034 406 76.2932 406 73.6901V57.1934ZM377.72 57.1934C377.72 54.5903 379.83 52.4801 382.433 52.4801C385.036 52.4801 387.147 54.5903 387.147 57.1934V77.2251C387.147 79.8282 385.036 81.9384 382.433 81.9384C379.83 81.9384 377.72 79.8282 377.72 77.2251V57.1934ZM372.278 87.8056C370.426 87.8056 368.925 89.3067 368.925 91.1584C368.925 93.0101 370.426 94.5112 372.278 94.5112C374.13 94.5112 375.631 93.0101 375.631 91.1584C375.631 89.3067 374.13 87.8056 372.278 87.8056ZM392.395 87.8057C390.543 87.8057 389.042 89.3068 389.042 91.1585C389.042 93.0102 390.543 94.5113 392.395 94.5113C394.246 94.5113 395.747 93.0102 395.747 91.1585C395.747 89.3068 394.246 87.8057 392.395 87.8057ZM378.983 104.57C378.983 102.718 380.484 101.217 382.336 101.217C384.188 101.217 385.689 102.718 385.689 104.57C385.689 106.421 384.188 107.923 382.336 107.923C380.484 107.923 378.983 106.421 378.983 104.57ZM362.22 101.217C360.368 101.217 358.867 102.718 358.867 104.57C358.867 106.421 360.368 107.922 362.22 107.922C364.071 107.922 365.572 106.421 365.572 104.57C365.572 102.718 364.071 101.217 362.22 101.217ZM399.1 104.57C399.1 102.718 400.601 101.217 402.453 101.217C404.305 101.217 405.806 102.718 405.806 104.57C405.806 106.421 404.305 107.922 402.453 107.922C400.601 107.922 399.1 106.421 399.1 104.57Z" fill="url(#paint0_linear_302_3)"/>
<defs>
<linearGradient id="paint0_linear_302_3" x1="382.433" y1="24.2" x2="382.433" y2="107.923" gradientUnits="userSpaceOnUse">
<stop stop-color="#56CCF2"/>
<stop offset="1" stop-color="#AD00FF"/>
</linearGradient>
</defs>
</svg>

