<svg width="405" height="108" viewBox="0 0 405 108" fill="none" xmlns="http://www.w3.org/2000/svg">
<mask id="path-1-outside-1_318_36" maskUnits="userSpaceOnUse" x="0" y="28" width="333" height="53" fill="black">
<rect fill="white" y="28" width="333" height="53"/>
<path d="M7.00923 78.2757C6.75884 78.3758 6.38327 78.476 5.8825 78.5761C5.38173 78.7264 4.83088 78.8015 4.22996 78.8015C2.07665 78.8015 1 77.9001 1 76.0973V29.7512C1.25038 29.651 1.62596 29.5508 2.12673 29.4507C2.67758 29.3005 3.22842 29.2253 3.77927 29.2253C5.93257 29.2253 7.00923 30.1267 7.00923 31.9295V78.2757Z"/>
<path d="M29.1718 78.2757C28.9214 78.3758 28.5458 78.476 28.045 78.5761C27.5443 78.7264 26.9934 78.8015 26.3925 78.8015C24.2392 78.8015 23.1625 77.9001 23.1625 76.0973V43.8728C23.4129 43.7727 23.7885 43.6725 24.2893 43.5724C24.8401 43.4221 25.416 43.347 26.0169 43.347C28.1202 43.347 29.1718 44.2735 29.1718 46.1263V78.2757ZM22.2612 32.7558C22.2612 31.7042 22.6117 30.8278 23.3128 30.1267C24.0639 29.3756 25.0154 29 26.1672 29C27.3189 29 28.2454 29.3756 28.9464 30.1267C29.6475 30.8278 29.998 31.7042 29.998 32.7558C29.998 33.8074 29.6475 34.7088 28.9464 35.4599C28.2454 36.161 27.3189 36.5115 26.1672 36.5115C25.0154 36.5115 24.0639 36.161 23.3128 35.4599C22.6117 34.7088 22.2612 33.8074 22.2612 32.7558Z"/>
<path d="M69.149 69.1867C69.149 72.3916 67.9722 74.8955 65.6186 76.6982C63.2649 78.501 59.8597 79.4024 55.4029 79.4024C53.5 79.4024 51.7473 79.2271 50.1448 78.8766C48.5423 78.5761 47.1652 78.1755 46.0135 77.6747C44.9118 77.1239 44.0354 76.523 43.3844 75.872C42.7835 75.1709 42.483 74.4698 42.483 73.7687C42.483 73.1678 42.6333 72.5919 42.9337 72.0411C43.2843 71.4902 43.785 71.0145 44.436 70.6139C45.7881 71.6154 47.3655 72.5168 49.1683 73.3181C50.9711 74.0692 53.0242 74.4448 55.3278 74.4448C60.5358 74.4448 63.1398 72.6921 63.1398 69.1867C63.1398 66.3323 61.4121 64.4795 57.9568 63.6282L51.7222 61.9756C48.6675 61.1744 46.4391 60.0226 45.037 58.5203C43.6348 56.9679 42.9337 54.9899 42.9337 52.5862C42.9337 51.2842 43.1841 50.0323 43.6849 48.8305C44.2357 47.6286 45.062 46.577 46.1637 45.6756C47.2654 44.7742 48.6175 44.0731 50.2199 43.5724C51.8725 43.0215 53.8004 42.7461 56.0038 42.7461C59.5092 42.7461 62.3385 43.2719 64.4918 44.3235C66.6451 45.3251 67.7218 46.5019 67.7218 47.854C67.7218 48.505 67.5465 49.0808 67.196 49.5816C66.8955 50.0824 66.4699 50.458 65.919 50.7083C65.0176 50.1074 63.7407 49.4564 62.0881 48.7553C60.4356 48.0543 58.4826 47.7037 56.2291 47.7037C53.9757 47.7037 52.1729 48.1294 50.8208 48.9807C49.5188 49.832 48.8678 51.0338 48.8678 52.5862C48.8678 53.738 49.2434 54.7145 49.9946 55.5157C50.7457 56.3169 51.9976 56.9179 53.7503 57.3185L58.9333 58.5954C62.3385 59.4468 64.8924 60.7237 66.5951 62.4263C68.2977 64.0789 69.149 66.3323 69.149 69.1867Z"/>
<path d="M93.8819 79.4024C90.3765 79.4024 87.5221 78.6262 85.3187 77.0738C83.1654 75.5214 82.0888 72.9425 82.0888 69.3369V33.6572C82.3392 33.557 82.7147 33.4568 83.2155 33.3567C83.7663 33.2065 84.3422 33.1313 84.9432 33.1313C87.0464 33.1313 88.098 34.0327 88.098 35.8355V44.4738H100.417C100.567 44.7241 100.717 45.0747 100.868 45.5254C101.018 45.926 101.093 46.3767 101.093 46.8775C101.093 48.5801 100.342 49.4314 98.8395 49.4314H88.098V68.9614C88.098 70.9644 88.6488 72.3916 89.7505 73.2429C90.9023 74.0442 92.5048 74.4448 94.5579 74.4448C95.4092 74.4448 96.3607 74.2946 97.4123 73.9941C98.4639 73.6936 99.3403 73.3431 100.041 72.9425C100.342 73.2429 100.617 73.6185 100.868 74.0692C101.118 74.5199 101.243 75.0457 101.243 75.6466C101.243 76.7483 100.592 77.6497 99.2902 78.3508C97.9882 79.0519 96.1854 79.4024 93.8819 79.4024Z"/>
<path d="M119.727 78.2757C119.476 78.3758 119.101 78.476 118.6 78.5761C118.099 78.7264 117.548 78.8015 116.948 78.8015C114.794 78.8015 113.718 77.9001 113.718 76.0973V50.6332C113.718 49.4815 113.918 48.5801 114.319 47.9291C114.769 47.228 115.495 46.552 116.497 45.901C117.799 45.0496 119.552 44.3235 121.755 43.7226C124.008 43.0716 126.537 42.7461 129.342 42.7461C133.348 42.7461 135.351 43.7476 135.351 45.7507C135.351 46.2515 135.276 46.7272 135.125 47.1779C134.975 47.5785 134.775 47.9291 134.525 48.2295C134.024 48.1294 133.373 48.0292 132.572 47.9291C131.77 47.8289 130.969 47.7788 130.168 47.7788C127.864 47.7788 125.836 48.0292 124.084 48.53C122.331 48.9807 120.879 49.5315 119.727 50.1825V78.2757Z"/>
<path d="M177.646 61.0743C177.646 63.8786 177.245 66.4074 176.444 68.6609C175.643 70.9144 174.491 72.8423 172.989 74.4448C171.537 76.0472 169.759 77.2741 167.656 78.1254C165.552 78.9767 163.199 79.4024 160.595 79.4024C157.991 79.4024 155.637 78.9767 153.534 78.1254C151.431 77.2741 149.628 76.0472 148.126 74.4448C146.623 72.8423 145.472 70.9144 144.67 68.6609C143.869 66.4074 143.469 63.8786 143.469 61.0743C143.469 58.2699 143.869 55.7411 144.67 53.4876C145.522 51.2341 146.699 49.3062 148.201 47.7037C149.703 46.1013 151.506 44.8744 153.609 44.0231C155.712 43.1718 158.041 42.7461 160.595 42.7461C163.149 42.7461 165.477 43.1718 167.581 44.0231C169.684 44.8744 171.462 46.1013 172.914 47.7037C174.416 49.3062 175.568 51.2341 176.369 53.4876C177.22 55.7411 177.646 58.2699 177.646 61.0743ZM160.595 47.7037C157.19 47.7037 154.511 48.8805 152.558 51.2341C150.605 53.5878 149.628 56.8678 149.628 61.0743C149.628 65.3308 150.579 68.6359 152.482 70.9895C154.435 73.293 157.14 74.4448 160.595 74.4448C164.05 74.4448 166.729 73.268 168.632 70.9144C170.535 68.5608 171.487 65.2807 171.487 61.0743C171.487 56.8678 170.51 53.5878 168.557 51.2341C166.654 48.8805 164 47.7037 160.595 47.7037Z"/>
<path d="M206.771 47.7788C205.068 47.7788 203.491 48.0793 202.039 48.6802C200.586 49.2311 199.334 50.0824 198.283 51.2341C197.231 52.3358 196.405 53.738 195.804 55.4406C195.203 57.0931 194.903 58.9961 194.903 61.1494C194.903 65.456 195.979 68.7611 198.133 71.0646C200.286 73.3181 203.165 74.4448 206.771 74.4448C208.874 74.4448 210.627 74.1694 212.029 73.6185C213.431 73.0176 214.683 72.3416 215.785 71.5904C216.336 71.8909 216.786 72.2664 217.137 72.7171C217.487 73.1678 217.663 73.7187 217.663 74.3697C217.663 75.0707 217.387 75.7217 216.836 76.3227C216.285 76.9236 215.509 77.4494 214.508 77.9001C213.556 78.3508 212.405 78.7013 211.052 78.9517C209.75 79.2522 208.323 79.4024 206.771 79.4024C204.167 79.4024 201.763 79.0268 199.56 78.2757C197.356 77.5245 195.453 76.3978 193.851 74.8955C192.249 73.3932 190.997 71.5153 190.095 69.2618C189.194 66.9583 188.743 64.2541 188.743 61.1494C188.743 58.0947 189.219 55.4406 190.17 53.1871C191.122 50.8836 192.399 48.9556 194.001 47.4033C195.604 45.8509 197.482 44.6991 199.635 43.948C201.838 43.1467 204.167 42.7461 206.621 42.7461C208.173 42.7461 209.6 42.8963 210.902 43.1968C212.254 43.4472 213.406 43.8228 214.357 44.3235C215.309 44.8243 216.035 45.4002 216.536 46.0512C217.087 46.6521 217.362 47.2781 217.362 47.9291C217.362 48.53 217.187 49.0558 216.836 49.5065C216.486 49.9572 216.035 50.3077 215.484 50.5581C214.383 49.807 213.181 49.156 211.879 48.6051C210.577 48.0543 208.874 47.7788 206.771 47.7788Z"/>
<path d="M236.482 78.2757C236.232 78.3758 235.856 78.476 235.355 78.5761C234.854 78.7264 234.304 78.8015 233.703 78.8015C231.549 78.8015 230.473 77.9001 230.473 76.0973V29.7512C230.723 29.651 231.099 29.5508 231.599 29.4507C232.15 29.3005 232.726 29.2253 233.327 29.2253C235.43 29.2253 236.482 30.1267 236.482 31.9295V58.971L252.932 43.0466C254.134 43.0966 255.06 43.3971 255.711 43.948C256.413 44.4487 256.763 45.1248 256.763 45.9761C256.763 46.6771 256.538 47.3031 256.087 47.854C255.636 48.3547 255.035 48.9556 254.284 49.6567L242.191 60.248L258.941 75.2711C258.841 76.3727 258.491 77.2491 257.89 77.9001C257.339 78.5511 256.588 78.8766 255.636 78.8766C254.885 78.8766 254.184 78.7013 253.533 78.3508C252.932 77.9502 252.306 77.3993 251.655 76.6982L236.482 61.4498V78.2757Z"/>
<path d="M274.23 64.6047C275.582 71.1647 279.889 74.4448 287.15 74.4448C289.253 74.4448 291.156 74.0942 292.859 73.3932C294.562 72.6921 295.914 71.9409 296.915 71.1397C298.117 71.8408 298.718 72.7922 298.718 73.9941C298.718 74.6952 298.392 75.3712 297.741 76.0222C297.14 76.6732 296.289 77.2491 295.187 77.7499C294.136 78.2506 292.884 78.6512 291.432 78.9517C290.03 79.2522 288.502 79.4024 286.85 79.4024C281.041 79.4024 276.434 77.825 273.028 74.6701C269.673 71.5153 267.996 66.9082 267.996 60.8489C267.996 57.9945 268.396 55.4656 269.198 53.2623C270.049 51.0088 271.201 49.1059 272.653 47.5535C274.155 46.0011 275.933 44.8243 277.986 44.0231C280.039 43.1718 282.268 42.7461 284.671 42.7461C286.925 42.7461 289.003 43.1217 290.906 43.8728C292.809 44.624 294.436 45.7006 295.788 47.1028C297.191 48.4549 298.267 50.0824 299.018 51.9853C299.82 53.8381 300.22 55.8913 300.22 58.1448C300.22 59.2464 299.97 60.0477 299.469 60.5484C298.968 60.9991 298.267 61.2746 297.366 61.3747L274.23 64.6047ZM284.596 47.6286C281.542 47.6286 279.013 48.7053 277.01 50.8586C275.007 52.9618 273.955 55.9914 273.855 59.9475L294.511 57.0931C294.261 54.3389 293.285 52.0855 291.582 50.3328C289.929 48.53 287.601 47.6286 284.596 47.6286Z"/>
<path d="M324.524 79.4024C321.019 79.4024 318.164 78.6262 315.961 77.0738C313.808 75.5214 312.731 72.9425 312.731 69.3369V33.6572C312.981 33.557 313.357 33.4568 313.858 33.3567C314.409 33.2065 314.984 33.1313 315.585 33.1313C317.689 33.1313 318.74 34.0327 318.74 35.8355V44.4738H331.059C331.209 44.7241 331.36 45.0747 331.51 45.5254C331.66 45.926 331.735 46.3767 331.735 46.8775C331.735 48.5801 330.984 49.4314 329.482 49.4314H318.74V68.9614C318.74 70.9644 319.291 72.3916 320.393 73.2429C321.545 74.0442 323.147 74.4448 325.2 74.4448C326.051 74.4448 327.003 74.2946 328.055 73.9941C329.106 73.6936 329.983 73.3431 330.684 72.9425C330.984 73.2429 331.259 73.6185 331.51 74.0692C331.76 74.5199 331.885 75.0457 331.885 75.6466C331.885 76.7483 331.234 77.6497 329.932 78.3508C328.63 79.0519 326.828 79.4024 324.524 79.4024Z"/>
</mask>
<path d="M7.00923 78.2757C6.75884 78.3758 6.38327 78.476 5.8825 78.5761C5.38173 78.7264 4.83088 78.8015 4.22996 78.8015C2.07665 78.8015 1 77.9001 1 76.0973V29.7512C1.25038 29.651 1.62596 29.5508 2.12673 29.4507C2.67758 29.3005 3.22842 29.2253 3.77927 29.2253C5.93257 29.2253 7.00923 30.1267 7.00923 31.9295V78.2757Z" fill="white"/>
<path d="M29.1718 78.2757C28.9214 78.3758 28.5458 78.476 28.045 78.5761C27.5443 78.7264 26.9934 78.8015 26.3925 78.8015C24.2392 78.8015 23.1625 77.9001 23.1625 76.0973V43.8728C23.4129 43.7727 23.7885 43.6725 24.2893 43.5724C24.8401 43.4221 25.416 43.347 26.0169 43.347C28.1202 43.347 29.1718 44.2735 29.1718 46.1263V78.2757ZM22.2612 32.7558C22.2612 31.7042 22.6117 30.8278 23.3128 30.1267C24.0639 29.3756 25.0154 29 26.1672 29C27.3189 29 28.2454 29.3756 28.9464 30.1267C29.6475 30.8278 29.998 31.7042 29.998 32.7558C29.998 33.8074 29.6475 34.7088 28.9464 35.4599C28.2454 36.161 27.3189 36.5115 26.1672 36.5115C25.0154 36.5115 24.0639 36.161 23.3128 35.4599C22.6117 34.7088 22.2612 33.8074 22.2612 32.7558Z" fill="white"/>
<path d="M69.149 69.1867C69.149 72.3916 67.9722 74.8955 65.6186 76.6982C63.2649 78.501 59.8597 79.4024 55.4029 79.4024C53.5 79.4024 51.7473 79.2271 50.1448 78.8766C48.5423 78.5761 47.1652 78.1755 46.0135 77.6747C44.9118 77.1239 44.0354 76.523 43.3844 75.872C42.7835 75.1709 42.483 74.4698 42.483 73.7687C42.483 73.1678 42.6333 72.5919 42.9337 72.0411C43.2843 71.4902 43.785 71.0145 44.436 70.6139C45.7881 71.6154 47.3655 72.5168 49.1683 73.3181C50.9711 74.0692 53.0242 74.4448 55.3278 74.4448C60.5358 74.4448 63.1398 72.6921 63.1398 69.1867C63.1398 66.3323 61.4121 64.4795 57.9568 63.6282L51.7222 61.9756C48.6675 61.1744 46.4391 60.0226 45.037 58.5203C43.6348 56.9679 42.9337 54.9899 42.9337 52.5862C42.9337 51.2842 43.1841 50.0323 43.6849 48.8305C44.2357 47.6286 45.062 46.577 46.1637 45.6756C47.2654 44.7742 48.6175 44.0731 50.2199 43.5724C51.8725 43.0215 53.8004 42.7461 56.0038 42.7461C59.5092 42.7461 62.3385 43.2719 64.4918 44.3235C66.6451 45.3251 67.7218 46.5019 67.7218 47.854C67.7218 48.505 67.5465 49.0808 67.196 49.5816C66.8955 50.0824 66.4699 50.458 65.919 50.7083C65.0176 50.1074 63.7407 49.4564 62.0881 48.7553C60.4356 48.0543 58.4826 47.7037 56.2291 47.7037C53.9757 47.7037 52.1729 48.1294 50.8208 48.9807C49.5188 49.832 48.8678 51.0338 48.8678 52.5862C48.8678 53.738 49.2434 54.7145 49.9946 55.5157C50.7457 56.3169 51.9976 56.9179 53.7503 57.3185L58.9333 58.5954C62.3385 59.4468 64.8924 60.7237 66.5951 62.4263C68.2977 64.0789 69.149 66.3323 69.149 69.1867Z" fill="white"/>
<path d="M93.8819 79.4024C90.3765 79.4024 87.5221 78.6262 85.3187 77.0738C83.1654 75.5214 82.0888 72.9425 82.0888 69.3369V33.6572C82.3392 33.557 82.7147 33.4568 83.2155 33.3567C83.7663 33.2065 84.3422 33.1313 84.9432 33.1313C87.0464 33.1313 88.098 34.0327 88.098 35.8355V44.4738H100.417C100.567 44.7241 100.717 45.0747 100.868 45.5254C101.018 45.926 101.093 46.3767 101.093 46.8775C101.093 48.5801 100.342 49.4314 98.8395 49.4314H88.098V68.9614C88.098 70.9644 88.6488 72.3916 89.7505 73.2429C90.9023 74.0442 92.5048 74.4448 94.5579 74.4448C95.4092 74.4448 96.3607 74.2946 97.4123 73.9941C98.4639 73.6936 99.3403 73.3431 100.041 72.9425C100.342 73.2429 100.617 73.6185 100.868 74.0692C101.118 74.5199 101.243 75.0457 101.243 75.6466C101.243 76.7483 100.592 77.6497 99.2902 78.3508C97.9882 79.0519 96.1854 79.4024 93.8819 79.4024Z" fill="white"/>
<path d="M119.727 78.2757C119.476 78.3758 119.101 78.476 118.6 78.5761C118.099 78.7264 117.548 78.8015 116.948 78.8015C114.794 78.8015 113.718 77.9001 113.718 76.0973V50.6332C113.718 49.4815 113.918 48.5801 114.319 47.9291C114.769 47.228 115.495 46.552 116.497 45.901C117.799 45.0496 119.552 44.3235 121.755 43.7226C124.008 43.0716 126.537 42.7461 129.342 42.7461C133.348 42.7461 135.351 43.7476 135.351 45.7507C135.351 46.2515 135.276 46.7272 135.125 47.1779C134.975 47.5785 134.775 47.9291 134.525 48.2295C134.024 48.1294 133.373 48.0292 132.572 47.9291C131.77 47.8289 130.969 47.7788 130.168 47.7788C127.864 47.7788 125.836 48.0292 124.084 48.53C122.331 48.9807 120.879 49.5315 119.727 50.1825V78.2757Z" fill="white"/>
<path d="M177.646 61.0743C177.646 63.8786 177.245 66.4074 176.444 68.6609C175.643 70.9144 174.491 72.8423 172.989 74.4448C171.537 76.0472 169.759 77.2741 167.656 78.1254C165.552 78.9767 163.199 79.4024 160.595 79.4024C157.991 79.4024 155.637 78.9767 153.534 78.1254C151.431 77.2741 149.628 76.0472 148.126 74.4448C146.623 72.8423 145.472 70.9144 144.67 68.6609C143.869 66.4074 143.469 63.8786 143.469 61.0743C143.469 58.2699 143.869 55.7411 144.67 53.4876C145.522 51.2341 146.699 49.3062 148.201 47.7037C149.703 46.1013 151.506 44.8744 153.609 44.0231C155.712 43.1718 158.041 42.7461 160.595 42.7461C163.149 42.7461 165.477 43.1718 167.581 44.0231C169.684 44.8744 171.462 46.1013 172.914 47.7037C174.416 49.3062 175.568 51.2341 176.369 53.4876C177.22 55.7411 177.646 58.2699 177.646 61.0743ZM160.595 47.7037C157.19 47.7037 154.511 48.8805 152.558 51.2341C150.605 53.5878 149.628 56.8678 149.628 61.0743C149.628 65.3308 150.579 68.6359 152.482 70.9895C154.435 73.293 157.14 74.4448 160.595 74.4448C164.05 74.4448 166.729 73.268 168.632 70.9144C170.535 68.5608 171.487 65.2807 171.487 61.0743C171.487 56.8678 170.51 53.5878 168.557 51.2341C166.654 48.8805 164 47.7037 160.595 47.7037Z" fill="white"/>
<path d="M206.771 47.7788C205.068 47.7788 203.491 48.0793 202.039 48.6802C200.586 49.2311 199.334 50.0824 198.283 51.2341C197.231 52.3358 196.405 53.738 195.804 55.4406C195.203 57.0931 194.903 58.9961 194.903 61.1494C194.903 65.456 195.979 68.7611 198.133 71.0646C200.286 73.3181 203.165 74.4448 206.771 74.4448C208.874 74.4448 210.627 74.1694 212.029 73.6185C213.431 73.0176 214.683 72.3416 215.785 71.5904C216.336 71.8909 216.786 72.2664 217.137 72.7171C217.487 73.1678 217.663 73.7187 217.663 74.3697C217.663 75.0707 217.387 75.7217 216.836 76.3227C216.285 76.9236 215.509 77.4494 214.508 77.9001C213.556 78.3508 212.405 78.7013 211.052 78.9517C209.75 79.2522 208.323 79.4024 206.771 79.4024C204.167 79.4024 201.763 79.0268 199.56 78.2757C197.356 77.5245 195.453 76.3978 193.851 74.8955C192.249 73.3932 190.997 71.5153 190.095 69.2618C189.194 66.9583 188.743 64.2541 188.743 61.1494C188.743 58.0947 189.219 55.4406 190.17 53.1871C191.122 50.8836 192.399 48.9556 194.001 47.4033C195.604 45.8509 197.482 44.6991 199.635 43.948C201.838 43.1467 204.167 42.7461 206.621 42.7461C208.173 42.7461 209.6 42.8963 210.902 43.1968C212.254 43.4472 213.406 43.8228 214.357 44.3235C215.309 44.8243 216.035 45.4002 216.536 46.0512C217.087 46.6521 217.362 47.2781 217.362 47.9291C217.362 48.53 217.187 49.0558 216.836 49.5065C216.486 49.9572 216.035 50.3077 215.484 50.5581C214.383 49.807 213.181 49.156 211.879 48.6051C210.577 48.0543 208.874 47.7788 206.771 47.7788Z" fill="white"/>
<path d="M236.482 78.2757C236.232 78.3758 235.856 78.476 235.355 78.5761C234.854 78.7264 234.304 78.8015 233.703 78.8015C231.549 78.8015 230.473 77.9001 230.473 76.0973V29.7512C230.723 29.651 231.099 29.5508 231.599 29.4507C232.15 29.3005 232.726 29.2253 233.327 29.2253C235.43 29.2253 236.482 30.1267 236.482 31.9295V58.971L252.932 43.0466C254.134 43.0966 255.06 43.3971 255.711 43.948C256.413 44.4487 256.763 45.1248 256.763 45.9761C256.763 46.6771 256.538 47.3031 256.087 47.854C255.636 48.3547 255.035 48.9556 254.284 49.6567L242.191 60.248L258.941 75.2711C258.841 76.3727 258.491 77.2491 257.89 77.9001C257.339 78.5511 256.588 78.8766 255.636 78.8766C254.885 78.8766 254.184 78.7013 253.533 78.3508C252.932 77.9502 252.306 77.3993 251.655 76.6982L236.482 61.4498V78.2757Z" fill="white"/>
<path d="M274.23 64.6047C275.582 71.1647 279.889 74.4448 287.15 74.4448C289.253 74.4448 291.156 74.0942 292.859 73.3932C294.562 72.6921 295.914 71.9409 296.915 71.1397C298.117 71.8408 298.718 72.7922 298.718 73.9941C298.718 74.6952 298.392 75.3712 297.741 76.0222C297.14 76.6732 296.289 77.2491 295.187 77.7499C294.136 78.2506 292.884 78.6512 291.432 78.9517C290.03 79.2522 288.502 79.4024 286.85 79.4024C281.041 79.4024 276.434 77.825 273.028 74.6701C269.673 71.5153 267.996 66.9082 267.996 60.8489C267.996 57.9945 268.396 55.4656 269.198 53.2623C270.049 51.0088 271.201 49.1059 272.653 47.5535C274.155 46.0011 275.933 44.8243 277.986 44.0231C280.039 43.1718 282.268 42.7461 284.671 42.7461C286.925 42.7461 289.003 43.1217 290.906 43.8728C292.809 44.624 294.436 45.7006 295.788 47.1028C297.191 48.4549 298.267 50.0824 299.018 51.9853C299.82 53.8381 300.22 55.8913 300.22 58.1448C300.22 59.2464 299.97 60.0477 299.469 60.5484C298.968 60.9991 298.267 61.2746 297.366 61.3747L274.23 64.6047ZM284.596 47.6286C281.542 47.6286 279.013 48.7053 277.01 50.8586C275.007 52.9618 273.955 55.9914 273.855 59.9475L294.511 57.0931C294.261 54.3389 293.285 52.0855 291.582 50.3328C289.929 48.53 287.601 47.6286 284.596 47.6286Z" fill="white"/>
<path d="M324.524 79.4024C321.019 79.4024 318.164 78.6262 315.961 77.0738C313.808 75.5214 312.731 72.9425 312.731 69.3369V33.6572C312.981 33.557 313.357 33.4568 313.858 33.3567C314.409 33.2065 314.984 33.1313 315.585 33.1313C317.689 33.1313 318.74 34.0327 318.74 35.8355V44.4738H331.059C331.209 44.7241 331.36 45.0747 331.51 45.5254C331.66 45.926 331.735 46.3767 331.735 46.8775C331.735 48.5801 330.984 49.4314 329.482 49.4314H318.74V68.9614C318.74 70.9644 319.291 72.3916 320.393 73.2429C321.545 74.0442 323.147 74.4448 325.2 74.4448C326.051 74.4448 327.003 74.2946 328.055 73.9941C329.106 73.6936 329.983 73.3431 330.684 72.9425C330.984 73.2429 331.259 73.6185 331.51 74.0692C331.76 74.5199 331.885 75.0457 331.885 75.6466C331.885 76.7483 331.234 77.6497 329.932 78.3508C328.63 79.0519 326.828 79.4024 324.524 79.4024Z" fill="white"/>
<path d="M7.00923 78.2757C6.75884 78.3758 6.38327 78.476 5.8825 78.5761C5.38173 78.7264 4.83088 78.8015 4.22996 78.8015C2.07665 78.8015 1 77.9001 1 76.0973V29.7512C1.25038 29.651 1.62596 29.5508 2.12673 29.4507C2.67758 29.3005 3.22842 29.2253 3.77927 29.2253C5.93257 29.2253 7.00923 30.1267 7.00923 31.9295V78.2757Z" stroke="white" stroke-width="2" mask="url(#path-1-outside-1_318_36)"/>
<path d="M29.1718 78.2757C28.9214 78.3758 28.5458 78.476 28.045 78.5761C27.5443 78.7264 26.9934 78.8015 26.3925 78.8015C24.2392 78.8015 23.1625 77.9001 23.1625 76.0973V43.8728C23.4129 43.7727 23.7885 43.6725 24.2893 43.5724C24.8401 43.4221 25.416 43.347 26.0169 43.347C28.1202 43.347 29.1718 44.2735 29.1718 46.1263V78.2757ZM22.2612 32.7558C22.2612 31.7042 22.6117 30.8278 23.3128 30.1267C24.0639 29.3756 25.0154 29 26.1672 29C27.3189 29 28.2454 29.3756 28.9464 30.1267C29.6475 30.8278 29.998 31.7042 29.998 32.7558C29.998 33.8074 29.6475 34.7088 28.9464 35.4599C28.2454 36.161 27.3189 36.5115 26.1672 36.5115C25.0154 36.5115 24.0639 36.161 23.3128 35.4599C22.6117 34.7088 22.2612 33.8074 22.2612 32.7558Z" stroke="white" stroke-width="2" mask="url(#path-1-outside-1_318_36)"/>
<path d="M69.149 69.1867C69.149 72.3916 67.9722 74.8955 65.6186 76.6982C63.2649 78.501 59.8597 79.4024 55.4029 79.4024C53.5 79.4024 51.7473 79.2271 50.1448 78.8766C48.5423 78.5761 47.1652 78.1755 46.0135 77.6747C44.9118 77.1239 44.0354 76.523 43.3844 75.872C42.7835 75.1709 42.483 74.4698 42.483 73.7687C42.483 73.1678 42.6333 72.5919 42.9337 72.0411C43.2843 71.4902 43.785 71.0145 44.436 70.6139C45.7881 71.6154 47.3655 72.5168 49.1683 73.3181C50.9711 74.0692 53.0242 74.4448 55.3278 74.4448C60.5358 74.4448 63.1398 72.6921 63.1398 69.1867C63.1398 66.3323 61.4121 64.4795 57.9568 63.6282L51.7222 61.9756C48.6675 61.1744 46.4391 60.0226 45.037 58.5203C43.6348 56.9679 42.9337 54.9899 42.9337 52.5862C42.9337 51.2842 43.1841 50.0323 43.6849 48.8305C44.2357 47.6286 45.062 46.577 46.1637 45.6756C47.2654 44.7742 48.6175 44.0731 50.2199 43.5724C51.8725 43.0215 53.8004 42.7461 56.0038 42.7461C59.5092 42.7461 62.3385 43.2719 64.4918 44.3235C66.6451 45.3251 67.7218 46.5019 67.7218 47.854C67.7218 48.505 67.5465 49.0808 67.196 49.5816C66.8955 50.0824 66.4699 50.458 65.919 50.7083C65.0176 50.1074 63.7407 49.4564 62.0881 48.7553C60.4356 48.0543 58.4826 47.7037 56.2291 47.7037C53.9757 47.7037 52.1729 48.1294 50.8208 48.9807C49.5188 49.832 48.8678 51.0338 48.8678 52.5862C48.8678 53.738 49.2434 54.7145 49.9946 55.5157C50.7457 56.3169 51.9976 56.9179 53.7503 57.3185L58.9333 58.5954C62.3385 59.4468 64.8924 60.7237 66.5951 62.4263C68.2977 64.0789 69.149 66.3323 69.149 69.1867Z" stroke="white" stroke-width="2" mask="url(#path-1-outside-1_318_36)"/>
<path d="M93.8819 79.4024C90.3765 79.4024 87.5221 78.6262 85.3187 77.0738C83.1654 75.5214 82.0888 72.9425 82.0888 69.3369V33.6572C82.3392 33.557 82.7147 33.4568 83.2155 33.3567C83.7663 33.2065 84.3422 33.1313 84.9432 33.1313C87.0464 33.1313 88.098 34.0327 88.098 35.8355V44.4738H100.417C100.567 44.7241 100.717 45.0747 100.868 45.5254C101.018 45.926 101.093 46.3767 101.093 46.8775C101.093 48.5801 100.342 49.4314 98.8395 49.4314H88.098V68.9614C88.098 70.9644 88.6488 72.3916 89.7505 73.2429C90.9023 74.0442 92.5048 74.4448 94.5579 74.4448C95.4092 74.4448 96.3607 74.2946 97.4123 73.9941C98.4639 73.6936 99.3403 73.3431 100.041 72.9425C100.342 73.2429 100.617 73.6185 100.868 74.0692C101.118 74.5199 101.243 75.0457 101.243 75.6466C101.243 76.7483 100.592 77.6497 99.2902 78.3508C97.9882 79.0519 96.1854 79.4024 93.8819 79.4024Z" stroke="white" stroke-width="2" mask="url(#path-1-outside-1_318_36)"/>
<path d="M119.727 78.2757C119.476 78.3758 119.101 78.476 118.6 78.5761C118.099 78.7264 117.548 78.8015 116.948 78.8015C114.794 78.8015 113.718 77.9001 113.718 76.0973V50.6332C113.718 49.4815 113.918 48.5801 114.319 47.9291C114.769 47.228 115.495 46.552 116.497 45.901C117.799 45.0496 119.552 44.3235 121.755 43.7226C124.008 43.0716 126.537 42.7461 129.342 42.7461C133.348 42.7461 135.351 43.7476 135.351 45.7507C135.351 46.2515 135.276 46.7272 135.125 47.1779C134.975 47.5785 134.775 47.9291 134.525 48.2295C134.024 48.1294 133.373 48.0292 132.572 47.9291C131.77 47.8289 130.969 47.7788 130.168 47.7788C127.864 47.7788 125.836 48.0292 124.084 48.53C122.331 48.9807 120.879 49.5315 119.727 50.1825V78.2757Z" stroke="white" stroke-width="2" mask="url(#path-1-outside-1_318_36)"/>
<path d="M177.646 61.0743C177.646 63.8786 177.245 66.4074 176.444 68.6609C175.643 70.9144 174.491 72.8423 172.989 74.4448C171.537 76.0472 169.759 77.2741 167.656 78.1254C165.552 78.9767 163.199 79.4024 160.595 79.4024C157.991 79.4024 155.637 78.9767 153.534 78.1254C151.431 77.2741 149.628 76.0472 148.126 74.4448C146.623 72.8423 145.472 70.9144 144.67 68.6609C143.869 66.4074 143.469 63.8786 143.469 61.0743C143.469 58.2699 143.869 55.7411 144.67 53.4876C145.522 51.2341 146.699 49.3062 148.201 47.7037C149.703 46.1013 151.506 44.8744 153.609 44.0231C155.712 43.1718 158.041 42.7461 160.595 42.7461C163.149 42.7461 165.477 43.1718 167.581 44.0231C169.684 44.8744 171.462 46.1013 172.914 47.7037C174.416 49.3062 175.568 51.2341 176.369 53.4876C177.22 55.7411 177.646 58.2699 177.646 61.0743ZM160.595 47.7037C157.19 47.7037 154.511 48.8805 152.558 51.2341C150.605 53.5878 149.628 56.8678 149.628 61.0743C149.628 65.3308 150.579 68.6359 152.482 70.9895C154.435 73.293 157.14 74.4448 160.595 74.4448C164.05 74.4448 166.729 73.268 168.632 70.9144C170.535 68.5608 171.487 65.2807 171.487 61.0743C171.487 56.8678 170.51 53.5878 168.557 51.2341C166.654 48.8805 164 47.7037 160.595 47.7037Z" stroke="white" stroke-width="2" mask="url(#path-1-outside-1_318_36)"/>
<path d="M206.771 47.7788C205.068 47.7788 203.491 48.0793 202.039 48.6802C200.586 49.2311 199.334 50.0824 198.283 51.2341C197.231 52.3358 196.405 53.738 195.804 55.4406C195.203 57.0931 194.903 58.9961 194.903 61.1494C194.903 65.456 195.979 68.7611 198.133 71.0646C200.286 73.3181 203.165 74.4448 206.771 74.4448C208.874 74.4448 210.627 74.1694 212.029 73.6185C213.431 73.0176 214.683 72.3416 215.785 71.5904C216.336 71.8909 216.786 72.2664 217.137 72.7171C217.487 73.1678 217.663 73.7187 217.663 74.3697C217.663 75.0707 217.387 75.7217 216.836 76.3227C216.285 76.9236 215.509 77.4494 214.508 77.9001C213.556 78.3508 212.405 78.7013 211.052 78.9517C209.75 79.2522 208.323 79.4024 206.771 79.4024C204.167 79.4024 201.763 79.0268 199.56 78.2757C197.356 77.5245 195.453 76.3978 193.851 74.8955C192.249 73.3932 190.997 71.5153 190.095 69.2618C189.194 66.9583 188.743 64.2541 188.743 61.1494C188.743 58.0947 189.219 55.4406 190.17 53.1871C191.122 50.8836 192.399 48.9556 194.001 47.4033C195.604 45.8509 197.482 44.6991 199.635 43.948C201.838 43.1467 204.167 42.7461 206.621 42.7461C208.173 42.7461 209.6 42.8963 210.902 43.1968C212.254 43.4472 213.406 43.8228 214.357 44.3235C215.309 44.8243 216.035 45.4002 216.536 46.0512C217.087 46.6521 217.362 47.2781 217.362 47.9291C217.362 48.53 217.187 49.0558 216.836 49.5065C216.486 49.9572 216.035 50.3077 215.484 50.5581C214.383 49.807 213.181 49.156 211.879 48.6051C210.577 48.0543 208.874 47.7788 206.771 47.7788Z" stroke="white" stroke-width="2" mask="url(#path-1-outside-1_318_36)"/>
<path d="M236.482 78.2757C236.232 78.3758 235.856 78.476 235.355 78.5761C234.854 78.7264 234.304 78.8015 233.703 78.8015C231.549 78.8015 230.473 77.9001 230.473 76.0973V29.7512C230.723 29.651 231.099 29.5508 231.599 29.4507C232.15 29.3005 232.726 29.2253 233.327 29.2253C235.43 29.2253 236.482 30.1267 236.482 31.9295V58.971L252.932 43.0466C254.134 43.0966 255.06 43.3971 255.711 43.948C256.413 44.4487 256.763 45.1248 256.763 45.9761C256.763 46.6771 256.538 47.3031 256.087 47.854C255.636 48.3547 255.035 48.9556 254.284 49.6567L242.191 60.248L258.941 75.2711C258.841 76.3727 258.491 77.2491 257.89 77.9001C257.339 78.5511 256.588 78.8766 255.636 78.8766C254.885 78.8766 254.184 78.7013 253.533 78.3508C252.932 77.9502 252.306 77.3993 251.655 76.6982L236.482 61.4498V78.2757Z" stroke="white" stroke-width="2" mask="url(#path-1-outside-1_318_36)"/>
<path d="M274.23 64.6047C275.582 71.1647 279.889 74.4448 287.15 74.4448C289.253 74.4448 291.156 74.0942 292.859 73.3932C294.562 72.6921 295.914 71.9409 296.915 71.1397C298.117 71.8408 298.718 72.7922 298.718 73.9941C298.718 74.6952 298.392 75.3712 297.741 76.0222C297.14 76.6732 296.289 77.2491 295.187 77.7499C294.136 78.2506 292.884 78.6512 291.432 78.9517C290.03 79.2522 288.502 79.4024 286.85 79.4024C281.041 79.4024 276.434 77.825 273.028 74.6701C269.673 71.5153 267.996 66.9082 267.996 60.8489C267.996 57.9945 268.396 55.4656 269.198 53.2623C270.049 51.0088 271.201 49.1059 272.653 47.5535C274.155 46.0011 275.933 44.8243 277.986 44.0231C280.039 43.1718 282.268 42.7461 284.671 42.7461C286.925 42.7461 289.003 43.1217 290.906 43.8728C292.809 44.624 294.436 45.7006 295.788 47.1028C297.191 48.4549 298.267 50.0824 299.018 51.9853C299.82 53.8381 300.22 55.8913 300.22 58.1448C300.22 59.2464 299.97 60.0477 299.469 60.5484C298.968 60.9991 298.267 61.2746 297.366 61.3747L274.23 64.6047ZM284.596 47.6286C281.542 47.6286 279.013 48.7053 277.01 50.8586C275.007 52.9618 273.955 55.9914 273.855 59.9475L294.511 57.0931C294.261 54.3389 293.285 52.0855 291.582 50.3328C289.929 48.53 287.601 47.6286 284.596 47.6286Z" stroke="white" stroke-width="2" mask="url(#path-1-outside-1_318_36)"/>
<path d="M324.524 79.4024C321.019 79.4024 318.164 78.6262 315.961 77.0738C313.808 75.5214 312.731 72.9425 312.731 69.3369V33.6572C312.981 33.557 313.357 33.4568 313.858 33.3567C314.409 33.2065 314.984 33.1313 315.585 33.1313C317.689 33.1313 318.74 34.0327 318.74 35.8355V44.4738H331.059C331.209 44.7241 331.36 45.0747 331.51 45.5254C331.66 45.926 331.735 46.3767 331.735 46.8775C331.735 48.5801 330.984 49.4314 329.482 49.4314H318.74V68.9614C318.74 70.9644 319.291 72.3916 320.393 73.2429C321.545 74.0442 323.147 74.4448 325.2 74.4448C326.051 74.4448 327.003 74.2946 328.055 73.9941C329.106 73.6936 329.983 73.3431 330.684 72.9425C330.984 73.2429 331.259 73.6185 331.51 74.0692C331.76 74.5199 331.885 75.0457 331.885 75.6466C331.885 76.7483 331.234 77.6497 329.932 78.3508C328.63 79.0519 326.828 79.4024 324.524 79.4024Z" stroke="white" stroke-width="2" mask="url(#path-1-outside-1_318_36)"/>
<path d="M395.573 23.5666C395.573 23.5666 392.038 -3.05176e-05 381.433 -3.05176e-05C370.835 -3.05176e-05 367.298 23.5357 367.293 23.5666L367.293 70.6999H395.573L395.573 23.5666Z" fill="#BB6BD9"/>
<circle cx="381.433" cy="30.6367" r="7.07" fill="url(#paint0_linear_318_36)"/>
<path d="M357.867 56.56C357.867 51.3538 362.087 47.1334 367.293 47.1334V47.1334V73.0567C367.293 75.6598 365.183 77.77 362.58 77.77V77.77C359.977 77.77 357.867 75.6598 357.867 73.0567V56.56Z" fill="url(#paint1_linear_318_36)"/>
<path d="M395.573 47.1334V47.1334C400.78 47.1334 405 51.3538 405 56.56V73.0567C405 75.6598 402.89 77.77 400.287 77.77V77.77C397.684 77.77 395.573 75.6598 395.573 73.0567V47.1334Z" fill="url(#paint2_linear_318_36)"/>
<path d="M376.72 56.56C376.72 53.9569 378.83 51.8467 381.433 51.8467V51.8467C384.036 51.8467 386.147 53.9569 386.147 56.56V76.5917C386.147 79.1948 384.036 81.305 381.433 81.305V81.305C378.83 81.305 376.72 79.1948 376.72 76.5917V56.56Z" fill="url(#paint3_linear_318_36)"/>
<path d="M367.925 90.525C367.925 88.6733 369.426 87.1722 371.278 87.1722C373.13 87.1722 374.631 88.6733 374.631 90.525C374.631 92.3767 373.13 93.8778 371.278 93.8778C369.426 93.8778 367.925 92.3767 367.925 90.525Z" fill="url(#paint4_linear_318_36)"/>
<path d="M388.042 90.5251C388.042 88.6734 389.543 87.1723 391.395 87.1723C393.246 87.1723 394.747 88.6734 394.747 90.5251C394.747 92.3768 393.246 93.8779 391.395 93.8779C389.543 93.8779 388.042 92.3768 388.042 90.5251Z" fill="url(#paint5_linear_318_36)"/>
<path d="M381.336 100.584C379.484 100.584 377.983 102.085 377.983 103.936C377.983 105.788 379.484 107.289 381.336 107.289C383.188 107.289 384.689 105.788 384.689 103.936C384.689 102.085 383.188 100.584 381.336 100.584Z" fill="url(#paint6_linear_318_36)"/>
<path d="M357.867 103.936C357.867 102.085 359.368 100.583 361.22 100.583C363.071 100.583 364.572 102.085 364.572 103.936C364.572 105.788 363.071 107.289 361.22 107.289C359.368 107.289 357.867 105.788 357.867 103.936Z" fill="url(#paint7_linear_318_36)"/>
<path d="M401.453 100.583C399.601 100.583 398.1 102.085 398.1 103.936C398.1 105.788 399.601 107.289 401.453 107.289C403.305 107.289 404.806 105.788 404.806 103.936C404.806 102.085 403.305 100.583 401.453 100.583Z" fill="url(#paint8_linear_318_36)"/>
<defs>
<linearGradient id="paint0_linear_318_36" x1="381.433" y1="23.5667" x2="381.433" y2="37.7067" gradientUnits="userSpaceOnUse">
<stop stop-color="#56CCF2"/>
<stop offset="1" stop-color="#AD00FF"/>
</linearGradient>
<linearGradient id="paint1_linear_318_36" x1="381.433" y1="47.1334" x2="381.433" y2="81.305" gradientUnits="userSpaceOnUse">
<stop stop-color="#56CCF2"/>
<stop offset="1" stop-color="#AD00FF"/>
</linearGradient>
<linearGradient id="paint2_linear_318_36" x1="381.433" y1="47.1334" x2="381.433" y2="81.305" gradientUnits="userSpaceOnUse">
<stop stop-color="#56CCF2"/>
<stop offset="1" stop-color="#AD00FF"/>
</linearGradient>
<linearGradient id="paint3_linear_318_36" x1="381.433" y1="47.1334" x2="381.433" y2="81.305" gradientUnits="userSpaceOnUse">
<stop stop-color="#56CCF2"/>
<stop offset="1" stop-color="#AD00FF"/>
</linearGradient>
<linearGradient id="paint4_linear_318_36" x1="381.336" y1="87.1722" x2="381.336" y2="107.289" gradientUnits="userSpaceOnUse">
<stop stop-color="#56CCF2"/>
<stop offset="1" stop-color="#AD00FF"/>
</linearGradient>
<linearGradient id="paint5_linear_318_36" x1="381.336" y1="87.1722" x2="381.336" y2="107.289" gradientUnits="userSpaceOnUse">
<stop stop-color="#56CCF2"/>
<stop offset="1" stop-color="#AD00FF"/>
</linearGradient>
<linearGradient id="paint6_linear_318_36" x1="381.336" y1="87.1722" x2="381.336" y2="107.289" gradientUnits="userSpaceOnUse">
<stop stop-color="#56CCF2"/>
<stop offset="1" stop-color="#AD00FF"/>
</linearGradient>
<linearGradient id="paint7_linear_318_36" x1="381.336" y1="87.1722" x2="381.336" y2="107.289" gradientUnits="userSpaceOnUse">
<stop stop-color="#56CCF2"/>
<stop offset="1" stop-color="#AD00FF"/>
</linearGradient>
<linearGradient id="paint8_linear_318_36" x1="381.336" y1="87.1722" x2="381.336" y2="107.289" gradientUnits="userSpaceOnUse">
<stop stop-color="#56CCF2"/>
<stop offset="1" stop-color="#AD00FF"/>
</linearGradient>
</defs>
</svg>


