<svg xmlns="http://www.w3.org/2000/svg" width="73" height="125" viewBox="0 0 73 125" fill="none">
<path fill-rule="evenodd" clip-rule="evenodd" d="M36.0936 0C52.3358 0 57.7499 36.0938 57.7499 36.0938L57.7498 108.281H14.4373L14.4374 36.0938C14.4374 36.0938 19.8514 0 36.0936 0Z" fill="#BB6BD9"/>
<path d="M36.0939 57.75C42.0741 57.75 46.922 52.9021 46.922 46.9219C46.922 40.9417 42.0741 36.0938 36.0939 36.0938C30.1137 36.0938 25.2657 40.9417 25.2657 46.9219C25.2657 52.9021 30.1137 57.75 36.0939 57.75Z" fill="url(#paint0_linear_806_104)"/>
<path d="M0 86.6251C0 78.6515 6.4639 72.1876 14.4375 72.1876V111.891C14.4375 115.878 11.2056 119.11 7.21875 119.11C3.23195 119.11 0 115.878 0 111.891V86.6251Z" fill="url(#paint1_linear_806_104)"/>
<path d="M57.75 72.1876C65.7237 72.1876 72.1875 78.6515 72.1875 86.6251V111.891C72.1875 115.878 68.9556 119.11 64.9688 119.11C60.982 119.11 57.75 115.878 57.75 111.891V72.1876Z" fill="url(#paint2_linear_806_104)"/>
<path d="M36.0938 79.4064C32.107 79.4064 28.875 82.6383 28.875 86.6251V117.305C28.875 121.292 32.107 124.524 36.0938 124.524C40.0806 124.524 43.3125 121.292 43.3125 117.305L43.3125 86.6251C43.3125 82.6383 40.0806 79.4064 36.0938 79.4064Z" fill="url(#paint3_linear_806_104)"/>
<defs>
<linearGradient id="paint0_linear_806_104" x1="36.0938" y1="36.0938" x2="36.0938" y2="124.524" gradientUnits="userSpaceOnUse">
<stop stop-color="#56CCF2"/>
<stop offset="1" stop-color="#AD00FF"/>
</linearGradient>
<linearGradient id="paint1_linear_806_104" x1="36.0938" y1="36.0938" x2="36.0938" y2="124.524" gradientUnits="userSpaceOnUse">
<stop stop-color="#56CCF2"/>
<stop offset="1" stop-color="#AD00FF"/>
</linearGradient>
<linearGradient id="paint2_linear_806_104" x1="36.0938" y1="36.0938" x2="36.0938" y2="124.524" gradientUnits="userSpaceOnUse">
<stop stop-color="#56CCF2"/>
<stop offset="1" stop-color="#AD00FF"/>
</linearGradient>
<linearGradient id="paint3_linear_806_104" x1="36.0938" y1="36.0938" x2="36.0938" y2="124.524" gradientUnits="userSpaceOnUse">
<stop stop-color="#56CCF2"/>
<stop offset="1" stop-color="#AD00FF"/>
</linearGradient>
</defs>
</svg>