<svg width="30" height="30" viewBox="0 0 30 30" fill="none" xmlns="http://www.w3.org/2000/svg">
<circle cx="15" cy="15" r="15" fill="white"/>
<path d="M7 22H5C5 18.6863 7.68629 16 11 16C14.3137 16 17 18.6863 17 22H15C15 19.7909 13.2091 18 11 18C8.79086 18 7 19.7909 7 22ZM23.294 18.706L21 16.413L18.707 18.706L17.293 17.292L19.585 15L17.293 12.707L18.707 11.293L21 13.586L23.293 11.293L24.707 12.707L22.414 15L24.707 17.293L23.294 18.706ZM11 15C8.79086 15 7 13.2091 7 11C7 8.79086 8.79086 7 11 7C13.2091 7 15 8.79086 15 11C14.9972 13.208 13.208 14.9972 11 15ZM11 9C9.9074 9.00111 9.01789 9.87885 9.00223 10.9713C8.98658 12.0638 9.85057 12.9667 10.9427 12.9991C12.0348 13.0315 12.9508 12.1815 13 11.09V11.49V11C13 9.89543 12.1046 9 11 9Z" fill="#071D3F"/>
</svg>

