<svg width="519" height="419" viewBox="0 0 519 419" fill="none" xmlns="http://www.w3.org/2000/svg">
<g clip-path="url(#clip0_1239_380)">
<path d="M341.232 234.448C330.292 241.009 310.801 249.23 290.883 240.781L278.007 235.32L303.809 206.397C283.22 183.695 271.829 154.136 271.86 123.488C271.892 92.8407 283.343 63.3047 303.978 40.6453C324.614 17.9859 352.953 3.82958 383.464 0.939467C413.975 -1.95065 444.468 6.63289 468.992 25.0147C493.515 43.3964 510.308 70.2571 516.093 100.354C521.878 130.45 516.241 161.623 500.28 187.786C484.32 213.95 459.182 233.227 429.774 241.855C400.366 250.483 368.798 247.842 341.232 234.448ZM291.796 123.419C291.74 137.547 294.607 151.534 300.218 164.5C305.829 177.466 314.062 189.131 324.4 198.76L331.517 205.448L315.281 223.648C323.738 221.932 331.103 217.357 334.838 214.7L339.963 211.054L345.475 214.082C360.711 222.424 377.801 226.795 395.171 226.794C452.172 226.794 498.545 180.42 498.545 123.419C498.545 66.4186 452.172 20.0449 395.171 20.0449C338.17 20.0449 291.796 66.4185 291.796 123.419Z" fill="#3F3D56"/>
<path d="M281.774 123.419C281.774 60.7919 332.544 10.0224 395.171 10.0224C457.798 10.0224 508.568 60.7919 508.568 123.419C508.568 186.047 457.798 236.816 395.171 236.816C376.111 236.844 357.354 232.045 340.649 222.867C332.81 228.444 313.687 239.568 294.797 231.555L317.536 206.064C306.232 195.473 297.225 182.672 291.073 168.455C284.921 154.239 281.756 138.91 281.774 123.419Z" fill="#BB6BD9"/>
<path opacity="0.1" d="M489.25 123.665C489.25 64.4159 443.807 15.7887 385.876 10.7141C389.179 10.4247 392.52 10.2682 395.898 10.2682C458.525 10.2682 509.295 61.0377 509.295 123.665C509.295 186.292 458.525 237.062 395.898 237.062C392.525 237.062 389.19 236.903 385.891 236.615C443.816 231.533 489.25 182.909 489.25 123.665Z" fill="black"/>
<path d="M133.86 391.98C105.526 391.994 78.0479 382.268 56.0313 364.432C34.0146 346.597 18.7973 321.736 12.9296 294.016C7.06188 266.296 10.9003 237.401 23.8016 212.174C36.7029 186.948 57.883 166.922 83.7924 155.453C109.702 143.984 138.766 141.769 166.114 149.179C193.462 156.59 217.433 173.175 234.008 196.155C250.582 219.136 258.755 247.115 257.156 275.404C255.556 303.693 244.282 330.573 225.222 351.539L251.023 380.462L238.148 385.923C218.23 394.372 198.739 386.151 187.799 379.59C170.986 387.741 152.545 391.977 133.86 391.98ZM133.86 165.187C76.8594 165.187 30.4857 211.56 30.4857 268.561C30.4857 325.562 76.8594 371.936 133.86 371.936C151.23 371.937 168.32 367.566 183.556 359.224L189.068 356.195L194.193 359.842C197.927 362.499 205.293 367.074 213.75 368.79L197.514 350.59L204.631 343.902C214.969 334.273 223.202 322.608 228.813 309.642C234.424 296.676 237.291 282.689 237.235 268.561C237.235 211.56 190.861 165.187 133.86 165.187Z" fill="#3F3D56"/>
<path d="M247.257 268.561C247.257 205.934 196.487 155.164 133.86 155.164C71.2327 155.164 20.4632 205.934 20.4632 268.561C20.4632 331.188 71.2327 381.958 133.86 381.958C152.92 381.986 171.677 377.187 188.382 368.008C196.221 373.586 215.343 384.71 234.234 376.697L211.495 351.206C222.799 340.615 231.806 327.814 237.958 313.597C244.11 299.381 247.275 284.052 247.257 268.561Z" fill="#BB6BD9"/>
<path opacity="0.1" d="M40.5081 267.988C40.5081 208.739 85.9507 160.112 143.882 155.037C140.579 154.748 137.238 154.591 133.86 154.591C71.2327 154.591 20.4632 205.361 20.4632 267.988C20.4632 330.616 71.2327 381.385 133.86 381.385C137.233 381.385 140.568 381.227 143.867 380.938C85.9424 375.856 40.5081 327.232 40.5081 267.988Z" fill="black"/>
<path d="M421.792 87.3932C414.372 74.8568 399.694 74.2725 399.694 74.2725C399.694 74.2725 385.39 72.4434 376.215 91.5366C367.662 109.333 355.859 126.516 374.314 130.682L377.648 120.306L379.713 131.454C382.34 131.643 384.976 131.688 387.609 131.589C407.373 130.951 426.196 131.776 425.59 124.684C424.784 115.255 428.931 99.4558 421.792 87.3932Z" fill="#2F2E41"/>
<path d="M373.261 197.181C373.043 198.56 372.726 199.921 372.314 201.255C371.85 202.561 371.133 203.768 370.709 205.087C369.356 209.291 371.231 213.979 374.227 217.224C376.826 220.027 380.179 222.019 383.884 222.958C386.611 223.542 389.393 223.834 392.182 223.83C399.895 224.092 407.806 224.326 415.115 221.847C417.424 221.045 419.654 220.031 421.777 218.82C422.448 218.501 423.038 218.036 423.506 217.459C423.996 216.614 424.213 215.639 424.13 214.667C424.113 211.397 423.451 208.144 423.608 204.878C423.695 203.069 424.034 201.261 423.867 199.458C423.636 197.41 422.778 195.483 421.411 193.941C420.043 192.399 418.232 191.318 416.226 190.845C414.152 190.4 412.002 190.642 409.891 190.845C404.412 191.372 398.91 191.618 393.406 191.583C387.782 191.547 382.193 190.688 376.597 190.599C374.943 190.572 374.976 191.082 374.449 192.684C373.964 194.158 373.567 195.659 373.261 197.181Z" fill="#2F2E41"/>
<path d="M389.22 116.445C388.95 117.86 388.658 119.327 387.808 120.489C386.829 121.827 385.234 122.592 384.182 123.872C382.597 125.8 382.506 128.512 382.5 131.007C382.494 133.305 382.54 135.756 383.822 137.664C384.734 138.849 385.867 139.847 387.157 140.604C391.963 143.843 397.157 147.141 402.952 147.247C405.353 147.292 407.928 146.671 409.508 144.863C410.19 144.013 410.727 143.056 411.095 142.031C412.577 138.378 413.475 134.515 413.757 130.584C413.971 128.735 413.798 126.863 413.25 125.085C412.546 123.122 411.123 121.507 410.182 119.646C409.07 117.433 408.663 114.932 409.017 112.481C409.063 112.308 409.049 112.124 408.976 111.961C408.898 111.874 408.802 111.806 408.694 111.762C408.585 111.718 408.469 111.7 408.352 111.709L396.861 110.881C395.791 110.828 394.726 110.706 393.671 110.516C393.052 110.391 391.416 109.511 390.825 109.745C389.731 110.178 389.445 115.271 389.22 116.445Z" fill="#A0616A"/>
<path opacity="0.1" d="M389.22 116.803C388.95 118.218 388.658 119.685 387.808 120.848C386.829 122.186 385.234 122.951 384.182 124.231C382.597 126.158 382.506 128.87 382.5 131.365C382.494 133.664 382.54 136.115 383.822 138.023C384.734 139.208 385.866 140.206 387.157 140.963C391.963 144.202 397.157 147.499 402.952 147.606C405.353 147.65 407.928 147.03 409.508 145.222C410.19 144.372 410.726 143.415 411.095 142.39C412.577 138.737 413.475 134.874 413.757 130.942C413.97 129.094 413.798 127.221 413.25 125.443C412.546 123.48 411.123 121.865 410.182 120.004C409.07 117.791 408.663 115.291 409.017 112.839C409.063 112.667 409.049 112.483 408.976 112.32C408.898 112.233 408.802 112.164 408.694 112.121C408.585 112.077 408.469 112.059 408.352 112.067L396.861 111.24C395.791 111.187 394.726 111.065 393.671 110.875C393.052 110.749 391.416 109.869 390.825 110.103C389.731 110.536 389.445 115.63 389.22 116.803Z" fill="black"/>
<path d="M400.209 117.986C409.52 117.986 417.068 110.438 417.068 101.127C417.068 91.8164 409.52 84.2686 400.209 84.2686C390.899 84.2686 383.351 91.8164 383.351 101.127C383.351 110.438 390.899 117.986 400.209 117.986Z" fill="#A0616A"/>
<path d="M391.585 138.886C392.418 139.85 393.422 140.653 394.546 141.252C395.718 141.737 396.977 141.976 398.245 141.956C401.284 142.042 404.579 141.485 406.693 139.3C409.418 136.484 409.328 131.942 411.464 128.656C411.636 128.358 411.871 128.101 412.152 127.903C412.51 127.708 412.915 127.615 413.323 127.634C416.02 127.609 418.37 129.359 420.491 131.026C421.489 131.713 422.346 132.586 423.014 133.596C423.434 134.414 423.721 135.294 423.865 136.202C424.918 141.34 425.259 146.593 425.597 151.826C425.784 154.717 425.971 157.61 425.957 160.507C425.911 170.05 423.693 179.433 421.487 188.718C421.203 189.914 420.814 191.252 419.726 191.825C419.241 192.043 418.72 192.17 418.189 192.2C411.871 192.942 405.541 193.685 399.18 193.782C396.698 193.821 394.217 193.761 391.737 193.602C391.31 193.597 390.887 193.523 390.483 193.384C389.935 193.121 389.465 192.721 389.116 192.223C385.676 187.887 385.473 181.894 385.495 176.359C385.548 162.827 386.032 149.307 386.945 135.796C387.02 134.681 387.037 133.327 386.233 132.45C387.798 134.769 389.591 136.925 391.585 138.886Z" fill="white"/>
<path d="M388.014 119.42C387.445 120.451 383.247 123.01 382.436 123.865C377.908 128.637 369.644 128.458 365.503 133.57C364.046 135.369 363.289 137.629 362.732 139.876C361.945 143.053 361.524 146.519 362.843 149.515C364.112 152.398 366.784 154.391 368.598 156.966C370.59 159.794 371.486 163.227 372.344 166.578C372.978 169.052 373.617 171.587 373.37 174.129C373.089 177.019 371.691 179.665 370.865 182.449C370.039 185.233 369.897 188.548 371.806 190.736C373.209 192.343 375.409 192.98 377.511 193.339C380.205 193.743 382.921 193.98 385.644 194.047C388.047 194.153 390.697 194.173 392.545 192.632C394.003 191.416 394.637 189.443 394.719 187.546C394.801 185.65 394.406 183.769 394.159 181.887C393.903 179.936 393.804 177.967 393.722 176.001C393.352 167.177 393.302 158.348 393.571 149.514C393.706 147.678 393.616 145.832 393.303 144.018C392.787 141.654 391.51 139.542 390.444 137.371C388.314 133.281 387.349 128.684 387.655 124.083C387.978 119.355 390.04 115.753 388.014 119.42Z" fill="white"/>
<path d="M411.688 119.779C412.555 120.67 415.502 120.964 416.605 121.538C417.643 122.018 418.726 122.393 419.838 122.657C423.862 123.818 427.69 125.575 431.194 127.87C431.922 128.295 432.565 128.851 433.093 129.51C433.648 130.414 434.006 131.424 434.143 132.476C434.683 135.152 435.226 137.86 435.105 140.588C434.976 143.482 434.104 146.286 433.239 149.052L430.007 159.385C427.594 167.099 425.166 174.888 424.487 182.941C424.112 187.404 424.279 191.897 424.985 196.32C425.051 196.535 425.071 196.762 425.043 196.985C425.014 197.209 424.939 197.424 424.822 197.616C424.609 197.826 424.328 197.955 424.03 197.98C422.47 198.224 420.96 197.429 419.547 196.725C415.227 194.575 410.616 193.066 405.861 192.247C407.719 189.561 409.153 186.606 410.112 183.484C410.656 181.502 411.085 179.489 411.396 177.457L412.9 168.761C413.511 165.582 413.942 162.371 414.189 159.144C414.303 157.933 414.233 156.711 413.98 155.521C413.634 154.389 413.173 153.294 412.607 152.254C410.129 147.1 408.966 141.217 409.941 135.582C410.368 133.115 411.197 130.646 410.851 128.167C410.519 125.784 410.864 123.931 410.253 121.572C407.742 111.888 410.056 118.102 411.688 119.779Z" fill="white"/>
<path d="M365.46 141.72C364.33 144.065 362.441 146.062 361.799 148.583C361.549 149.762 361.441 150.966 361.479 152.17C361.368 153.985 361.548 155.806 362.012 157.564C362.37 158.676 362.954 159.702 363.375 160.792C363.961 162.315 364.222 163.944 364.141 165.574C364.028 167.832 363.261 170.024 363.201 172.284C363.106 175.838 364.75 179.18 366.354 182.353C366.758 181.353 367.376 180.454 368.163 179.717C368.951 178.981 369.89 178.425 370.915 178.09C371.94 177.754 373.026 177.647 374.096 177.775C375.167 177.903 376.197 178.263 377.114 178.831C377.481 178.379 377.655 177.801 377.599 177.222C377.717 173.099 377.832 168.975 377.942 164.851C378.115 158.473 378.281 152.01 376.814 145.801C376.151 142.997 375.121 140.205 373.231 138.03C372.236 136.885 368.859 133.87 367.225 135.152C366.491 135.729 366.663 137.299 366.546 138.094C366.37 139.351 366.004 140.574 365.46 141.72Z" fill="white"/>
<path d="M435.435 134.964C435.89 136.655 436.084 138.405 436.012 140.154C436.034 143.718 435.987 147.283 435.87 150.847C435.888 152.674 435.654 154.496 435.176 156.26C434.811 157.407 434.248 158.483 433.871 159.627C432.742 163.053 433.359 166.77 433.456 170.376C433.524 171.543 433.425 172.714 433.16 173.853C432.564 176.089 430.963 177.896 429.845 179.922C428.783 181.846 428.143 184.003 426.875 185.797C425.607 187.592 423.413 189.015 421.285 188.464C419.673 188.046 418.528 186.619 417.736 185.155C416.007 181.935 415.416 178.226 416.058 174.628C416.853 170.251 419.425 166.367 420.352 162.016C421.625 156.041 419.69 149.875 419.747 143.766C419.721 142.808 419.851 141.853 420.132 140.937C420.618 139.541 421.663 138.427 422.628 137.308C423.834 135.909 424.954 134.439 425.983 132.905C426.674 131.875 427.612 129.225 428.837 129.004C431.572 128.512 434.757 132.852 435.435 134.964Z" fill="white"/>
<path d="M351.27 194.523C349.758 194.143 348.199 193.978 346.641 194.031C345.004 194.122 343.404 194.56 341.949 195.316C340.494 196.073 339.217 197.13 338.203 198.419C337.188 199.707 336.459 201.196 336.065 202.788C335.671 204.38 335.62 206.037 335.915 207.65C336.293 209.398 336.91 211.084 337.75 212.662C338.977 215.154 340.449 217.639 342.722 219.236C344.091 220.113 345.566 220.815 347.11 221.324L359.079 225.833C360.84 226.497 362.601 227.16 364.379 227.775C373.313 230.863 382.627 232.715 392.062 233.278C394.933 233.548 397.828 233.401 400.657 232.843C401.341 232.754 401.968 232.415 402.418 231.892C402.646 231.494 402.78 231.05 402.811 230.593L403.547 225.437C403.712 224.719 403.691 223.971 403.485 223.263C403.147 222.397 402.302 221.852 401.495 221.388C393.627 216.869 384.439 214.376 377.815 208.173C376.256 206.713 374.951 204.398 373.057 203.406C370.909 202.281 368.379 201.639 366.158 200.603C361.304 198.337 356.531 195.733 351.27 194.523Z" fill="#2F2E41"/>
<path opacity="0.1" d="M363.219 201.474C367.45 202.8 385.311 211.984 388.373 215.191C387.962 215.339 374.039 207.536 373.621 207.41C369.792 206.359 366.041 205.037 362.398 203.455C361.673 203.12 357.685 201.543 357.866 200.627C358.069 199.594 362.468 201.239 363.219 201.474Z" fill="black"/>
<path d="M415.998 235.953C416.238 235.97 416.476 235.9 416.669 235.755C416.753 235.647 416.815 235.523 416.851 235.39C416.887 235.258 416.896 235.12 416.878 234.983L416.859 227.959C414.839 226.997 412.579 226.688 410.361 226.392L400.014 225.009C400.251 225.04 398.396 229.465 398.68 230.056C399.182 231.097 403.014 232.02 404.096 232.512C407.856 234.221 411.763 236.1 415.998 235.953Z" fill="#A0616A"/>
<path d="M383.532 227.935C381.578 228.246 379.398 228.521 378.132 230.042C376.528 231.971 377.211 234.846 377.976 237.235C378.023 237.543 378.131 237.839 378.294 238.105C378.457 238.371 378.672 238.601 378.926 238.783C379.179 238.964 379.467 239.093 379.771 239.161C380.075 239.23 380.39 239.236 380.697 239.181C382.479 239.294 384.375 239.382 385.932 238.508C386.637 238.042 387.316 237.538 387.965 236.997C389.113 236.233 390.375 235.656 391.704 235.287C394.147 234.519 396.661 234.001 399.209 233.741C400.213 233.695 401.207 233.52 402.166 233.22C402.645 233.065 403.082 232.803 403.443 232.452C403.804 232.101 404.079 231.672 404.248 231.198C404.608 229.922 403.866 228.62 403.155 227.501C402.335 226.034 401.271 224.719 400.008 223.611C398.08 222.113 397.126 223.263 395.184 224.221C391.508 226.036 387.58 227.287 383.532 227.935Z" fill="#A0616A"/>
<path d="M378.426 229.695L366.021 226.028C364.533 225.51 362.978 225.209 361.404 225.133C360.616 225.101 359.83 225.237 359.099 225.533C358.368 225.829 357.709 226.277 357.165 226.848C356.203 227.977 355.927 229.52 355.687 230.984L355.174 234.115C354.832 235.693 354.735 237.315 354.887 238.923C354.97 239.727 355.235 240.502 355.662 241.189C356.089 241.875 356.667 242.455 357.352 242.884C359.068 243.821 361.172 243.364 363.088 242.972C366.958 242.181 370.895 241.759 374.844 241.711C376.329 241.693 377.887 241.712 379.199 241.017C379.96 240.565 380.6 239.934 381.063 239.179C381.525 238.424 381.796 237.568 381.852 236.684C382.096 234.01 381.205 230.516 378.426 229.695Z" fill="#2F2E41"/>
<path d="M420.874 226.499C422.483 226.217 423.902 225.303 425.443 224.764C427.612 224.005 429.963 224.005 432.261 224.013C433.106 223.936 433.955 224.106 434.705 224.503C435.717 225.176 435.977 226.525 436.149 227.729L437.187 234.992C437.465 236.347 437.494 237.742 437.272 239.107C436.967 240.453 436.05 241.751 434.714 242.098C433.092 242.52 431.502 241.484 429.97 240.803C426.142 239.101 421.692 239.536 417.7 238.265C417.319 238.188 416.958 238.032 416.641 237.805C416.324 237.579 416.06 237.288 415.864 236.951C415.727 236.548 415.679 236.12 415.721 235.696C415.789 233.362 415.297 230.174 416 227.942C416.632 225.936 419.079 226.499 420.874 226.499Z" fill="#2F2E41"/>
<path d="M447.127 191.6C449.606 190.978 452.176 190.803 454.716 191.081C456.745 191.305 458.835 191.869 460.316 193.274C462.119 194.983 462.699 197.626 462.747 200.11C462.826 205.057 461.185 209.878 458.105 213.75C457.353 214.729 456.458 215.59 455.451 216.305C454.364 216.984 453.206 217.542 451.998 217.969L425.194 228.541C418.142 231.322 411.066 234.112 403.71 235.945C403.509 236.043 403.291 236.098 403.068 236.11C402.845 236.121 402.622 236.088 402.412 236.012C402.202 235.936 402.009 235.818 401.845 235.667C401.681 235.515 401.55 235.332 401.457 235.129C399.109 231.774 397.139 228.17 395.583 224.382C395.509 224.292 395.458 224.186 395.434 224.072C395.41 223.958 395.414 223.84 395.446 223.728C395.477 223.616 395.535 223.513 395.615 223.428C395.694 223.344 395.793 223.279 395.903 223.24L414.861 212.347C416.252 211.622 417.548 210.729 418.72 209.689C419.54 208.894 420.211 207.96 420.701 206.93C421.094 206.11 421.131 204.173 421.633 203.566C422.124 202.972 423.806 202.924 424.582 202.691C425.677 202.355 426.75 201.95 427.793 201.477C432.034 199.58 435.81 196.823 439.876 194.602C442.156 193.298 444.593 192.289 447.127 191.6Z" fill="#2F2E41"/>
<path opacity="0.1" d="M436.379 199.735C433.122 202.181 428.905 204.43 425.676 206.941C424.575 207.798 406.208 218.124 405.948 219.495C408.96 220.003 428.145 206.581 430.89 205.242C433.635 203.903 436.068 202.014 438.48 200.139C439.094 199.662 441.698 198.225 439.934 197.692C438.941 197.391 437.113 199.246 436.379 199.735Z" fill="black"/>
<path d="M413.967 120.016H385.375C384.214 120.016 383.1 120.477 382.278 121.299C381.457 122.12 380.995 123.234 380.995 124.396V126H380.685V129.587H380.995V132.097H380.685V134.25H380.995V160.716C380.995 161.877 381.457 162.992 382.278 163.813C383.1 164.634 384.214 165.096 385.375 165.096H413.967C415.129 165.096 416.243 164.634 417.065 163.813C417.886 162.992 418.347 161.877 418.347 160.716V124.396C418.347 123.234 417.886 122.12 417.064 121.299C416.243 120.477 415.129 120.016 413.967 120.016Z" fill="#D0CDE1"/>
<path d="M418.512 86.185L404.01 78.5885L383.983 81.6962L379.84 99.9962L390.154 99.599L393.035 92.8761V99.4887L397.795 99.3057L400.557 88.6015L402.283 99.9962L419.202 99.6506L418.512 86.185Z" fill="#2F2E41"/>
<path d="M369.254 189.23C369.91 190.345 370.842 191.272 371.961 191.923C372.695 192.258 373.495 192.421 374.302 192.399C375.108 192.378 375.899 192.172 376.614 191.798C378.042 191.032 379.21 189.861 379.972 188.431C381.548 185.648 381.875 182.318 381.678 179.125C381.481 175.933 380.8 172.79 380.498 169.606C380.279 167.291 380.261 164.962 380.243 162.638C380.189 162.149 380.291 161.655 380.536 161.228C380.957 160.809 381.502 160.537 382.091 160.452C385.271 159.507 387.383 156.526 388.897 153.573C389.907 151.601 390.786 149.446 390.591 147.238C390.396 145.031 388.81 142.808 386.606 142.583C384.788 142.397 383.11 143.551 381.8 144.823C378.493 148.053 376.368 152.3 375.765 156.883C375.478 159.127 375.56 161.432 374.95 163.611C373.646 168.262 369.569 171.115 367.537 175.3C365.297 179.913 366.533 185.149 369.254 189.23Z" fill="#A0616A"/>
<path d="M429.26 171.458C428.797 172.537 428.122 173.512 427.275 174.325C426.428 175.139 425.427 175.775 424.331 176.195C422.968 176.742 421.464 176.835 420.045 176.458C419.341 176.262 418.691 175.907 418.147 175.42C417.602 174.933 417.177 174.327 416.905 173.649C416.688 172.967 416.569 172.256 416.552 171.54C416.348 168.403 416.426 165.17 417.566 162.241C418.005 161.111 418.598 160.039 418.945 158.877C419.286 157.535 419.46 156.157 419.464 154.772L419.839 146.213C419.9 145.592 419.858 144.964 419.711 144.357C419.338 143.119 418.18 142.314 417.118 141.575C414.553 139.792 412.019 137.71 410.776 134.844C410.349 133.981 410.196 133.008 410.338 132.056C410.688 130.356 412.403 129.256 414.099 128.885C415.208 128.643 416.355 128.627 417.47 128.84C418.586 129.052 419.646 129.488 420.589 130.122C421.531 130.755 422.335 131.573 422.953 132.525C423.571 133.478 423.99 134.546 424.184 135.664C424.352 136.63 424.35 137.617 424.448 138.592C424.656 140.662 425.313 142.656 425.724 144.695C426.736 149.716 426.212 154.907 427.213 159.928C428.05 164.126 431.205 166.865 429.26 171.458Z" fill="#A0616A"/>
<path d="M400.054 139.271C402.035 139.271 403.641 137.665 403.641 135.684C403.641 133.703 402.035 132.097 400.054 132.097C398.073 132.097 396.467 133.703 396.467 135.684C396.467 137.665 398.073 139.271 400.054 139.271Z" fill="#BB6BD9"/>
<path d="M10.5821 264.599C16.4258 264.599 21.163 259.861 21.163 254.018C21.163 248.174 16.4258 243.437 10.5821 243.437C4.7384 243.437 0.00115967 248.174 0.00115967 254.018C0.00115967 259.861 4.7384 264.599 10.5821 264.599Z" fill="#2F2E41"/>
<path d="M48.9362 285.429L43.6067 280.249L32.905 283.573L33.9328 295.964L55.9371 294.942L49.1773 285.757L48.9362 285.429Z" fill="#FBBEBE"/>
<path d="M37.2802 285.323C46.7278 285.323 54.3867 277.664 54.3867 268.216C54.3867 258.769 46.7278 251.11 37.2802 251.11C27.8325 251.11 20.1737 258.769 20.1737 268.216C20.1737 277.664 27.8325 285.323 37.2802 285.323Z" fill="#FBBEBE"/>
<path d="M143.478 307.386C143.478 307.386 164.494 343.501 169.495 348.923C171.874 351.592 174.408 354.117 177.084 356.487C177.084 356.487 174.732 364.286 170.988 364.007C168.853 363.879 166.76 363.363 164.81 362.485C164.81 362.485 163.139 358.152 160.223 356.252C157.308 354.352 133.489 330.919 134.046 323.43C134.603 315.94 143.478 307.386 143.478 307.386Z" fill="#2F2E41"/>
<path d="M68.6351 358.924C68.6351 358.924 91.0425 376.316 121.495 359.974L124.119 358.043C124.119 358.043 119.69 368.006 119.279 370.707C118.803 373.839 107.273 392.186 105.391 393.065C103.509 393.944 103.095 394.755 103.095 394.755L111.08 403.544L114.032 401.371C114.032 401.371 125.544 385.061 128.911 382.077C132.278 379.093 148.32 348.324 148.32 348.324C148.32 348.324 154.454 336.73 139.147 335.858C123.84 334.986 116.796 339.158 116.796 339.158L89.6297 343.474L68.6351 358.924Z" fill="#2F2E41"/>
<path d="M177.344 354.778L188.678 362.62C188.678 362.62 203.137 367.15 194.23 370.165C185.323 373.18 161.852 374.27 161.32 370.111C160.787 365.951 162.245 359.405 163.416 359.763C164.587 360.121 172.714 362.231 177.344 354.778Z" fill="#2F2E41"/>
<path d="M115.035 398.677L117.133 410.196C117.133 410.196 123.098 421.604 115.936 418.064C108.774 414.525 94.0187 401.08 96.1976 398.261C98.3764 395.443 103.185 392.386 103.674 393.304C104.162 394.223 107.777 400.373 115.035 398.677Z" fill="#2F2E41"/>
<path d="M93.4241 347.256C93.4241 347.256 78.1922 365.039 68.9447 360.719C59.6971 356.399 21.8635 306.364 26.1835 297.116C30.5034 287.869 31.9519 289.837 31.9519 289.837L51.4866 291.643L45.8659 282.632C45.8659 282.632 48.4903 280.7 50.991 283.411C53.4918 286.122 63.5317 292.893 67.0293 302.456C70.5269 312.019 80.7956 311.542 80.7956 311.542L93.4241 347.256Z" fill="white"/>
<path d="M154.935 310.585L128.531 338.613L104.879 296.853L127.365 269.685L154.935 310.585Z" fill="#3F3D56"/>
<path d="M152.942 310.282L129.095 334.912L107.485 296.958L127.303 272.007L152.942 310.282Z" fill="white"/>
<path d="M127.238 337.542L128.532 338.613L127.702 340.235L90.7811 351.223L90.432 349.958L92.1117 348.221L127.238 337.542Z" fill="#B3B3B3"/>
<path d="M128.859 338.372L90.6268 350.326L67.3206 306.287L104.879 296.853L128.859 338.372Z" fill="#D0CDE1"/>
<path d="M125.981 332.399L124.341 333.606L106.136 301.996L108.017 301.117L125.981 332.399Z" fill="#3F3D56"/>
<path d="M122.218 334.157L106.044 338.979L87.6846 306.472L103.685 302.789L122.218 334.157Z" fill="#3F3D56"/>
<path d="M76.6546 310.038L80.0031 309.091C80.0031 309.091 98.6773 306.979 98.9499 312.847C99.2225 318.715 77.4966 315.992 77.4966 315.992L74.5997 312.056L76.6546 310.038Z" fill="#FBBEBE"/>
<path d="M93.0337 336.417L97.6944 334.505C97.6944 334.505 111.763 328.197 107.727 324.087C103.691 319.977 91.2444 327.114 91.2444 327.114L88.8615 329.374L93.0337 336.417Z" fill="#FBBEBE"/>
<path d="M88.88 327.337C88.88 327.337 96.4689 334.901 94.742 336.677C93.0152 338.454 64.6986 361.821 57.6792 354.344C50.6597 346.868 16.4601 309.329 29.7677 306.11C43.0753 302.89 46.5914 310.417 46.5914 310.417L64.1591 340.473L88.88 327.337Z" fill="white"/>
<path d="M66.1567 304.362L78.6226 308.589L78.419 317.589L65.235 316.166L66.1567 304.362Z" fill="white"/>
<path opacity="0.2" d="M77.3923 331.999L63.9613 339.86L48.6159 316.26L63.4285 335.701L77.3923 331.999Z" fill="black"/>
<path d="M29.7717 283.622C41.0189 283.622 50.1365 274.505 50.1365 263.257C50.1365 252.01 41.0189 242.893 29.7717 242.893C18.5245 242.893 9.40681 252.01 9.40681 263.257C9.40681 274.505 18.5245 283.622 29.7717 283.622Z" fill="#2F2E41"/>
<path d="M139.808 312.362L125.548 291.503L131.593 284.02L146.41 305.481L139.808 312.362Z" fill="#BB6BD9"/>
<path d="M139.406 320.749L117.697 289.189L118.768 287.896L140.375 319.53L139.406 320.749Z" fill="#E6E6E6"/>
<path d="M136.608 323.819L114.9 292.26L115.971 290.966L137.578 322.601L136.608 323.819Z" fill="#E6E6E6"/>
<path d="M134.225 326.079L112.517 294.519L113.587 293.225L135.195 324.86L134.225 326.079Z" fill="#E6E6E6"/>
<path d="M38.7899 249.662H45.0898C48.2795 249.662 51.3386 250.929 53.5941 253.184C55.8496 255.44 57.1167 258.499 57.1167 261.688H38.7899V249.662Z" fill="#2F2E41"/>
<path d="M125.569 242.008L124.427 241.923C124.383 242.517 124.351 243.114 124.314 243.71L119.187 243.538L124.565 253.615L130.604 243.92L125.459 243.748C125.496 243.168 125.526 242.586 125.569 242.008Z" fill="#3F3D56"/>
<path d="M155.637 159.871L156.548 160.566C157.913 158.778 159.34 156.992 160.788 155.259L159.908 154.524C158.45 156.27 157.013 158.069 155.637 159.871Z" fill="#3F3D56"/>
<path d="M164.411 149.371L165.257 150.143C166.776 148.479 168.354 146.826 169.946 145.23L169.135 144.422C167.531 146.029 165.942 147.694 164.411 149.371Z" fill="#3F3D56"/>
<path d="M174.07 139.685L174.845 140.529C176.507 139.003 178.223 137.496 179.945 136.049L179.208 135.172C177.473 136.63 175.745 138.149 174.07 139.685Z" fill="#3F3D56"/>
<path d="M147.819 171.108L148.787 171.72C149.991 169.815 151.255 167.91 152.545 166.057L151.604 165.403C150.305 167.27 149.032 169.189 147.819 171.108Z" fill="#3F3D56"/>
<path d="M184.539 130.89L185.236 131.798C187.026 130.424 188.867 129.074 190.708 127.785L190.052 126.847C188.196 128.145 186.341 129.505 184.539 130.89Z" fill="#3F3D56"/>
<path d="M141.022 182.997L142.041 183.52C143.073 181.514 144.164 179.503 145.284 177.545L144.289 176.976C143.161 178.949 142.062 180.975 141.022 182.997Z" fill="#3F3D56"/>
<path d="M129.974 215.238L128.865 214.953C128.299 217.15 127.775 219.391 127.307 221.614L128.428 221.85C128.893 219.644 129.413 217.419 129.974 215.238Z" fill="#3F3D56"/>
<path d="M195.736 123.052L196.351 124.018C198.249 122.81 200.201 121.628 202.153 120.505L201.581 119.512C199.615 120.644 197.649 121.835 195.736 123.052Z" fill="#3F3D56"/>
<path d="M127.178 228.524L126.048 228.338C125.68 230.574 125.357 232.853 125.088 235.111L126.225 235.246C126.492 233.006 126.813 230.744 127.178 228.524Z" fill="#3F3D56"/>
<path d="M135.305 195.448L136.366 195.88C137.215 193.789 138.124 191.689 139.066 189.636L138.025 189.158C137.076 191.226 136.16 193.342 135.305 195.448Z" fill="#3F3D56"/>
<path d="M130.717 208.367L131.813 208.702C132.473 206.541 133.191 204.366 133.947 202.239L132.867 201.856C132.106 203.999 131.383 206.19 130.717 208.367Z" fill="#3F3D56"/>
<path d="M273.219 100.222C275.464 100.144 277.75 100.113 280.012 100.134L280.022 98.9888C277.745 98.9676 275.441 98.9986 273.179 99.0769L273.219 100.222Z" fill="#3F3D56"/>
<path d="M207.575 116.236L208.102 117.253C210.103 116.216 212.15 115.212 214.189 114.268L213.707 113.229C211.653 114.18 209.591 115.192 207.575 116.236Z" fill="#3F3D56"/>
<path d="M300.322 101.65C302.557 101.966 304.812 102.336 307.025 102.751L307.235 101.625C305.006 101.208 302.734 100.834 300.482 100.516L300.322 101.65Z" fill="#3F3D56"/>
<path d="M313.672 104.148C315.866 104.66 318.08 105.229 320.251 105.84L320.561 104.737C318.373 104.122 316.143 103.549 313.933 103.032L313.672 104.148Z" fill="#3F3D56"/>
<path d="M326.746 107.823C328.885 108.529 331.038 109.293 333.147 110.094L333.554 109.024C331.429 108.216 329.26 107.446 327.105 106.736L326.746 107.823Z" fill="#3F3D56"/>
<path d="M286.803 100.342C289.058 100.461 291.337 100.631 293.577 100.847L293.688 99.7072C291.431 99.4888 289.135 99.3177 286.863 99.1986L286.803 100.342Z" fill="#3F3D56"/>
<path d="M259.543 100.149L259.683 101.286C261.915 101.011 264.188 100.782 266.438 100.605L266.349 99.4631C264.081 99.6412 261.792 99.8719 259.543 100.149Z" fill="#3F3D56"/>
<path d="M232.822 105.879L233.161 106.973C235.314 106.307 237.51 105.68 239.69 105.109L239.401 104.001C237.204 104.576 234.991 105.207 232.822 105.879Z" fill="#3F3D56"/>
<path d="M219.964 110.497L220.399 111.557C222.481 110.703 224.609 109.885 226.722 109.125L226.335 108.048C224.205 108.812 222.062 109.637 219.964 110.497Z" fill="#3F3D56"/>
<path d="M246.056 102.419L246.296 103.539C248.496 103.067 250.74 102.638 252.965 102.263L252.775 101.134C250.533 101.511 248.273 101.944 246.056 102.419Z" fill="#3F3D56"/>
<path d="M350.238 117.176L343.837 107.717L341.586 112.35C341.041 112.106 340.499 111.858 339.955 111.622L339.5 112.674C340.031 112.904 340.557 113.145 341.085 113.381L338.845 117.991L350.238 117.176Z" fill="#3F3D56"/>
</g>
<defs>
<clipPath id="clip0_1239_380">
<rect width="518.59" height="418.746" fill="white"/>
</clipPath>
</defs>
</svg>
