<svg width="628" height="342" viewBox="0 0 628 342" fill="none" xmlns="http://www.w3.org/2000/svg">
<g clip-path="url(#clip0_1238_302)">
<path d="M372.641 12.1489C417.851 -12.0412 475.23 0.640392 505.652 43.5327L504.616 44.2674C474.57 1.90455 417.892 -10.6174 373.239 13.2687C369.446 15.2985 365.784 17.5653 362.275 20.0557C316.356 52.6247 305.495 116.479 338.063 162.399L337.028 163.133C304.055 116.643 315.051 51.9937 361.54 19.0201C365.093 16.4994 368.801 14.2044 372.641 12.1489Z" fill="#E6E6E6"/>
<path d="M612.143 115.546L463.444 103.978C461.136 103.796 458.994 102.705 457.489 100.946C455.984 99.1866 455.238 96.9019 455.414 94.5932L461.861 22.3452C462.043 20.0369 463.133 17.8951 464.893 16.3898C466.652 14.8844 468.937 14.1384 471.245 14.3153L619.944 25.8836C622.252 26.0658 624.394 27.1562 625.899 28.9155C627.404 30.6749 628.15 32.9595 627.973 35.2682L621.527 107.516C621.345 109.825 620.255 111.966 618.495 113.472C616.736 114.977 614.451 115.723 612.143 115.546Z" fill="#E6E6E6"/>
<path d="M577.018 99.2242C575.889 99.2242 574.757 99.1801 573.62 99.0919L477.521 91.6157C475.6 91.4663 473.726 90.9398 472.008 90.0665C470.29 89.1931 468.761 87.9898 467.508 86.5254C466.255 85.061 465.303 83.3642 464.706 81.5317C464.109 79.6993 463.878 77.7671 464.028 75.8456L466.219 47.6767C466.525 43.7976 468.357 40.1983 471.314 37.6685C474.27 35.1387 478.11 33.8849 481.989 34.1824L606.256 43.8499C610.135 44.1562 613.734 45.9886 616.264 48.945C618.794 51.9015 620.047 55.7406 619.75 59.6203C618.912 70.3855 614.049 80.4396 606.129 87.7793C598.21 95.1191 587.816 99.2055 577.018 99.2242Z" fill="white"/>
<path d="M603.283 66.2433L481.464 56.7662C481.21 56.7464 480.962 56.6769 480.736 56.5615C480.509 56.4462 480.307 56.2872 480.141 56.0938C479.976 55.9004 479.85 55.6763 479.771 55.4342C479.692 55.1922 479.662 54.937 479.681 54.6832C479.701 54.4294 479.771 54.182 479.886 53.9551C480.001 53.7281 480.16 53.5262 480.354 53.3607C480.547 53.1952 480.771 53.0694 481.013 52.9905C481.255 52.9116 481.511 52.8812 481.764 52.9009L603.584 62.3781C603.838 62.3978 604.085 62.4673 604.312 62.5827C604.539 62.6981 604.741 62.857 604.906 63.0504C605.072 63.2439 605.198 63.468 605.276 63.71C605.355 63.9521 605.386 64.2072 605.366 64.461C605.346 64.7148 605.277 64.9623 605.161 65.1892C605.046 65.4161 604.887 65.6181 604.694 65.7836C604.5 65.9491 604.276 66.0749 604.034 66.1537C603.792 66.2326 603.537 66.2631 603.283 66.2433Z" fill="#E6E6E6"/>
<path d="M552.701 69.9911L480.87 64.4029C480.357 64.3628 479.882 64.1208 479.548 63.7302C479.214 63.3396 479.049 62.8323 479.088 62.3199C479.128 61.8076 479.37 61.332 479.76 60.9977C480.151 60.6635 480.658 60.4979 481.17 60.5375L553.001 66.1257C553.255 66.1453 553.503 66.2148 553.73 66.3301C553.957 66.4454 554.159 66.6043 554.325 66.7978C554.49 66.9912 554.616 67.2154 554.695 67.4576C554.774 67.6997 554.804 67.955 554.785 68.2089C554.765 68.4628 554.695 68.7103 554.58 68.9373C554.464 69.1643 554.305 69.3664 554.112 69.5319C553.918 69.6974 553.694 69.8231 553.452 69.9019C553.21 69.9808 552.954 70.011 552.701 69.9911Z" fill="#E6E6E6"/>
<path d="M568.524 78.9052L480.275 72.0398C480.022 72.0202 479.774 71.9507 479.547 71.8354C479.32 71.7201 479.118 71.5612 478.952 71.3677C478.786 71.1743 478.661 70.9501 478.582 70.7079C478.503 70.4658 478.472 70.2105 478.492 69.9566C478.512 69.7027 478.581 69.4552 478.697 69.2282C478.812 69.0012 478.971 68.7991 479.165 68.6336C479.358 68.4681 479.583 68.3424 479.825 68.2635C480.067 68.1847 480.322 68.1544 480.576 68.1743L568.824 75.0398C569.337 75.0799 569.812 75.3219 570.146 75.7125C570.48 76.1031 570.646 76.6104 570.606 77.1227C570.566 77.6351 570.324 78.1107 569.934 78.445C569.543 78.7792 569.036 78.9447 568.524 78.9052Z" fill="#E6E6E6"/>
<path d="M602.192 213.622L453.494 202.054C451.186 201.871 449.044 200.781 447.539 199.022C446.033 197.262 445.287 194.978 445.464 192.669L451.91 120.421C452.093 118.113 453.183 115.971 454.942 114.465C456.702 112.96 458.986 112.214 461.295 112.391L609.993 123.959C612.302 124.141 614.443 125.232 615.949 126.991C617.454 128.751 618.2 131.035 618.023 133.344L611.577 205.592C611.395 207.9 610.304 210.042 608.545 211.547C606.786 213.053 604.501 213.799 602.192 213.622Z" fill="#E6E6E6"/>
<path d="M567.03 197.298C565.917 197.298 564.797 197.255 563.67 197.167L467.571 189.691C465.649 189.542 463.776 189.015 462.058 188.142C460.34 187.269 458.811 186.065 457.558 184.601C456.305 183.137 455.353 181.44 454.755 179.607C454.158 177.775 453.928 175.843 454.077 173.921L456.268 145.753C456.418 143.831 456.944 141.958 457.818 140.24C458.691 138.521 459.895 136.992 461.359 135.739C462.824 134.486 464.52 133.534 466.353 132.936C468.185 132.339 470.118 132.109 472.039 132.258L596.306 141.926C598.227 142.075 600.101 142.602 601.819 143.475C603.537 144.349 605.066 145.552 606.319 147.016C607.572 148.481 608.524 150.178 609.122 152.01C609.719 153.842 609.949 155.775 609.8 157.696C608.949 168.463 604.076 178.515 596.151 185.853C588.226 193.191 577.83 197.277 567.03 197.298Z" fill="white"/>
<path d="M593.333 164.319L471.513 154.842C471.26 154.822 471.012 154.753 470.785 154.637C470.558 154.522 470.356 154.363 470.191 154.17C470.025 153.976 469.9 153.752 469.821 153.51C469.742 153.268 469.711 153.013 469.731 152.759C469.751 152.505 469.82 152.258 469.936 152.031C470.051 151.804 470.21 151.602 470.403 151.436C470.597 151.271 470.821 151.145 471.063 151.066C471.305 150.987 471.56 150.957 471.814 150.977L593.633 160.454C593.887 160.474 594.135 160.543 594.362 160.658C594.588 160.774 594.79 160.933 594.956 161.126C595.121 161.32 595.247 161.544 595.326 161.786C595.405 162.028 595.435 162.283 595.416 162.537C595.396 162.791 595.326 163.038 595.211 163.265C595.096 163.492 594.937 163.694 594.743 163.859C594.55 164.025 594.326 164.151 594.084 164.229C593.842 164.308 593.587 164.339 593.333 164.319Z" fill="#E6E6E6"/>
<path d="M542.75 168.067L470.919 162.479C470.665 162.459 470.418 162.39 470.191 162.274C469.964 162.159 469.762 162 469.596 161.807C469.43 161.613 469.304 161.389 469.225 161.147C469.146 160.905 469.116 160.649 469.136 160.395C469.155 160.142 469.225 159.894 469.341 159.667C469.456 159.44 469.615 159.238 469.809 159.072C470.002 158.907 470.226 158.781 470.469 158.702C470.711 158.624 470.966 158.593 471.22 158.613L543.051 164.201C543.563 164.242 544.039 164.484 544.373 164.874C544.707 165.265 544.872 165.772 544.832 166.284C544.792 166.797 544.55 167.272 544.16 167.607C543.77 167.941 543.263 168.106 542.75 168.067Z" fill="#E6E6E6"/>
<path d="M558.573 176.981L470.325 170.115C469.813 170.076 469.337 169.834 469.003 169.443C468.668 169.052 468.503 168.545 468.543 168.032C468.583 167.52 468.825 167.044 469.215 166.71C469.606 166.375 470.113 166.21 470.626 166.25L558.874 173.115C559.387 173.155 559.863 173.397 560.197 173.788C560.531 174.178 560.696 174.686 560.657 175.198C560.617 175.711 560.375 176.187 559.984 176.521C559.594 176.855 559.086 177.021 558.573 176.981Z" fill="#E6E6E6"/>
<path d="M223.946 175.874C222.059 171.597 221.032 166.989 220.925 162.315C220.818 157.641 221.633 152.991 223.323 148.632C225.013 144.272 227.545 140.289 230.775 136.908C234.004 133.527 237.868 130.816 242.145 128.928C246.423 127.04 251.03 126.014 255.704 125.907C260.379 125.8 265.028 126.615 269.387 128.305C273.747 129.995 277.73 132.527 281.111 135.756C284.492 138.986 287.203 142.85 289.091 147.127L287.929 147.64C286.109 143.515 283.494 139.789 280.234 136.675C276.974 133.56 273.132 131.119 268.928 129.489C264.725 127.859 260.241 127.074 255.734 127.177C251.226 127.28 246.783 128.27 242.658 130.09C238.533 131.91 234.807 134.525 231.693 137.785C228.579 141.045 226.137 144.887 224.507 149.091C222.877 153.295 222.092 157.778 222.195 162.286C222.298 166.793 223.288 171.236 225.108 175.361L223.946 175.874Z" fill="#E6E6E6"/>
<path d="M592.982 374.426C607.519 367.537 618.347 353.678 616.658 338.447C603.616 349.007 585.861 354.905 567.531 354.763C560.392 354.709 552.397 353.982 547.209 357.988C543.981 360.481 542.525 364.439 542.341 368.384C542.157 372.328 543.113 376.321 544.064 380.261L543.775 381.195C560.843 382.282 578.446 381.314 592.982 374.426Z" fill="#F2F2F2"/>
<path d="M616.3 338.409C610.677 349.38 600.93 358.524 588.816 363.876C586.161 365.114 583.335 365.944 580.433 366.339C577.477 366.648 574.49 366.257 571.713 365.199C569.08 364.254 566.485 363.024 563.693 362.649C562.326 362.459 560.934 362.545 559.601 362.905C558.269 363.264 557.022 363.889 555.936 364.741C553.356 366.747 551.817 369.524 550.422 372.294C548.874 375.369 547.322 378.59 544.29 380.685C543.923 380.939 544.435 381.468 544.801 381.214C550.077 377.567 550.838 370.974 555.03 366.557C556.016 365.442 557.241 364.565 558.614 363.991C559.988 363.417 561.473 363.161 562.959 363.242C565.809 363.453 568.486 364.719 571.144 365.696C573.847 366.763 576.748 367.239 579.65 367.091C582.576 366.834 585.441 366.105 588.135 364.934C593.992 362.496 599.414 359.122 604.189 354.944C609.465 350.382 613.819 344.854 617.02 338.657C617.214 338.278 616.493 338.033 616.3 338.409Z" fill="white"/>
<path d="M568.696 306.244C568.652 306.507 568.607 306.77 568.556 307.035C567.934 310.563 566.984 314.025 565.718 317.375C565.624 317.636 565.526 317.899 565.424 318.156C562.222 326.269 557.352 333.619 551.13 339.731C548.596 342.228 545.862 344.515 542.956 346.568C538.905 349.435 534.23 352.235 531.666 356.097C531.395 356.495 531.151 356.912 530.938 357.345L542.487 380.713C542.542 380.756 542.592 380.802 542.647 380.846L543.062 381.794C543.223 381.697 543.386 381.593 543.547 381.496C543.64 381.44 543.731 381.379 543.825 381.323C543.886 381.284 543.948 381.245 544.006 381.213C544.026 381.201 544.047 381.187 544.061 381.176C544.12 381.145 544.17 381.109 544.222 381.079C545.14 380.501 546.055 379.916 546.966 379.324C546.972 379.322 546.972 379.322 546.975 379.315C553.902 374.785 560.418 369.666 565.771 363.76C565.932 363.583 566.099 363.403 566.254 363.215C568.634 360.561 570.765 357.694 572.62 354.651C573.62 352.996 574.524 351.285 575.326 349.525C577.385 344.98 578.605 340.1 578.927 335.121C579.579 325.147 576.62 314.834 569.265 306.849C569.076 306.645 568.89 306.446 568.696 306.244Z" fill="#F2F2F2"/>
<path d="M568.401 306.403C571.618 318.74 570.509 331.751 565.063 342.822C563.93 345.28 562.369 347.518 560.454 349.43C558.402 351.311 555.879 352.601 553.154 353.165C550.543 353.783 547.767 354.138 545.423 355.326C544.273 355.902 543.276 356.742 542.513 357.777C541.749 358.812 541.242 360.013 541.032 361.282C540.458 364.375 541.186 367.56 542.016 370.661C542.939 374.105 543.957 377.673 543.106 381.085C543.003 381.499 543.743 381.671 543.846 381.258C545.328 375.321 541.434 369.317 541.583 363.311C541.652 360.509 542.673 357.778 545.276 356.225C547.551 354.867 550.413 354.498 553.065 353.893C555.743 353.373 558.254 352.205 560.377 350.491C562.4 348.686 564.06 346.512 565.27 344.086C568.041 338.74 569.822 332.937 570.527 326.958C571.373 320.019 570.891 312.983 569.107 306.225C568.996 305.799 568.291 305.98 568.401 306.403Z" fill="white"/>
<path d="M567.054 339.322C571.805 340.811 576.846 339.03 578.838 335.182C579.034 334.803 578.356 334.463 578.159 334.843C576.293 338.448 571.629 340.065 567.187 338.674C566.72 338.527 566.59 339.177 567.054 339.322Z" fill="white"/>
<path d="M554.538 353.011C553.322 351.175 552.491 349.112 552.097 346.946C551.702 344.78 551.751 342.556 552.242 340.409C552.344 339.995 551.603 339.823 551.502 340.236C550.996 342.472 550.949 344.786 551.365 347.04C551.781 349.294 552.65 351.44 553.921 353.347C554.169 353.736 554.786 353.397 554.538 353.011Z" fill="white"/>
<path d="M570.426 320.313C569.493 320.208 568.595 319.898 567.796 319.406C566.996 318.914 566.316 318.251 565.801 317.466C565.558 317.075 564.942 317.414 565.184 317.803C565.755 318.668 566.508 319.399 567.391 319.945C568.273 320.49 569.263 320.837 570.293 320.962C570.497 320.987 570.688 320.915 570.729 320.724C570.741 320.63 570.716 320.535 570.659 320.458C570.603 320.382 570.519 320.33 570.426 320.313Z" fill="white"/>
<path d="M593.214 208.508L584.378 161.472L567.033 138.642L554.179 147.046C555.996 156.898 569.735 175.289 569.735 175.289L581.913 211.665C581.864 211.854 581.819 212.045 581.786 212.241C581.593 213.392 581.7 214.573 582.097 215.671C582.494 216.768 583.167 217.745 584.051 218.506C584.936 219.267 586.002 219.787 587.146 220.016C588.29 220.245 589.474 220.175 590.583 219.813C591.693 219.45 592.689 218.808 593.478 217.948C594.266 217.087 594.82 216.038 595.084 214.902C595.348 213.765 595.315 212.58 594.988 211.46C594.66 210.34 594.049 209.323 593.214 208.508Z" fill="#FFB8B8"/>
<path d="M554.525 152.016L569.077 140.204L569.105 140.142C571.827 133.974 565.783 123.398 560.234 115.612C558.403 113.046 555.665 111.272 552.575 110.647C549.485 110.023 546.273 110.595 543.588 112.248C541.616 113.481 540.028 115.24 539.004 117.328C537.98 119.416 537.56 121.749 537.792 124.063L539.016 135.846L554.525 152.016Z" fill="#3F3D56"/>
<path d="M560.821 225.222C560.821 225.222 561.951 238.79 559.125 251.792C556.298 264.795 556.298 301.414 556.298 301.414L550.08 372.772L531.424 371.076L526.336 251.792L508.246 291.93L509.942 297.584L507.683 298.997C507.683 298.997 509.377 310.021 508.246 310.021C507.116 310.021 504.289 311.717 504.289 311.717L506.55 369.945L487.329 369.38L480.546 287.408L487.895 240.486L488.46 231.44L491.004 231.545L492.299 227.766L494.678 221.265L560.821 225.222Z" fill="#2F2E41"/>
<path d="M561.798 228.072L561.899 227.93C567.28 220.397 559.187 202.294 557.966 199.669L563.107 198.001L561.949 188.16L561.401 183.772L565.33 179.843L565.341 179.745L567.603 159.959L570.891 146.817C572.129 141.849 572.024 136.64 570.585 131.726C569.145 126.813 566.425 122.37 562.701 118.855L555.102 111.69L545.865 98.0233H530.971L525.864 107.67C520.913 108.814 516.52 111.659 513.451 115.709C510.382 119.76 508.83 124.758 509.068 129.835L510.225 155.134L505.694 186.635L505.691 192.335L500.592 198.002L501.705 203.57L497.825 205.233L496.111 213.229C495.402 214.165 490.721 220.406 490.721 222.113C490.721 222.369 490.91 222.616 491.316 222.891C494.506 225.051 512.137 229.455 519.94 226.332C528.252 223.009 561.293 227.994 561.626 228.045L561.798 228.072Z" fill="#3F3D56"/>
<path d="M536.494 93.6117C547.389 93.6117 556.22 84.7801 556.22 73.8858C556.22 62.9915 547.389 54.1599 536.494 54.1599C525.6 54.1599 516.769 62.9915 516.769 73.8858C516.769 84.7801 525.6 93.6117 536.494 93.6117Z" fill="#FFB8B8"/>
<path d="M534.605 93.931C537.66 93.8998 540.706 93.6077 543.711 93.0579C546.686 92.3725 553.251 87.2967 555.04 84.2981C556.369 82.0702 557.166 78.6242 557.602 76.1257C558.189 72.8192 558.076 69.4262 557.269 66.1662C556.462 62.9063 554.98 59.8522 552.917 57.2017C552.122 56.0913 551.042 55.2164 549.791 54.6696C549.68 54.6295 549.566 54.5945 549.451 54.5649C547.638 54.1374 545.993 53.1775 544.729 51.8084C544.483 51.5312 544.218 51.2721 543.935 51.033C542.517 49.8973 540.85 49.1135 539.07 48.7455C536.196 48.0551 532.084 48.9202 526.849 51.319C524.219 52.5242 521.3 52.188 519.05 51.7604C518.923 51.7394 518.794 51.7518 518.674 51.7963C518.554 51.8409 518.448 51.916 518.366 52.0143C517.438 52.9326 516.196 53.4652 514.89 53.5052C514.091 53.561 513.281 54.69 512.304 56.1602C512.082 56.4939 511.824 56.8834 511.636 57.121L511.598 56.6747L511.159 57.1851C510.468 57.9872 509.991 58.9512 509.773 59.9871C509.555 61.0231 509.603 62.0973 509.912 63.1099C510.221 64.1225 510.781 65.0404 511.54 65.7782C512.299 66.5159 513.233 67.0496 514.254 67.3295C515.064 67.5227 515.892 67.6328 516.724 67.6579C517.229 67.6902 517.751 67.7237 518.252 67.7974C519.862 68.084 521.37 68.7833 522.63 69.8269C523.889 70.8705 524.856 72.2228 525.436 73.7518C525.574 74.1051 525.79 74.4222 526.069 74.6787C526.348 74.9351 526.682 75.1239 527.046 75.2306C527.41 75.3373 527.793 75.359 528.167 75.2941C528.54 75.2291 528.893 75.0792 529.2 74.8559C529.709 74.4377 530.312 74.1489 530.957 74.0141C531.602 73.8793 532.271 73.9026 532.905 74.0819C533.456 74.3702 533.892 74.8394 534.139 75.4108C534.437 76.0467 534.918 76.5794 535.52 76.9409C537.574 77.9335 537.833 82.5591 537.205 86.4369C536.599 90.1747 535.282 92.9014 534.001 93.0676C533.015 93.1954 532.904 93.2685 532.837 93.4452L532.777 93.6034L532.892 93.7469C533.443 93.9308 534.027 93.9936 534.605 93.931Z" fill="#2F2E41"/>
<path d="M317.821 195.607C339.483 195.607 357.044 178.046 357.044 156.384C357.044 134.721 339.483 117.16 317.821 117.16C296.159 117.16 278.598 134.721 278.598 156.384C278.598 178.046 296.159 195.607 317.821 195.607Z" fill="#BB6BD9"/>
<path d="M530.061 150.547L517.123 142.272C508.884 147.971 497.75 168.047 497.75 168.047L469.571 194.081C468.397 194.282 467.297 194.789 466.381 195.551C465.465 196.313 464.767 197.302 464.355 198.42C463.943 199.538 463.833 200.744 464.036 201.918C464.239 203.092 464.747 204.191 465.51 205.106C466.273 206.021 467.264 206.718 468.382 207.129C469.5 207.539 470.707 207.648 471.88 207.443C473.053 207.239 474.152 206.729 475.066 205.965C475.98 205.201 476.677 204.21 477.085 203.091L516.358 175.732L530.061 150.547Z" fill="#FFB8B8"/>
<path d="M528.828 153.904L537.445 133.223L534.328 121.794C533.708 119.552 532.473 117.529 530.764 115.952C529.054 114.375 526.938 113.308 524.653 112.871C521.553 112.3 518.351 112.927 515.696 114.626C513.04 116.325 511.129 118.97 510.348 122.024C507.988 131.29 506.175 143.335 510.942 148.102L510.99 148.15L528.828 153.904Z" fill="#3F3D56"/>
<path d="M27.0152 384.04C10.1477 375.382 -2.09011 358.652 0.468447 340.772C15.4373 353.7 36.1335 361.31 57.7316 361.828C66.1437 362.03 75.5898 361.473 81.5517 366.386C85.2613 369.443 86.8289 374.16 86.8983 378.814C86.9677 383.468 85.692 388.135 84.4247 392.742L84.7305 393.852C64.5832 394.495 43.8827 392.698 27.0152 384.04Z" fill="#F2F2F2"/>
<path d="M0.891535 340.741C7.10504 353.875 18.2466 365.01 32.3176 371.767C35.3982 373.326 38.6966 374.409 42.1009 374.982C45.5714 375.456 49.1047 375.108 52.4156 373.965C55.5524 372.95 58.6556 371.598 61.959 371.261C63.5766 371.088 65.2126 371.242 66.7692 371.715C68.3258 372.188 69.771 372.97 71.0184 374.015C73.9828 376.475 75.6922 379.803 77.2316 383.118C78.9409 386.799 80.6484 390.651 84.142 393.233C84.5653 393.546 83.9429 394.149 83.5202 393.836C77.442 389.344 76.7914 381.547 72.0183 376.188C69.791 373.687 66.6487 371.826 62.8009 371.987C59.4362 372.128 56.235 373.521 53.0669 374.572C49.8429 375.728 46.4085 376.181 42.9949 375.898C39.5576 375.485 36.2095 374.52 33.0798 373.04C26.2709 369.949 20.0095 365.772 14.5405 360.672C8.49644 355.101 3.57271 348.425 0.0342123 341.006C-0.180421 340.552 0.678298 340.29 0.891535 340.741Z" fill="white"/>
<path d="M58.171 304.627C58.214 304.939 58.257 305.25 58.3065 305.565C58.9075 309.744 59.8978 313.857 61.2644 317.852C61.3643 318.162 61.471 318.475 61.5811 318.782C65.0505 328.458 70.5125 337.299 77.6137 344.732C80.5063 347.768 83.6416 350.564 86.9883 353.091C91.6532 356.619 97.0561 360.093 99.9317 364.738C100.237 365.218 100.508 365.718 100.743 366.235L86.2651 393.332C86.1986 393.381 86.1386 393.433 86.0718 393.483L85.5476 394.585C85.3621 394.464 85.173 394.336 84.9874 394.216C84.8795 394.146 84.7747 394.071 84.6668 394.002C84.5958 393.953 84.525 393.905 84.4575 393.865C84.4338 393.849 84.4103 393.833 84.3933 393.82C84.3259 393.78 84.2685 393.737 84.2078 393.7C83.1479 392.984 82.0923 392.261 81.0412 391.529C81.0344 391.526 81.0344 391.526 81.0309 391.518C73.0393 385.923 65.5551 379.65 59.4696 372.492C59.2866 372.277 59.0967 372.059 58.9203 371.832C56.2165 368.616 53.8132 365.16 51.7406 361.505C50.6245 359.518 49.6242 357.469 48.7448 355.366C46.4892 349.935 45.2344 344.141 45.041 338.263C44.645 326.489 48.5156 314.45 57.4789 305.319C57.7084 305.086 57.9348 304.858 58.171 304.627Z" fill="#F2F2F2"/>
<path d="M58.513 304.826C54.2626 319.238 55.0825 334.607 61.0856 347.852C62.3283 350.791 64.0831 353.485 66.2682 355.81C68.6152 358.102 71.5385 359.716 74.7284 360.481C77.7808 361.307 81.0376 361.83 83.7543 363.317C85.0876 364.038 86.2313 365.065 87.0918 366.313C87.9523 367.56 88.5052 368.994 88.7054 370.497C89.2654 374.162 88.2897 377.886 87.1951 381.509C85.9797 385.531 84.6468 389.696 85.5223 393.748C85.6283 394.239 84.7495 394.414 84.6435 393.924C83.1205 386.874 87.9314 379.948 87.9806 372.867C88.0035 369.563 86.9026 366.307 83.8949 364.381C81.2648 362.696 77.9071 362.154 74.8063 361.343C71.6702 360.63 68.7562 359.16 66.3187 357.062C64.0032 354.86 62.1284 352.238 60.7947 349.334C57.7294 342.933 55.8478 336.031 55.2408 328.96C54.5035 320.755 55.3338 312.484 57.6874 304.589C57.8342 304.091 58.6589 304.331 58.513 304.826Z" fill="white"/>
<path d="M58.87 343.656C53.2175 345.232 47.3463 342.946 45.1433 338.338C44.9262 337.884 45.738 337.509 45.9553 337.964C48.0192 342.281 53.4536 344.36 58.7375 342.886C59.2936 342.731 59.4229 343.502 58.87 343.656Z" fill="white"/>
<path d="M55.6071 321.137C56.71 321.048 57.7796 320.716 58.7398 320.166C59.6999 319.616 60.527 318.861 61.162 317.955C61.4633 317.504 62.1765 317.926 61.8771 318.375C61.1713 319.373 60.2568 320.206 59.197 320.816C58.1373 321.426 56.9576 321.798 55.7397 321.906C55.4979 321.928 55.2758 321.836 55.2341 321.61C55.2242 321.498 55.2573 321.387 55.3267 321.299C55.396 321.211 55.4964 321.153 55.6071 321.137Z" fill="white"/>
<path d="M109.199 168.822L110.47 180.607L109.722 196.06L143.951 191.994L147.167 168.822L143.069 168.862L109.199 168.822Z" fill="#FFB6B6"/>
<path d="M88.2165 357.891H88.2979L89.7371 310.957C88.8057 309.161 88.333 307.162 88.3611 305.138C88.3892 303.115 88.9172 301.13 89.8981 299.36L90.1042 298.987L89.5699 296.51C88.8837 293.328 89.1986 290.012 90.4714 287.016L91.814 243.236C87.0172 212.148 109.877 191.874 109.877 191.874H144.122L151.474 217.134C156.334 264.486 155.452 310.63 147.739 355.335L147.95 355.441C148.707 355.703 149.032 356.751 148.675 357.784C148.319 358.817 147.416 359.442 146.659 359.18L128.574 358.551C127.817 358.29 127.492 357.241 127.849 356.209C128.205 355.176 129.108 354.551 129.865 354.812L131.094 355.434L128.472 310.145L128.763 301.872L128.163 292.488L125.391 250.274L114.898 302.185L104.181 358.414C104.476 358.681 104.684 359.032 104.776 359.42C104.868 359.808 104.84 360.215 104.696 360.587C104.552 360.959 104.298 361.279 103.969 361.503C103.64 361.728 103.25 361.848 102.851 361.847H88.2165C87.9565 361.847 87.6989 361.796 87.4586 361.697C87.2182 361.598 86.9998 361.452 86.8158 361.269C86.6317 361.085 86.4857 360.867 86.3861 360.627C86.2865 360.387 86.2352 360.129 86.2352 359.869C86.2352 359.609 86.2865 359.352 86.3861 359.111C86.4857 358.871 86.6317 358.653 86.8158 358.469C86.9998 358.286 87.2182 358.14 87.4586 358.041C87.6989 357.942 87.9565 357.891 88.2165 357.891Z" fill="#2F2E41"/>
<path d="M115.176 108.517C125.32 108.517 133.544 100.293 133.544 90.1485C133.544 80.0041 125.32 71.7805 115.176 71.7805C105.032 71.7805 96.8083 80.0041 96.8083 90.1485C96.8083 100.293 105.032 108.517 115.176 108.517Z" fill="#FFB6B6"/>
<path d="M34.6894 175.008C37.2709 169.015 40.8158 163.485 45.1836 158.637C41.485 164.531 39.3712 171.281 39.047 178.233C40.386 179.069 41.7871 179.802 43.238 180.425C47.5981 182.254 52.247 183.298 56.9704 183.51C59.5162 175.028 63.9103 167.216 69.8366 160.636C65.5656 167.447 63.4178 175.375 63.6666 183.41C68.935 182.955 74.1258 181.842 79.1181 180.098C86.614 177.52 93.8899 173.669 99.0737 167.679C104.684 161.195 107.449 152.64 108.342 144.111C109.235 135.589 108.395 126.987 107.549 118.458C107.149 114.394 110.534 109.717 110.134 105.652H109.868C108.089 103.213 106.276 100.715 105.404 97.823C104.537 94.9378 104.764 91.533 106.756 89.2609C107.872 88.0737 109.281 87.2006 110.841 86.7289C110.987 86.5424 111.147 86.3625 111.314 86.1825C114.331 82.978 117.881 80.3221 121.808 78.3335C118.976 80.4723 117.084 82.891 116.204 85.3896C118.656 84.8499 121.108 84.3125 123.56 83.7772C124.38 82.9079 125.242 82.0806 126.145 81.2985C127.458 80.1591 127.891 80.0725 129.457 78.9998C128.193 80.1118 127.213 81.5099 126.598 83.0776C129.75 82.2847 132.902 81.092 134.541 78.3801C137.259 73.8958 134.028 67.8458 129.517 65.1672C126.236 63.3136 122.455 62.5382 118.709 62.9507C114.963 63.3632 111.441 64.9428 108.642 67.466C102.119 62.6619 92.8305 62.7419 85.5745 66.3333C80.7843 68.8103 76.6578 72.3999 73.5412 76.801C75.3491 76.5689 77.1689 76.4421 78.9915 76.4212C76.4259 76.7966 73.9828 77.7638 71.8554 79.2463C70.9143 80.7076 70.0513 82.2178 69.2702 83.7705C68.7572 84.7899 68.273 85.8227 67.8177 86.8688C65.0259 93.2254 63.2069 99.9951 61.3213 106.685C59.1225 114.481 56.7638 122.33 52.6461 129.306C46.3326 139.914 36.3731 147.86 24.6282 151.66C23.6488 160.476 27.953 169.098 34.6894 175.008Z" fill="#2F2E41"/>
<path d="M133.673 120.8L130.108 119.461L125.613 112.193L109.6 113.501L105.708 121.295L96.3323 128.455L100.433 150.05L106.803 176.28L149.446 170.95L149.401 151.204C149.401 151.204 157.107 135.603 144.659 129.758L133.673 120.8Z" fill="#BB6BD9"/>
<path d="M199.403 189.294C198.575 189.627 197.685 189.773 196.794 189.724C195.903 189.675 195.034 189.431 194.248 189.01C193.462 188.589 192.777 188 192.243 187.286C191.709 186.571 191.338 185.748 191.156 184.875L143.61 156.104L152.3 146.077L196.304 177.511C197.792 177.303 199.304 177.647 200.554 178.48C201.804 179.312 202.705 180.574 203.087 182.026C203.469 183.479 203.305 185.021 202.626 186.36C201.947 187.7 200.8 188.744 199.403 189.294Z" fill="#FFB6B6"/>
<path d="M127.766 142.461C127.766 142.461 125.494 144.747 131.196 148.507C135.76 151.516 156.12 166.389 163.337 168.742C163.246 169.802 163.511 170.862 164.09 171.755C164.668 172.648 165.527 173.323 166.532 173.674L173.066 159.313C171.652 156.031 169.389 156.791 168.199 157.535L160.307 151.6L140.927 132.247L129.379 140.779L127.766 142.461Z" fill="#BB6BD9"/>
<path d="M108.758 67.9656C106.551 71.2235 105.124 74.9468 104.591 78.8459C104.057 82.745 104.43 86.7147 105.681 90.446" fill="#FD6584"/>
<path d="M83.3612 223.557C82.9178 223.713 82.5545 224.038 82.3509 224.462C82.1473 224.886 82.12 225.373 82.2751 225.817L107.064 297.263C107.22 297.706 107.545 298.07 107.969 298.273C108.393 298.477 108.88 298.504 109.324 298.349L253.56 247.742C254.003 247.586 254.367 247.26 254.57 246.837C254.774 246.413 254.801 245.926 254.646 245.482L229.857 174.036C229.701 173.592 229.375 173.229 228.952 173.025C228.528 172.822 228.041 172.794 227.597 172.95L83.3612 223.557Z" fill="#E6E6E6"/>
<path d="M119.869 288.038C117.031 288.037 114.262 287.157 111.944 285.519C109.625 283.881 107.871 281.565 106.922 278.89L93.3089 240.374C92.0964 236.943 92.2963 233.172 93.8646 229.889C95.4329 226.605 98.2411 224.08 101.671 222.867L174.57 197.102C188.216 192.296 203.211 193.099 216.266 199.335C229.32 205.571 239.368 216.732 244.205 230.367C245.417 233.797 245.217 237.569 243.649 240.852C242.081 244.135 239.272 246.661 235.842 247.873L124.428 287.253C122.964 287.772 121.422 288.037 119.869 288.038Z" fill="white"/>
<path d="M216.541 212.113L151.267 235.015C150.347 235.338 149.207 234.475 148.721 233.089C148.235 231.703 148.586 230.317 149.505 229.995L214.779 207.093C215.699 206.77 216.839 207.632 217.325 209.018C217.812 210.405 217.461 211.791 216.541 212.113Z" fill="#E6E6E6"/>
<path d="M221.589 226.503L156.315 249.405C155.396 249.728 154.256 248.866 153.77 247.48C153.283 246.093 153.634 244.708 154.554 244.385L219.828 221.483C220.748 221.16 221.887 222.023 222.374 223.409C222.86 224.795 222.509 226.181 221.589 226.503Z" fill="#E6E6E6"/>
<path d="M142.435 242.844C143.136 244.819 143.476 246.904 143.44 249C143.426 249.959 143.331 250.915 143.157 251.858C142.6 254.904 141.249 257.749 139.24 260.106C137.232 262.463 134.636 264.248 131.716 265.28C128.796 266.312 125.656 266.555 122.612 265.984C119.569 265.412 116.73 264.048 114.382 262.028C114.145 261.825 113.915 261.616 113.69 261.4C111.773 259.563 110.297 257.315 109.373 254.826C108.449 252.337 108.1 249.672 108.353 247.029C108.606 244.386 109.454 241.834 110.834 239.566C112.214 237.298 114.089 235.371 116.32 233.931C118.551 232.491 121.078 231.575 123.714 231.252C126.349 230.928 129.023 231.205 131.536 232.063C134.049 232.921 136.334 234.336 138.222 236.203C140.11 238.071 141.55 240.341 142.435 242.844Z" fill="#E4E4E4"/>
<path d="M126.588 251.389C128.445 251.389 129.95 249.885 129.95 248.028C129.95 246.172 128.445 244.667 126.588 244.667C124.732 244.667 123.227 246.172 123.227 248.028C123.227 249.885 124.732 251.389 126.588 251.389Z" fill="#FD6584"/>
<path d="M113.69 261.4C114.553 259.397 115.573 256.341 117.936 257.454C119.103 257.96 121.193 259.497 122.042 257.709L128.688 243.797C128.814 243.538 128.99 243.306 129.207 243.116C129.424 242.926 129.677 242.781 129.95 242.689C130.224 242.598 130.513 242.562 130.8 242.585C131.088 242.607 131.368 242.686 131.625 242.818L143.44 249C143.426 249.959 143.331 250.915 143.157 251.857L114.382 262.028L113.69 261.4Z" fill="#3F3D56"/>
<path d="M117.12 220.314C116.289 219.991 115.538 219.489 114.922 218.845C114.305 218.2 113.838 217.428 113.552 216.583C113.266 215.738 113.168 214.841 113.267 213.954C113.365 213.068 113.657 212.214 114.121 211.452L99.0792 157.952L112.277 156.573L122.912 209.595C124.14 210.46 125.008 211.745 125.352 213.207C125.696 214.669 125.491 216.206 124.777 217.527C124.063 218.849 122.889 219.862 121.478 220.376C120.067 220.889 118.516 220.868 117.12 220.314Z" fill="#FFB6B6"/>
<path d="M96.854 128.584C96.854 128.584 93.6328 128.699 95.225 135.341C96.4998 140.657 101.181 174.01 104.841 180.66C104.051 181.372 103.52 182.327 103.332 183.374C103.144 184.422 103.309 185.502 103.802 186.444L118.388 180.429C119.599 177.066 118.661 174.012 117.283 173.742L115.579 164.015L113.068 131.384L99.181 128.459L96.854 128.584Z" fill="#BB6BD9"/>
<path d="M228.242 269.348L208.07 270.184C207.639 270.203 207.21 270.124 206.814 269.953C206.418 269.782 206.066 269.523 205.784 269.197C205.505 268.879 205.303 268.502 205.191 268.095C205.079 267.687 205.061 267.259 205.138 266.844C206.686 258.403 206.235 249.717 203.821 241.482C203.635 240.852 203.672 240.177 203.928 239.572C204.184 238.967 204.641 238.47 205.223 238.164C213.485 233.872 221.226 233.654 228.231 237.517C228.598 237.716 228.917 237.993 229.166 238.329C229.415 238.664 229.588 239.05 229.673 239.459C231.496 248.445 231.933 257.657 230.969 266.776C230.902 267.462 230.589 268.101 230.088 268.574C229.586 269.047 228.93 269.322 228.242 269.348Z" fill="#BB6BD9"/>
<path d="M227.388 256.146L211.965 256.785C211.775 256.793 211.585 256.764 211.406 256.698C211.227 256.633 211.063 256.533 210.923 256.404C210.783 256.275 210.67 256.12 210.59 255.948C210.51 255.775 210.465 255.588 210.457 255.398C210.449 255.208 210.479 255.018 210.544 254.84C210.61 254.661 210.71 254.497 210.839 254.357C210.967 254.217 211.123 254.104 211.295 254.024C211.468 253.944 211.655 253.899 211.845 253.892L227.268 253.253C227.458 253.245 227.648 253.274 227.826 253.34C228.005 253.405 228.169 253.505 228.309 253.634C228.449 253.763 228.562 253.918 228.642 254.09C228.722 254.263 228.767 254.45 228.775 254.64C228.783 254.83 228.753 255.019 228.688 255.198C228.622 255.376 228.522 255.54 228.393 255.68C228.265 255.82 228.11 255.933 227.937 256.013C227.764 256.093 227.578 256.138 227.388 256.146Z" fill="white"/>
<path d="M227.178 251.072L211.755 251.711C211.371 251.727 210.997 251.59 210.714 251.33C210.432 251.07 210.264 250.708 210.248 250.324C210.232 249.941 210.369 249.566 210.629 249.284C210.889 249.001 211.251 248.833 211.635 248.818L227.058 248.179C227.442 248.163 227.816 248.3 228.099 248.56C228.381 248.82 228.549 249.182 228.565 249.566C228.581 249.949 228.443 250.324 228.183 250.606C227.923 250.889 227.562 251.056 227.178 251.072Z" fill="white"/>
<path d="M597.152 111.556L577.134 108.931C576.707 108.875 576.297 108.724 575.936 108.488C575.575 108.252 575.272 107.937 575.05 107.567C574.831 107.206 574.695 106.8 574.655 106.38C574.614 105.959 574.67 105.535 574.817 105.139C577.785 97.0867 578.825 88.4514 577.855 79.925C577.779 79.2726 577.931 78.6141 578.287 78.0616C578.642 77.5092 579.178 77.0971 579.803 76.8955C588.677 74.0787 596.342 75.1878 602.583 80.191C602.911 80.4503 603.178 80.7779 603.366 81.1511C603.554 81.5242 603.658 81.9338 603.672 82.3514C603.932 91.5169 602.787 100.668 600.279 109.488C600.096 110.152 599.678 110.728 599.103 111.108C598.528 111.489 597.835 111.648 597.152 111.556Z" fill="#BB6BD9"/>
<path d="M598.568 98.4023L583.262 96.3949C583.074 96.3701 582.892 96.3085 582.727 96.2135C582.563 96.1185 582.418 95.992 582.302 95.8412C582.187 95.6904 582.102 95.5182 582.052 95.3346C582.003 95.1509 581.99 94.9594 582.015 94.7708C582.04 94.5823 582.101 94.4005 582.196 94.2357C582.291 94.071 582.418 93.9266 582.569 93.8108C582.719 93.6949 582.892 93.6099 583.075 93.5606C583.259 93.5113 583.45 93.4987 583.639 93.5234L598.944 95.5309C599.325 95.5808 599.67 95.78 599.904 96.0845C600.138 96.3891 600.242 96.7741 600.192 97.1549C600.142 97.5357 599.943 97.881 599.638 98.115C599.333 98.3489 598.948 98.4523 598.568 98.4023Z" fill="white"/>
<path d="M599.228 93.3672L583.923 91.3598C583.734 91.3354 583.552 91.274 583.387 91.1791C583.222 91.0842 583.077 90.9577 582.961 90.8069C582.845 90.656 582.759 90.4837 582.71 90.2998C582.661 90.116 582.648 89.9241 582.673 89.7354C582.697 89.5466 582.759 89.3645 582.854 89.1997C582.949 89.0348 583.076 88.8903 583.227 88.7745C583.378 88.6586 583.551 88.5737 583.735 88.5246C583.919 88.4755 584.111 88.4632 584.299 88.4883L599.605 90.4957C599.794 90.5201 599.976 90.5815 600.141 90.6764C600.306 90.7713 600.451 90.8978 600.567 91.0487C600.683 91.1996 600.768 91.3719 600.817 91.5557C600.867 91.7396 600.88 91.9314 600.855 92.1202C600.83 92.3089 600.768 92.491 600.673 92.6559C600.578 92.8208 600.451 92.9653 600.3 93.0811C600.149 93.1969 599.977 93.2818 599.793 93.3309C599.609 93.38 599.417 93.3924 599.228 93.3672Z" fill="white"/>
<path d="M330.516 150.353H323.851V143.688C323.851 142.088 323.216 140.555 322.085 139.424C320.954 138.293 319.42 137.657 317.821 137.657C316.221 137.657 314.688 138.293 313.557 139.424C312.426 140.555 311.79 142.088 311.79 143.688V150.353H305.125C303.526 150.353 301.992 150.989 300.861 152.119C299.73 153.25 299.095 154.784 299.095 156.384C299.095 157.983 299.73 159.517 300.861 160.648C301.992 161.779 303.526 162.414 305.125 162.414H311.79V169.08C311.79 170.679 312.426 172.213 313.557 173.344C314.688 174.475 316.221 175.11 317.821 175.11C319.42 175.11 320.954 174.475 322.085 173.344C323.216 172.213 323.851 170.679 323.851 169.08V162.414H330.516C332.116 162.414 333.65 161.779 334.781 160.648C335.912 159.517 336.547 157.983 336.547 156.384C336.547 154.784 335.912 153.25 334.781 152.119C333.65 150.989 332.116 150.353 330.516 150.353Z" fill="white"/>
<path d="M546.366 27.0008C549.876 27.0008 552.721 24.1555 552.721 20.6456C552.721 17.1358 549.876 14.2904 546.366 14.2904C542.856 14.2904 540.011 17.1358 540.011 20.6456C540.011 24.1555 542.856 27.0008 546.366 27.0008Z" fill="#3F3D56"/>
<path d="M155.973 206.647C159.483 206.647 162.328 203.802 162.328 200.292C162.328 196.782 159.483 193.937 155.973 193.937C152.463 193.937 149.618 196.782 149.618 200.292C149.618 203.802 152.463 206.647 155.973 206.647Z" fill="#3F3D56"/>
</g>
<defs>
<clipPath id="clip0_1238_302">
<rect width="628" height="396.007" fill="white"/>
</clipPath>
</defs>
</svg>
