
<svg width="582" height="364" viewBox="0 0 582 364" fill="none" xmlns="http://www.w3.org/2000/svg">
<g clip-path="url(#clip0_1238_302)">
<path d="M345.29 11.257C387.181 -11.1573 440.349 0.593381 468.538 40.3369L467.579 41.0177C439.738 1.76474 387.22 -9.83796 345.844 12.2947C342.329 14.1755 338.936 16.2759 335.685 18.5834C293.136 48.7615 283.072 107.928 313.25 150.477L312.291 151.158C281.738 108.08 291.927 48.1769 335.004 17.6239C338.296 15.2881 341.731 13.1617 345.29 11.257Z" fill="#E6E6E6"/>
<path d="M567.213 107.064L429.428 96.3449C427.29 96.176 425.305 95.1657 423.91 93.5355C422.515 91.9053 421.824 89.7884 421.988 87.6492L427.961 20.7048C428.13 18.566 429.14 16.5815 430.771 15.1866C432.401 13.7917 434.518 13.1005 436.657 13.2644L574.441 23.9835C576.58 24.1523 578.565 25.1626 579.96 26.7928C581.354 28.423 582.046 30.54 581.882 32.6792L575.908 99.6235C575.74 101.762 574.729 103.747 573.099 105.142C571.469 106.537 569.352 107.228 567.213 107.064Z" fill="#E6E6E6"/>
<path d="M534.666 91.9402C533.62 91.9402 532.571 91.8993 531.517 91.8175L442.472 84.8902C440.692 84.7517 438.956 84.2639 437.364 83.4546C435.772 82.6454 434.355 81.5304 433.194 80.1736C432.033 78.8167 431.151 77.2444 430.597 75.5464C430.044 73.8485 429.83 72.0582 429.969 70.2778L432 44.1767C432.283 40.5823 433.981 37.2473 436.721 34.9032C439.46 32.5591 443.018 31.3974 446.612 31.673L561.759 40.6309C565.353 40.9147 568.688 42.6125 571.032 45.3519C573.376 48.0914 574.537 51.6487 574.262 55.2435C573.485 65.2184 568.979 74.5345 561.641 81.3354C554.303 88.1363 544.671 91.9228 534.666 91.9402Z" fill="white"/>
<path d="M559.004 61.3804L446.125 52.599C445.89 52.5807 445.661 52.5163 445.451 52.4094C445.24 52.3025 445.053 52.1552 444.9 51.976C444.747 51.7968 444.63 51.5891 444.557 51.3648C444.484 51.1406 444.456 50.9041 444.474 50.6689C444.492 50.4338 444.557 50.2045 444.664 49.9942C444.77 49.784 444.918 49.5968 445.097 49.4435C445.276 49.2901 445.484 49.1736 445.708 49.1005C445.932 49.0274 446.169 48.9992 446.404 49.0175L559.282 57.7989C559.517 57.8172 559.747 57.8817 559.957 57.9886C560.167 58.0954 560.354 58.2427 560.508 58.4219C560.661 58.6012 560.777 58.8088 560.851 59.0331C560.924 59.2574 560.952 59.4938 560.934 59.729C560.915 59.9642 560.851 60.1934 560.744 60.4037C560.637 60.6139 560.49 60.8011 560.311 60.9545C560.131 61.1078 559.924 61.2243 559.699 61.2974C559.475 61.3705 559.239 61.3987 559.004 61.3804Z" fill="#E6E6E6"/>
<path d="M512.134 64.8531L445.575 59.6751C445.1 59.6379 444.66 59.4137 444.35 59.0518C444.041 58.6898 443.887 58.2198 443.924 57.7451C443.961 57.2703 444.185 56.8296 444.547 56.5199C444.909 56.2102 445.379 56.0568 445.853 56.0935L512.412 61.2715C512.647 61.2896 512.877 61.354 513.087 61.4608C513.298 61.5677 513.485 61.7149 513.638 61.8942C513.792 62.0734 513.909 62.2812 513.982 62.5055C514.055 62.7299 514.083 62.9664 514.065 63.2017C514.046 63.437 513.982 63.6663 513.875 63.8767C513.768 64.087 513.621 64.2742 513.441 64.4276C513.262 64.5809 513.054 64.6975 512.83 64.7705C512.605 64.8435 512.369 64.8716 512.134 64.8531Z" fill="#E6E6E6"/>
<path d="M526.795 73.1128L445.024 66.7513C444.789 66.7332 444.56 66.6688 444.349 66.562C444.139 66.4551 443.952 66.3079 443.798 66.1286C443.645 65.9494 443.528 65.7416 443.455 65.5173C443.382 65.2929 443.353 65.0564 443.372 64.8211C443.39 64.5858 443.455 64.3565 443.561 64.1461C443.668 63.9358 443.816 63.7486 443.995 63.5952C444.175 63.4419 444.382 63.3253 444.607 63.2523C444.831 63.1793 445.068 63.1512 445.303 63.1696L527.074 69.5311C527.549 69.5683 527.989 69.7925 528.299 70.1545C528.608 70.5164 528.761 70.9864 528.725 71.4612C528.688 71.9359 528.464 72.3766 528.102 72.6863C527.74 72.996 527.27 73.1494 526.795 73.1128Z" fill="#E6E6E6"/>
<path d="M557.993 197.94L420.208 187.221C418.07 187.052 416.085 186.042 414.69 184.411C413.295 182.781 412.604 180.664 412.768 178.525L418.741 111.581C418.91 109.442 419.92 107.457 421.551 106.063C423.181 104.668 425.298 103.976 427.437 104.14L565.221 114.859C567.36 115.028 569.345 116.039 570.739 117.669C572.134 119.299 572.826 121.416 572.662 123.555L566.688 190.499C566.52 192.638 565.509 194.623 563.879 196.018C562.249 197.413 560.132 198.104 557.993 197.94Z" fill="#E6E6E6"/>
<path d="M525.411 182.815C524.38 182.815 523.342 182.774 522.298 182.693L433.252 175.766C431.472 175.628 429.736 175.14 428.144 174.331C426.552 173.521 425.135 172.406 423.974 171.05C422.813 169.693 421.931 168.12 421.377 166.422C420.824 164.724 420.61 162.934 420.749 161.154L422.779 135.053C422.918 133.272 423.406 131.537 424.215 129.945C425.024 128.353 426.139 126.936 427.496 125.775C428.853 124.613 430.426 123.731 432.124 123.178C433.822 122.624 435.612 122.411 437.393 122.549L552.538 131.507C554.319 131.646 556.055 132.133 557.647 132.943C559.239 133.752 560.655 134.867 561.817 136.224C562.978 137.581 563.86 139.153 564.413 140.851C564.967 142.549 565.18 144.339 565.042 146.12C564.253 156.096 559.738 165.41 552.395 172.21C545.052 179.009 535.418 182.795 525.411 182.815Z" fill="white"/>
<path d="M549.784 152.256L436.905 143.475C436.67 143.457 436.441 143.392 436.231 143.285C436.02 143.178 435.833 143.031 435.68 142.852C435.527 142.673 435.41 142.465 435.337 142.241C435.264 142.017 435.236 141.78 435.254 141.545C435.272 141.31 435.337 141.08 435.444 140.87C435.55 140.66 435.698 140.473 435.877 140.319C436.056 140.166 436.264 140.05 436.488 139.976C436.712 139.903 436.949 139.875 437.184 139.893L550.062 148.675C550.297 148.693 550.527 148.758 550.737 148.865C550.947 148.971 551.134 149.119 551.288 149.298C551.441 149.477 551.557 149.685 551.631 149.909C551.704 150.133 551.732 150.37 551.714 150.605C551.695 150.84 551.631 151.069 551.524 151.28C551.417 151.49 551.27 151.677 551.091 151.83C550.911 151.984 550.704 152.1 550.479 152.173C550.255 152.247 550.019 152.275 549.784 152.256Z" fill="#E6E6E6"/>
<path d="M502.914 155.729L436.355 150.551C436.12 150.533 435.89 150.469 435.68 150.362C435.469 150.255 435.282 150.108 435.129 149.928C434.975 149.749 434.859 149.541 434.785 149.317C434.712 149.093 434.684 148.856 434.702 148.621C434.721 148.386 434.785 148.156 434.892 147.946C434.999 147.736 435.146 147.548 435.326 147.395C435.505 147.242 435.713 147.125 435.937 147.052C436.162 146.979 436.398 146.951 436.633 146.969L503.192 152.147C503.667 152.185 504.107 152.409 504.417 152.771C504.726 153.133 504.88 153.603 504.843 154.077C504.806 154.552 504.582 154.993 504.22 155.303C503.858 155.612 503.388 155.766 502.914 155.729Z" fill="#E6E6E6"/>
<path d="M517.575 163.989L435.804 157.627C435.329 157.59 434.889 157.366 434.579 157.004C434.269 156.642 434.116 156.172 434.153 155.697C434.19 155.222 434.414 154.781 434.776 154.472C435.138 154.162 435.608 154.009 436.083 154.046L517.854 160.407C518.329 160.444 518.77 160.668 519.08 161.03C519.389 161.392 519.543 161.862 519.506 162.337C519.469 162.812 519.245 163.253 518.883 163.563C518.521 163.872 518.05 164.026 517.575 163.989Z" fill="#E6E6E6"/>
<path d="M207.509 162.963C205.76 159 204.809 154.731 204.71 150.399C204.611 146.068 205.366 141.76 206.932 137.721C208.498 133.681 210.844 129.99 213.836 126.858C216.829 123.725 220.409 121.212 224.372 119.463C228.336 117.714 232.605 116.763 236.936 116.664C241.267 116.565 245.576 117.32 249.615 118.886C253.654 120.452 257.346 122.798 260.478 125.791C263.611 128.783 266.123 132.363 267.872 136.327L266.796 136.802C265.109 132.98 262.686 129.527 259.665 126.642C256.645 123.756 253.085 121.493 249.19 119.983C245.294 118.473 241.14 117.745 236.963 117.841C232.787 117.936 228.67 118.853 224.848 120.54C221.025 122.227 217.573 124.649 214.687 127.67C211.801 130.691 209.539 134.251 208.029 138.146C206.519 142.041 205.791 146.196 205.886 150.372C205.982 154.549 206.899 158.666 208.586 162.488L207.509 162.963Z" fill="#E6E6E6"/>
<path d="M549.459 346.939C562.929 340.556 572.961 327.715 571.396 313.602C559.312 323.387 542.86 328.851 525.876 328.72C519.261 328.67 511.852 327.997 507.045 331.708C504.054 334.018 502.704 337.686 502.534 341.341C502.363 344.996 503.25 348.695 504.131 352.346L503.863 353.212C519.678 354.218 535.989 353.322 549.459 346.939Z" fill="#F2F2F2"/>
<path d="M571.065 313.567C565.855 323.732 556.823 332.204 545.598 337.164C543.138 338.311 540.52 339.081 537.83 339.446C535.092 339.732 532.324 339.37 529.751 338.39C527.311 337.514 524.906 336.374 522.319 336.027C521.052 335.851 519.763 335.931 518.528 336.264C517.293 336.597 516.138 337.176 515.132 337.965C512.741 339.824 511.315 342.397 510.023 344.964C508.588 347.813 507.15 350.797 504.341 352.739C504 352.975 504.474 353.464 504.814 353.229C509.702 349.85 510.408 343.741 514.292 339.648C515.205 338.615 516.341 337.802 517.613 337.27C518.886 336.738 520.262 336.501 521.639 336.577C524.28 336.772 526.76 337.945 529.224 338.85C531.728 339.839 534.416 340.28 537.105 340.143C539.816 339.905 542.471 339.229 544.967 338.144C550.395 335.885 555.419 332.759 559.843 328.888C564.731 324.661 568.766 319.538 571.732 313.796C571.912 313.445 571.244 313.218 571.065 313.567Z" fill="white"/>
<path d="M549.358 335.731C550.776 337.404 552.68 338.593 554.805 339.133C556.931 339.674 559.172 339.538 561.216 338.745C561.608 338.58 561.288 338.006 560.896 338.171C558.993 338.912 556.907 339.038 554.929 338.532C552.951 338.025 551.182 336.912 549.87 335.348C549.594 335.012 549.084 335.398 549.358 335.731Z" fill="white"/>
<path d="M530.935 338.975C531.196 336.989 531.875 335.081 532.926 333.377C533.977 331.672 535.378 330.21 537.035 329.086C537.374 328.849 536.9 328.36 536.561 328.596C534.839 329.769 533.386 331.294 532.296 333.07C531.206 334.846 530.505 336.833 530.239 338.899C530.19 339.293 530.887 339.366 530.935 338.975Z" fill="white"/>
<path d="M563.932 324.229C563.284 323.731 562.774 323.076 562.45 322.326C562.127 321.576 562 320.756 562.083 319.943C562.137 319.55 561.44 319.478 561.386 319.868C561.299 320.766 561.44 321.671 561.795 322.501C562.151 323.33 562.71 324.056 563.42 324.613C563.484 324.676 563.568 324.715 563.657 324.725C563.747 324.735 563.837 324.714 563.913 324.666C563.946 324.64 563.973 324.608 563.992 324.571C564.011 324.534 564.022 324.493 564.024 324.452C564.026 324.41 564.018 324.369 564.002 324.33C563.986 324.292 563.962 324.257 563.932 324.229Z" fill="white"/>
<path d="M526.955 283.763C526.914 284.006 526.872 284.25 526.826 284.496C526.249 287.765 525.369 290.972 524.195 294.077C524.109 294.319 524.017 294.562 523.923 294.8C520.956 302.317 516.444 309.128 510.679 314.791C508.33 317.105 505.797 319.224 503.104 321.127C499.351 323.783 495.019 326.378 492.643 329.956C492.391 330.325 492.166 330.711 491.968 331.112L502.67 352.765C502.721 352.805 502.767 352.847 502.818 352.888L503.202 353.767C503.351 353.677 503.503 353.581 503.652 353.491C503.738 353.439 503.823 353.382 503.909 353.33C503.966 353.294 504.023 353.258 504.077 353.229C504.096 353.217 504.115 353.205 504.129 353.194C504.183 353.165 504.229 353.132 504.277 353.104C505.128 352.569 505.975 352.027 506.82 351.478C506.825 351.476 506.825 351.476 506.828 351.469C513.247 347.272 519.284 342.529 524.244 337.057C524.394 336.892 524.548 336.726 524.692 336.551C526.897 334.092 528.872 331.436 530.591 328.616C531.518 327.083 532.355 325.497 533.098 323.867C535.006 319.655 536.136 315.134 536.435 310.52C537.039 301.278 534.298 291.722 527.482 284.324C527.307 284.135 527.135 283.95 526.955 283.763Z" fill="#F2F2F2"/>
<path d="M526.682 283.91C529.662 295.341 528.635 307.397 523.588 317.655C522.539 319.933 521.093 322.007 519.318 323.779C517.416 325.521 515.079 326.717 512.554 327.239C510.134 327.812 507.562 328.141 505.391 329.242C504.325 329.776 503.401 330.554 502.693 331.513C501.986 332.472 501.516 333.585 501.321 334.761C500.79 337.626 501.464 340.577 502.234 343.451C503.088 346.642 504.032 349.948 503.243 353.11C503.148 353.493 503.834 353.652 503.929 353.27C505.302 347.769 501.694 342.206 501.832 336.641C501.896 334.044 502.842 331.514 505.254 330.074C507.362 328.816 510.014 328.474 512.471 327.914C514.953 327.432 517.279 326.349 519.247 324.761C521.121 323.089 522.66 321.075 523.78 318.827C526.348 313.874 527.999 308.497 528.652 302.956C529.435 296.527 528.989 290.007 527.336 283.745C527.233 283.35 526.579 283.518 526.682 283.91Z" fill="white"/>
<path d="M525.434 314.413C529.836 315.792 534.507 314.142 536.353 310.576C536.534 310.225 535.906 309.91 535.724 310.262C533.994 313.602 529.672 315.101 525.557 313.812C525.124 313.676 525.003 314.278 525.434 314.413Z" fill="white"/>
<path d="M513.836 327.096C512.709 325.396 511.94 323.484 511.574 321.477C511.208 319.469 511.254 317.409 511.709 315.42C511.803 315.036 511.117 314.877 511.023 315.26C510.554 317.331 510.511 319.476 510.896 321.564C511.281 323.652 512.087 325.641 513.264 327.408C513.495 327.768 514.066 327.454 513.836 327.096Z" fill="white"/>
<path d="M528.559 296.8C527.694 296.702 526.862 296.415 526.121 295.959C525.381 295.503 524.749 294.889 524.273 294.161C524.048 293.799 523.477 294.113 523.701 294.473C524.23 295.275 524.928 295.952 525.746 296.458C526.563 296.964 527.481 297.285 528.435 297.401C528.625 297.424 528.802 297.357 528.84 297.18C528.851 297.093 528.827 297.005 528.775 296.934C528.723 296.863 528.645 296.815 528.559 296.8Z" fill="white"/>
<path d="M549.673 193.202L541.486 149.619L525.415 128.464L513.504 136.251C515.187 145.38 527.918 162.421 527.918 162.421L539.202 196.127C539.157 196.302 539.115 196.479 539.085 196.661C538.906 197.727 539.005 198.822 539.373 199.839C539.74 200.855 540.364 201.76 541.183 202.466C542.003 203.171 542.991 203.653 544.051 203.865C545.111 204.077 546.208 204.012 547.236 203.676C548.264 203.341 549.188 202.745 549.918 201.948C550.649 201.151 551.161 200.179 551.406 199.126C551.651 198.073 551.621 196.974 551.317 195.936C551.013 194.899 550.447 193.957 549.673 193.202Z" fill="#FFB8B8"/>
<path d="M513.824 140.856L527.308 129.912L527.334 129.854C529.856 124.139 524.256 114.339 519.114 107.125C517.417 104.747 514.88 103.103 512.017 102.525C509.154 101.946 506.177 102.476 503.69 104.008C501.863 105.15 500.391 106.781 499.442 108.715C498.493 110.65 498.104 112.812 498.319 114.956L499.453 125.874L513.824 140.856Z" fill="#3F3D56"/>
<path d="M466.166 357.752L457.194 357.751L452.926 323.144L466.168 323.145L466.166 357.752Z" fill="#FFB8B8"/>
<path d="M468.455 354.822L465.93 354.822L456.07 350.812L450.786 354.821H450.785C447.799 354.822 444.935 356.008 442.823 358.12C440.711 360.231 439.525 363.095 439.525 366.082V366.447L468.455 366.449L468.455 354.822Z" fill="#2F2E41"/>
<path d="M505.977 357.752L497.005 357.751L492.737 323.144L505.979 323.145L505.977 357.752Z" fill="#FFB8B8"/>
<path d="M508.266 354.822L505.741 354.822L495.881 350.812L490.597 354.821H490.596C487.61 354.822 484.746 356.008 482.634 358.12C480.522 360.231 479.336 363.095 479.336 366.082V366.447L508.265 366.449L508.266 354.822Z" fill="#2F2E41"/>
<path d="M519.658 208.688C519.658 208.688 520.706 221.26 518.086 233.308C515.467 245.356 515.467 279.287 515.467 279.287L509.705 345.407L492.419 343.836L487.705 233.308L470.942 270.5L472.514 275.738L470.42 277.048C470.42 277.048 471.99 287.262 470.942 287.262C469.894 287.262 467.275 288.834 467.275 288.834L469.371 342.788L451.56 342.264L445.275 266.309L452.084 222.832L452.608 214.45L454.965 214.547L456.166 211.046L458.37 205.022L519.658 208.688Z" fill="#2F2E41"/>
<path d="M520.563 211.329L520.657 211.198C525.643 204.217 518.144 187.443 517.013 185.012L521.776 183.466L520.704 174.347L520.195 170.282L523.836 166.641L523.847 166.55L525.942 148.216L528.988 136.039C530.136 131.435 530.039 126.61 528.705 122.056C527.372 117.503 524.85 113.387 521.4 110.13L514.358 103.491L505.8 90.8275H491.999L487.267 99.7658C482.679 100.826 478.609 103.462 475.765 107.215C472.921 110.968 471.483 115.6 471.703 120.303L472.776 143.746L468.577 172.934L468.575 178.216L463.85 183.467L464.881 188.626L461.286 190.167L459.698 197.576C459.041 198.443 454.703 204.226 454.703 205.807C454.703 206.045 454.879 206.274 455.255 206.529C458.21 208.53 474.547 212.61 481.778 209.717C489.48 206.638 520.096 211.257 520.404 211.304L520.563 211.329Z" fill="#3F3D56"/>
<path d="M497.117 86.7397C507.211 86.7397 515.395 78.5564 515.395 68.4619C515.395 58.3673 507.211 50.1841 497.117 50.1841C487.022 50.1841 478.839 58.3673 478.839 68.4619C478.839 78.5564 487.022 86.7397 497.117 86.7397Z" fill="#FFB8B8"/>
<path d="M495.366 87.0356C498.197 87.0067 501.02 86.736 503.804 86.2266C506.561 85.5915 512.643 80.8883 514.301 78.1098C515.532 76.0455 516.272 72.8524 516.675 70.5374C517.22 67.4736 517.115 64.3296 516.367 61.309C515.619 58.2883 514.245 55.4584 512.334 53.0025C511.598 51.9736 510.597 51.163 509.437 50.6563C509.335 50.6192 509.229 50.5867 509.123 50.5593C507.442 50.1632 505.918 49.2737 504.747 48.0052C504.519 47.7483 504.274 47.5082 504.012 47.2867C502.697 46.2344 501.153 45.508 499.504 45.1671C496.84 44.5274 493.03 45.329 488.179 47.5517C485.742 48.6684 483.037 48.3568 480.953 47.9606C480.836 47.9412 480.716 47.9527 480.605 47.994C480.494 48.0352 480.395 48.1049 480.319 48.196C479.459 49.0468 478.308 49.5404 477.098 49.5774C476.358 49.6291 475.607 50.6752 474.702 52.0374C474.496 52.3467 474.257 52.7076 474.083 52.9278L474.048 52.5142L473.641 52.9871C473.001 53.7304 472.559 54.6235 472.357 55.5835C472.155 56.5434 472.199 57.5388 472.486 58.477C472.772 59.4152 473.291 60.2658 473.994 60.9494C474.698 61.633 475.563 62.1275 476.509 62.3868C477.259 62.5659 478.026 62.6679 478.798 62.6912C479.265 62.7211 479.749 62.7521 480.213 62.8204C481.705 63.086 483.103 63.7339 484.27 64.7009C485.437 65.6679 486.333 66.9209 486.871 68.3377C486.998 68.6651 487.198 68.9589 487.457 69.1965C487.715 69.4341 488.025 69.6091 488.362 69.708C488.699 69.8068 489.054 69.8269 489.4 69.7667C489.746 69.7065 490.074 69.5676 490.358 69.3608C490.83 68.9732 491.388 68.7056 491.986 68.5807C492.584 68.4558 493.203 68.4774 493.791 68.6436C494.302 68.9107 494.706 69.3455 494.934 69.8749C495.211 70.4641 495.656 70.9577 496.214 71.2926C498.117 72.2124 498.357 76.4984 497.775 80.0915C497.214 83.555 495.993 86.0815 494.807 86.2355C493.893 86.3539 493.79 86.4217 493.728 86.5854L493.672 86.732L493.779 86.865C494.289 87.0353 494.831 87.0935 495.366 87.0356Z" fill="#2F2E41"/>
<path d="M294.493 181.248C314.566 181.248 330.837 164.976 330.837 144.904C330.837 124.831 314.566 108.56 294.493 108.56C274.421 108.56 258.15 124.831 258.15 144.904C258.15 164.976 274.421 181.248 294.493 181.248Z" fill="#BB6BD9"/>
<path d="M491.156 139.495L479.168 131.828C471.534 137.108 461.217 155.71 461.217 155.71L435.105 179.833C434.018 180.02 432.998 180.49 432.15 181.196C431.301 181.902 430.654 182.818 430.272 183.854C429.891 184.89 429.789 186.008 429.977 187.095C430.165 188.183 430.636 189.202 431.343 190.049C432.05 190.897 432.967 191.543 434.004 191.924C435.04 192.304 436.158 192.404 437.245 192.215C438.332 192.026 439.351 191.553 440.197 190.846C441.044 190.138 441.69 189.219 442.069 188.183L478.459 162.832L491.156 139.495Z" fill="#FFB8B8"/>
<path d="M490.013 142.606L497.998 123.443L495.11 112.853C494.535 110.776 493.391 108.901 491.807 107.44C490.223 105.979 488.262 104.99 486.145 104.586C483.272 104.056 480.305 104.637 477.845 106.212C475.384 107.786 473.613 110.236 472.89 113.066C470.703 121.652 469.023 132.813 473.44 137.23L473.485 137.274L490.013 142.606Z" fill="#3F3D56"/>
<path d="M25.0323 355.848C9.40282 347.826 -1.93672 332.323 0.434037 315.756C14.3042 327.735 33.4813 334.786 53.4942 335.266C61.2889 335.453 70.0416 334.937 75.5659 339.49C79.0033 342.322 80.4558 346.693 80.5202 351.005C80.5844 355.318 79.4024 359.642 78.2281 363.911L78.5114 364.94C59.843 365.535 40.6618 363.87 25.0323 355.848Z" fill="#F2F2F2"/>
<path d="M0.826065 315.727C6.58351 327.897 16.9073 338.215 29.9456 344.476C32.8001 345.92 35.8563 346.924 39.0108 347.455C42.2265 347.894 45.5005 347.571 48.5684 346.512C51.475 345.572 54.3504 344.319 57.4113 344.007C58.9102 343.846 60.4261 343.989 61.8685 344.427C63.3108 344.866 64.6499 345.59 65.8057 346.558C68.5526 348.838 70.1365 351.922 71.563 354.994C73.1468 358.404 74.729 361.973 77.9661 364.366C78.3584 364.656 77.7816 365.214 77.39 364.925C71.7579 360.762 71.1551 353.538 66.7323 348.572C64.6685 346.255 61.7568 344.53 58.1914 344.68C55.0737 344.81 52.1074 346.101 49.1718 347.075C46.1845 348.146 43.0021 348.565 39.8392 348.303C36.6541 347.921 33.5517 347.027 30.6518 345.655C24.3426 342.791 18.5408 338.921 13.4732 334.195C7.87279 329.033 3.31044 322.848 0.0316683 315.973C-0.167212 315.552 0.628479 315.31 0.826065 315.727Z" fill="white"/>
<path d="M25.5694 342.648C22.1432 346.556 16.1128 347.877 11.4874 345.756C11.0318 345.547 11.4303 344.882 11.8866 345.092C14.1 346.036 16.5536 346.262 18.9025 345.74C21.2513 345.217 23.3772 343.971 24.9812 342.177C25.3182 341.793 25.9046 342.266 25.5694 342.648Z" fill="white"/>
<path d="M47.1509 347.157C46.9177 344.808 46.1897 342.535 45.0149 340.488C43.84 338.441 42.2449 336.666 40.3346 335.28C39.9437 334.988 40.5203 334.43 40.9108 334.72C42.8956 336.167 44.5513 338.018 45.7688 340.15C46.9863 342.283 47.738 344.65 47.9743 347.095C48.0164 347.56 47.1928 347.62 47.1509 347.157Z" fill="white"/>
<path d="M8.83102 328.554C9.61267 327.992 10.2377 327.239 10.6469 326.368C11.0561 325.496 11.2358 324.535 11.1691 323.574C11.1203 323.109 11.944 323.05 11.9925 323.512C12.0614 324.573 11.8618 325.634 11.4121 326.598C10.9623 327.562 10.277 328.396 9.41931 329.025C9.34148 329.097 9.24159 329.141 9.13588 329.149C9.03018 329.157 8.92487 329.129 8.83709 329.069C8.79917 329.038 8.76853 328.999 8.7473 328.955C8.72607 328.91 8.71477 328.862 8.71419 328.813C8.71361 328.764 8.72377 328.715 8.74395 328.671C8.76414 328.626 8.79385 328.586 8.83102 328.554Z" fill="white"/>
<path d="M53.9014 282.264C53.9412 282.553 53.981 282.842 54.0269 283.133C54.5838 287.005 55.5014 290.817 56.7677 294.518C56.8603 294.806 56.9592 295.096 57.0611 295.38C60.2759 304.346 65.337 312.538 71.917 319.425C74.5973 322.239 77.5024 324.829 80.6035 327.171C84.926 330.44 89.9324 333.659 92.5969 337.963C92.8799 338.407 93.1311 338.871 93.3489 339.35L79.9335 364.458C79.8718 364.503 79.8162 364.552 79.7543 364.597L79.2686 365.618C79.0967 365.507 78.9214 365.388 78.7496 365.276C78.6495 365.212 78.5524 365.142 78.4524 365.078C78.3866 365.033 78.321 364.989 78.2585 364.952C78.2366 364.937 78.2148 364.922 78.199 364.91C78.1365 364.873 78.0834 364.833 78.0271 364.798C77.045 364.135 76.0669 363.465 75.0929 362.787C75.0867 362.785 75.0867 362.785 75.0834 362.777C67.6783 357.592 60.7435 351.78 55.1047 345.148C54.9351 344.948 54.7592 344.747 54.5957 344.536C52.0903 341.556 49.8634 338.353 47.9429 334.967C46.9087 333.126 45.9819 331.227 45.1671 329.279C43.077 324.246 41.9143 318.877 41.7351 313.431C41.3682 302.522 44.9546 291.366 53.2601 282.906C53.4727 282.689 53.6825 282.478 53.9014 282.264Z" fill="#F2F2F2"/>
<path d="M54.2183 282.449C50.2798 295.803 51.0395 310.044 56.602 322.317C57.7535 325.039 59.3795 327.536 61.4043 329.69C63.579 331.813 66.2877 333.309 69.2435 334.019C72.0718 334.784 75.0896 335.268 77.6069 336.646C78.8423 337.314 79.9021 338.265 80.6994 339.422C81.4968 340.578 82.0091 341.907 82.1946 343.299C82.7135 346.695 81.8094 350.146 80.7951 353.502C79.669 357.229 78.4339 361.089 79.2451 364.843C79.3434 365.298 78.529 365.46 78.4309 365.006C77.0196 358.474 81.4775 352.056 81.523 345.495C81.5443 342.433 80.5241 339.417 77.7372 337.632C75.3001 336.07 72.1889 335.569 69.3157 334.817C66.4097 334.156 63.7096 332.794 61.4511 330.85C59.3055 328.81 57.5683 326.38 56.3325 323.69C53.4922 317.759 51.7487 311.363 51.1862 304.811C50.503 297.208 51.2724 289.545 53.4533 282.23C53.5893 281.768 54.3534 281.99 54.2183 282.449Z" fill="white"/>
<path d="M54.5491 318.428C49.3114 319.888 43.8712 317.77 41.8298 313.501C41.6287 313.08 42.3809 312.733 42.5823 313.154C44.4947 317.154 49.5302 319.08 54.4263 317.715C54.9415 317.572 55.0614 318.285 54.5491 318.428Z" fill="white"/>
<path d="M67.7374 333.803C69.1287 331.841 70.107 329.618 70.6127 327.267C71.1185 324.916 71.1413 322.487 70.6797 320.127C70.5833 319.672 71.3976 319.509 71.4939 319.964C71.9689 322.421 71.9396 324.95 71.4077 327.395C70.8759 329.841 69.8526 332.153 68.4 334.191C68.115 334.607 67.4539 334.216 67.7374 333.803Z" fill="white"/>
<path d="M51.5257 297.563C52.5476 297.48 53.5387 297.173 54.4284 296.663C55.3181 296.153 56.0844 295.454 56.6728 294.614C56.9521 294.196 57.6128 294.587 57.3354 295.003C56.6814 295.928 55.8341 296.7 54.8521 297.265C53.8701 297.83 52.777 298.175 51.6485 298.275C51.4245 298.295 51.2187 298.21 51.18 298C51.1708 297.897 51.2015 297.794 51.2658 297.713C51.3301 297.631 51.4231 297.578 51.5257 297.563Z" fill="white"/>
<path d="M101.184 156.429L102.362 167.349L101.669 181.668L133.385 177.9L136.366 156.429L132.568 156.466L101.184 156.429Z" fill="#FFB6B6"/>
<path d="M84.7334 354.684H91.6676L94.968 327.937H84.7334V354.684Z" fill="#FFB6B6"/>
<path d="M82.4704 349.934L93.5487 349.273V354.019L104.081 361.293C104.601 361.653 104.993 362.169 105.199 362.766C105.405 363.364 105.415 364.012 105.227 364.615C105.039 365.219 104.663 365.747 104.154 366.121C103.644 366.496 103.029 366.698 102.396 366.698H89.2073L86.934 362.003L86.0464 366.698H81.0735L82.4704 349.934Z" fill="#2F2E41"/>
<path d="M123.684 354.684H130.618L133.918 327.937H123.684V354.684Z" fill="#FFB6B6"/>
<path d="M121.421 349.934L132.499 349.273V354.019L143.032 361.293C143.552 361.653 143.944 362.169 144.15 362.766C144.356 363.364 144.366 364.012 144.178 364.615C143.99 365.219 143.613 365.747 143.104 366.121C142.595 366.496 141.979 366.698 141.347 366.698H128.158L125.885 362.003L124.997 366.698H120.024L121.421 349.934Z" fill="#2F2E41"/>
<path d="M81.7416 331.619H81.817L83.1506 288.13C82.2875 286.465 81.8496 284.613 81.8756 282.738C81.9016 280.863 82.3909 279.024 83.2998 277.384L83.4907 277.038L82.9956 274.744C82.3598 271.795 82.6516 268.723 83.8309 265.947L85.075 225.38C80.6304 196.575 101.812 177.789 101.812 177.789H133.543L140.356 201.194C144.859 245.07 144.042 287.827 136.896 329.25L137.091 329.349C137.792 329.591 138.093 330.562 137.763 331.519C137.433 332.476 136.596 333.055 135.895 332.813L119.137 332.23C118.435 331.988 118.134 331.016 118.465 330.059C118.795 329.103 119.631 328.524 120.333 328.766L121.472 329.342L119.042 287.377L119.312 279.712L118.756 271.016L116.188 231.902L106.465 280.001L96.5339 332.103C96.8078 332.351 97.0001 332.676 97.0853 333.035C97.1705 333.395 97.1447 333.772 97.0113 334.117C96.8778 334.461 96.643 334.757 96.3379 334.966C96.0327 335.174 95.6715 335.285 95.302 335.284H81.7416C81.5007 335.284 81.262 335.237 81.0393 335.145C80.8166 335.053 80.6142 334.918 80.4437 334.748C80.2731 334.578 80.1379 334.376 80.0456 334.153C79.9533 333.931 79.9058 333.692 79.9058 333.451C79.9058 333.21 79.9533 332.972 80.0456 332.749C80.1379 332.527 80.2731 332.324 80.4437 332.154C80.6142 331.984 80.8166 331.849 81.0393 331.757C81.262 331.665 81.5007 331.618 81.7416 331.619Z" fill="#2F2E41"/>
<path d="M106.722 100.55C116.122 100.55 123.742 92.9304 123.742 83.5307C123.742 74.131 116.122 66.5111 106.722 66.5111C97.3227 66.5111 89.7028 74.131 89.7028 83.5307C89.7028 92.9304 97.3227 100.55 106.722 100.55Z" fill="#FFB6B6"/>
<path d="M32.1432 162.161C34.5353 156.607 37.82 151.483 41.8672 146.991C38.44 152.453 36.4814 158.708 36.181 165.149C37.4218 165.924 38.72 166.603 40.0644 167.18C44.1045 168.874 48.4121 169.842 52.7888 170.039C55.1478 162.179 59.2194 154.941 64.7107 148.843C60.7532 155.154 58.7631 162.5 58.9936 169.946C63.8753 169.524 68.6851 168.493 73.311 166.877C80.2567 164.488 86.9986 160.92 91.8019 155.369C97.0004 149.362 99.5625 141.435 100.39 133.532C101.217 125.636 100.439 117.665 99.6551 109.762C99.2847 105.996 102.421 101.662 102.051 97.8962H101.804C100.155 95.6365 98.4759 93.3213 97.6672 90.6418C96.8645 87.9685 97.0744 84.8136 98.9204 82.7082C99.9547 81.6082 101.26 80.7992 102.705 80.3622C102.841 80.1893 102.989 80.0226 103.143 79.8559C105.939 76.8866 109.229 74.4257 112.867 72.583C110.243 74.5648 108.49 76.806 107.675 79.1212C109.947 78.6211 112.219 78.1231 114.491 77.6271C115.25 76.8217 116.05 76.0551 116.887 75.3304C118.103 74.2747 118.504 74.1944 119.955 73.2004C118.784 74.2308 117.876 75.5263 117.306 76.9788C120.227 76.2441 123.147 75.139 124.666 72.6262C127.185 68.4711 124.19 62.8652 120.011 60.3833C116.97 58.6657 113.467 57.9473 109.996 58.3295C106.525 58.7117 103.262 60.1753 100.668 62.5133C94.6234 58.0619 86.0169 58.136 79.2935 61.4637C74.8549 63.759 71.0313 67.085 68.1434 71.163C69.8186 70.948 71.5049 70.8305 73.1937 70.8111C70.8164 71.159 68.5526 72.0552 66.5814 73.4288C65.7093 74.7828 64.9097 76.1822 64.1859 77.6209C63.7105 78.5655 63.2619 79.5225 62.84 80.4918C60.2531 86.3817 58.5676 92.6544 56.8204 98.8531C54.783 106.077 52.5975 113.349 48.7819 119.814C42.9319 129.643 33.7033 137.006 22.8206 140.527C21.913 148.695 25.9013 156.684 32.1432 162.161Z" fill="#2F2E41"/>
<path d="M123.862 111.932L120.558 110.692L116.393 103.956L101.556 105.169L97.9494 112.391L89.2617 119.025L93.061 139.034L98.9637 163.34L138.477 158.401L138.435 140.104C138.435 140.104 145.575 125.649 134.041 120.232L123.862 111.932Z" fill="#BB6BD9"/>
<path d="M184.767 175.398C184 175.706 183.175 175.842 182.35 175.797C181.524 175.751 180.719 175.525 179.991 175.135C179.262 174.744 178.628 174.199 178.133 173.537C177.638 172.875 177.294 172.113 177.126 171.303L133.069 144.645L141.122 135.354L181.896 164.48C183.274 164.287 184.675 164.606 185.834 165.377C186.992 166.149 187.827 167.318 188.181 168.664C188.535 170.01 188.383 171.438 187.754 172.68C187.125 173.921 186.062 174.888 184.767 175.398Z" fill="#FFB6B6"/>
<path d="M118.389 132.003C118.389 132.003 116.283 134.122 121.566 137.605C125.796 140.394 144.661 154.175 151.348 156.354C151.264 157.337 151.51 158.319 152.046 159.146C152.582 159.974 153.378 160.599 154.309 160.924L160.364 147.618C159.053 144.576 156.957 145.281 155.853 145.97L148.541 140.471L130.583 122.539L119.883 130.445L118.389 132.003Z" fill="#BB6BD9"/>
<path d="M100.776 62.9763C98.7299 65.995 97.4084 69.445 96.9138 73.0579C96.4192 76.6707 96.7649 80.349 97.9241 83.8064" fill="#FD6584"/>
<path d="M77.2427 207.145C76.8318 207.29 76.4952 207.592 76.3065 207.984C76.1178 208.377 76.0926 208.828 76.2363 209.24L99.2054 275.441C99.3501 275.852 99.6519 276.189 100.044 276.377C100.437 276.566 100.888 276.591 101.3 276.447L234.949 229.556C235.36 229.411 235.697 229.109 235.885 228.716C236.074 228.324 236.099 227.872 235.955 227.461L212.986 161.26C212.842 160.849 212.54 160.512 212.147 160.323C211.754 160.135 211.303 160.11 210.892 160.253L77.2427 207.145Z" fill="#E6E6E6"/>
<path d="M111.071 266.893C108.441 266.892 105.875 266.077 103.727 264.559C101.579 263.041 99.9537 260.896 99.0742 258.417L86.4602 222.728C85.3367 219.549 85.522 216.055 86.9751 213.012C88.4283 209.97 91.0304 207.63 94.209 206.507L161.757 182.633C174.401 178.179 188.296 178.923 200.392 184.702C212.489 190.48 221.799 200.821 226.281 213.456C227.404 216.634 227.219 220.129 225.766 223.171C224.312 226.213 221.71 228.554 218.532 229.677L115.295 266.166C113.938 266.646 112.51 266.892 111.071 266.893Z" fill="white"/>
<path d="M200.647 196.542L140.164 217.762C139.312 218.061 138.256 217.263 137.805 215.978C137.354 214.694 137.68 213.41 138.532 213.111L199.015 191.89C199.867 191.591 200.923 192.39 201.374 193.674C201.825 194.959 201.5 196.244 200.647 196.542Z" fill="#E6E6E6"/>
<path d="M205.325 209.876L144.842 231.097C143.99 231.396 142.934 230.597 142.483 229.312C142.033 228.028 142.358 226.744 143.21 226.445L203.693 205.224C204.545 204.925 205.601 205.724 206.052 207.009C206.503 208.293 206.177 209.577 205.325 209.876Z" fill="#E6E6E6"/>
<path d="M131.98 225.017C132.63 226.847 132.945 228.779 132.912 230.721C132.899 231.609 132.811 232.495 132.649 233.369C132.134 236.192 130.882 238.828 129.02 241.012C127.159 243.196 124.754 244.849 122.049 245.806C119.343 246.762 116.433 246.987 113.613 246.458C110.793 245.929 108.162 244.664 105.987 242.792C105.767 242.604 105.554 242.41 105.346 242.21C103.569 240.508 102.202 238.426 101.345 236.12C100.489 233.813 100.165 231.343 100.4 228.894C100.634 226.445 101.42 224.081 102.699 221.979C103.977 219.878 105.715 218.093 107.782 216.758C109.849 215.424 112.191 214.575 114.633 214.275C117.075 213.976 119.553 214.233 121.881 215.027C124.21 215.822 126.328 217.134 128.077 218.864C129.826 220.594 131.16 222.698 131.98 225.017Z" fill="#E4E4E4"/>
<path d="M117.297 232.935C119.017 232.935 120.412 231.541 120.412 229.82C120.412 228.1 119.017 226.706 117.297 226.706C115.577 226.706 114.182 228.1 114.182 229.82C114.182 231.541 115.577 232.935 117.297 232.935Z" fill="#FD6584"/>
<path d="M105.346 242.21C106.145 240.355 107.09 237.524 109.279 238.554C110.361 239.023 112.298 240.448 113.084 238.791L119.242 225.9C119.359 225.66 119.523 225.445 119.724 225.269C119.925 225.092 120.159 224.958 120.412 224.874C120.666 224.789 120.933 224.756 121.2 224.776C121.466 224.797 121.726 224.87 121.964 224.993L132.912 230.721C132.899 231.609 132.811 232.495 132.649 233.369L105.987 242.792L105.346 242.21Z" fill="#3F3D56"/>
<path d="M108.524 204.141C107.753 203.842 107.058 203.377 106.487 202.78C105.915 202.182 105.482 201.467 105.217 200.684C104.952 199.901 104.862 199.07 104.953 198.248C105.044 197.427 105.315 196.635 105.745 195.929L91.807 146.357L104.036 145.079L113.891 194.209C115.029 195.01 115.833 196.201 116.151 197.556C116.47 198.91 116.28 200.335 115.619 201.559C114.957 202.783 113.87 203.722 112.562 204.198C111.254 204.674 109.817 204.654 108.524 204.141Z" fill="#FFB6B6"/>
<path d="M89.7451 119.144C89.7451 119.144 86.7603 119.252 88.2357 125.405C89.4169 130.332 93.7547 161.236 97.1463 167.398C96.4138 168.058 95.9216 168.943 95.7473 169.913C95.573 170.883 95.7265 171.884 96.1836 172.758L109.698 167.183C110.821 164.067 109.951 161.238 108.675 160.987L107.096 151.974L104.769 121.739L91.9013 119.028L89.7451 119.144Z" fill="#BB6BD9"/>
<path d="M211.489 249.576L192.798 250.35C192.399 250.367 192.001 250.294 191.634 250.136C191.267 249.977 190.941 249.738 190.68 249.435C190.422 249.141 190.234 248.791 190.13 248.414C190.027 248.036 190.01 247.64 190.081 247.255C191.516 239.434 191.098 231.386 188.861 223.755C188.688 223.172 188.723 222.546 188.96 221.986C189.197 221.425 189.621 220.964 190.16 220.681C197.815 216.703 204.989 216.502 211.479 220.081C211.819 220.265 212.115 220.522 212.346 220.833C212.577 221.144 212.737 221.501 212.815 221.88C214.505 230.207 214.91 238.743 214.016 247.192C213.954 247.828 213.664 248.419 213.2 248.858C212.735 249.296 212.127 249.551 211.489 249.576Z" fill="#BB6BD9"/>
<path d="M210.698 237.343L196.407 237.935C196.231 237.942 196.055 237.915 195.889 237.854C195.724 237.794 195.572 237.701 195.442 237.582C195.312 237.462 195.207 237.319 195.133 237.159C195.059 236.999 195.017 236.826 195.01 236.65C195.002 236.473 195.03 236.298 195.091 236.132C195.151 235.967 195.244 235.815 195.364 235.685C195.483 235.555 195.627 235.45 195.787 235.376C195.947 235.302 196.12 235.261 196.296 235.253L210.587 234.661C210.763 234.654 210.939 234.682 211.104 234.742C211.27 234.803 211.422 234.896 211.551 235.015C211.681 235.134 211.786 235.278 211.86 235.438C211.934 235.598 211.976 235.77 211.983 235.947C211.991 236.123 211.963 236.298 211.902 236.464C211.842 236.629 211.749 236.781 211.63 236.911C211.511 237.04 211.367 237.145 211.207 237.219C211.047 237.293 210.874 237.335 210.698 237.343Z" fill="white"/>
<path d="M210.503 232.641L196.212 233.233C195.857 233.248 195.51 233.121 195.248 232.88C194.986 232.639 194.831 232.304 194.816 231.948C194.801 231.592 194.929 231.246 195.17 230.984C195.411 230.722 195.746 230.567 196.101 230.552L210.392 229.96C210.748 229.945 211.095 230.072 211.357 230.313C211.618 230.554 211.774 230.89 211.788 231.245C211.803 231.601 211.676 231.947 211.435 232.209C211.194 232.471 210.859 232.626 210.503 232.641Z" fill="white"/>
<path d="M553.322 103.367L534.774 100.934C534.378 100.883 533.998 100.743 533.664 100.524C533.329 100.305 533.049 100.013 532.843 99.6708C532.639 99.3364 532.514 98.9602 532.477 98.5704C532.439 98.1807 532.49 97.7875 532.626 97.4203C535.377 89.9596 536.341 81.9582 535.441 74.0577C535.371 73.4532 535.513 72.843 535.842 72.3312C536.171 71.8193 536.667 71.4374 537.247 71.2507C545.47 68.6406 552.572 69.6683 558.355 74.3043C558.658 74.5445 558.906 74.8481 559.08 75.1938C559.254 75.5395 559.351 75.9191 559.364 76.306C559.605 84.7987 558.544 93.2783 556.22 101.45C556.05 102.066 555.663 102.599 555.13 102.952C554.598 103.304 553.955 103.452 553.322 103.367Z" fill="#BB6BD9"/>
<path d="M554.634 91.1786L540.452 89.3186C540.278 89.2956 540.109 89.2385 539.956 89.1505C539.804 89.0625 539.67 88.9453 539.563 88.8055C539.455 88.6658 539.377 88.5063 539.331 88.3361C539.285 88.1659 539.274 87.9884 539.296 87.8137C539.319 87.639 539.376 87.4705 539.464 87.3179C539.552 87.1653 539.67 87.0315 539.809 86.9242C539.949 86.8168 540.109 86.7381 540.279 86.6924C540.449 86.6467 540.627 86.635 540.801 86.6579L554.983 88.518C555.336 88.5642 555.656 88.7488 555.873 89.031C556.09 89.3132 556.185 89.6699 556.139 90.0228C556.093 90.3756 555.908 90.6956 555.626 90.9124C555.344 91.1291 554.987 91.2249 554.634 91.1786Z" fill="white"/>
<path d="M555.246 86.5131L541.064 84.653C540.889 84.6304 540.721 84.5735 540.568 84.4856C540.415 84.3977 540.28 84.2805 540.173 84.1407C540.065 84.0009 539.986 83.8412 539.94 83.6709C539.895 83.5005 539.883 83.3228 539.906 83.1479C539.929 82.9729 539.986 82.8043 540.074 82.6515C540.162 82.4987 540.28 82.3648 540.42 82.2575C540.56 82.1502 540.72 82.0715 540.89 82.026C541.061 81.9805 541.238 81.9691 541.413 81.9924L555.595 83.8524C555.77 83.875 555.939 83.9319 556.092 84.0198C556.245 84.1077 556.379 84.225 556.486 84.3648C556.594 84.5046 556.673 84.6642 556.719 84.8346C556.765 85.005 556.777 85.1827 556.754 85.3576C556.731 85.5325 556.673 85.7012 556.585 85.854C556.497 86.0068 556.379 86.1406 556.239 86.248C556.099 86.3553 555.94 86.434 555.769 86.4795C555.599 86.525 555.421 86.5364 555.246 86.5131Z" fill="white"/>
<path d="M306.257 139.316H300.081V133.14C300.081 131.658 299.493 130.236 298.445 129.189C297.397 128.141 295.975 127.552 294.493 127.552C293.011 127.552 291.59 128.141 290.542 129.189C289.494 130.236 288.906 131.658 288.906 133.14V139.316H282.73C281.248 139.316 279.826 139.904 278.778 140.952C277.73 142 277.142 143.422 277.142 144.904C277.142 146.386 277.73 147.807 278.778 148.855C279.826 149.903 281.248 150.491 282.73 150.491H288.906V156.667C288.906 158.149 289.494 159.571 290.542 160.619C291.59 161.667 293.011 162.255 294.493 162.255C295.975 162.255 297.397 161.667 298.445 160.619C299.493 159.571 300.081 158.149 300.081 156.667V150.491H306.257C307.739 150.491 309.161 149.903 310.209 148.855C311.256 147.807 311.845 146.386 311.845 144.904C311.845 143.422 311.256 142 310.209 140.952C309.161 139.904 307.739 139.316 306.257 139.316Z" fill="white"/>
<path d="M506.264 25.0187C509.516 25.0187 512.152 22.3823 512.152 19.1301C512.152 15.8778 509.516 13.2414 506.264 13.2414C503.012 13.2414 500.375 15.8778 500.375 19.1301C500.375 22.3823 503.012 25.0187 506.264 25.0187Z" fill="#3F3D56"/>
<path d="M144.525 191.477C147.777 191.477 150.413 188.841 150.413 185.589C150.413 182.337 147.777 179.7 144.525 179.7C141.272 179.7 138.636 182.337 138.636 185.589C138.636 188.841 141.272 191.477 144.525 191.477Z" fill="#3F3D56"/>
</g>
<defs>
<clipPath id="clip0_1238_302">
<rect width="581.906" height="366.936" fill="white"/>
</clipPath>
</defs>
</svg>
