<svg width="200" height="200" viewBox="0 0 200 200" fill="none" xmlns="http://www.w3.org/2000/svg">
<path d="M62.8883 86.1519C63.2048 86.1519 88.8377 85.8355 89.4706 86.1519C90.1035 86.4684 89.7871 87.1013 89.7871 87.4178C89.7871 87.7342 62.5718 87.4178 62.5718 87.4178C62.5718 87.4178 62.5718 86.1519 62.8883 86.1519Z" fill="#BB6BD9"/>
<path d="M89.9452 86.8442C89.9452 86.8442 86.5186 64 76.2387 64C65.9588 64 62.5322 86.8442 62.5322 86.8442H89.9452Z" fill="#BB6BD9"/>
<path d="M89.9452 132.533L89.9452 86.8442H62.5322L62.5322 132.533H89.9452Z" fill="#BB6BD9"/>
<path fill-rule="evenodd" clip-rule="evenodd" d="M83.0921 93.6974C83.0921 97.4824 80.0238 100.551 76.2389 100.551C72.4539 100.551 69.3856 97.4824 69.3856 93.6974C69.3856 89.9125 72.4539 86.8442 76.2389 86.8442C80.0238 86.8442 83.0921 89.9125 83.0921 93.6974ZM62.5323 109.688C57.4857 109.688 53.3946 113.779 53.3946 118.826V134.817C53.3946 137.34 55.4401 139.386 57.9634 139.386C60.4867 139.386 62.5323 137.34 62.5323 134.817V109.688ZM99.083 118.826C99.083 113.78 94.9919 109.688 89.9453 109.688V134.817C89.9453 137.34 91.9908 139.386 94.5141 139.386C97.0374 139.386 99.083 137.34 99.083 134.817V118.826ZM71.67 118.826C71.67 116.303 73.7155 114.257 76.2388 114.257C78.7621 114.257 80.8076 116.303 80.8076 118.826V138.244C80.8076 140.767 78.7621 142.812 76.2388 142.812C73.7155 142.812 71.67 140.767 71.67 138.244V118.826ZM63.1447 151.75C63.1447 149.955 64.5998 148.5 66.3947 148.5C68.1896 148.5 69.6447 149.955 69.6447 151.75C69.6447 153.545 68.1896 155 66.3947 155C64.5998 155 63.1447 153.545 63.1447 151.75ZM82.6447 151.75C82.6447 149.955 84.0998 148.5 85.8947 148.5C87.6897 148.5 89.1447 149.955 89.1447 151.75C89.1447 153.545 87.6897 155 85.8947 155C84.0998 155 82.6447 153.545 82.6447 151.75ZM72.8946 164.75C72.8946 162.955 74.3497 161.5 76.1446 161.5C77.9395 161.5 79.3946 162.955 79.3946 164.75C79.3946 166.545 77.9395 168 76.1446 168C74.3497 168 72.8946 166.545 72.8946 164.75ZM53.3947 164.75C53.3947 162.955 54.8498 161.5 56.6447 161.5C58.4396 161.5 59.8947 162.955 59.8947 164.75C59.8947 166.545 58.4396 168 56.6447 168C54.8498 168 53.3947 166.545 53.3947 164.75ZM92.3947 164.75C92.3947 162.955 93.8498 161.5 95.6447 161.5C97.4397 161.5 98.8947 162.955 98.8947 164.75C98.8947 166.545 97.4397 168 95.6447 168C93.8498 168 92.3947 166.545 92.3947 164.75Z" fill="url(#paint0_linear_1323_158)"/>
<path d="M121.875 62.875H114.792V69.9583H121.875V62.875Z" fill="#071D3F"/>
<path d="M128.958 62.875H136.042V69.9583H128.958V62.875Z" fill="#071D3F"/>
<path d="M150.208 62.875H143.125V69.9583H150.208V62.875Z" fill="#071D3F"/>
<path d="M100.625 48.7083V105.375L117.625 92.625C118.85 91.7029 120.342 91.2055 121.875 91.2083H157.292C161.204 91.2083 164.375 88.037 164.375 84.125V48.7083C164.375 44.7963 161.204 41.625 157.292 41.625H107.708C103.796 41.625 100.625 44.7963 100.625 48.7083ZM107.708 91.2083V48.7083H157.292V84.125H119.516C117.983 84.1209 116.49 84.6184 115.266 85.5417L107.708 91.2083Z" fill="#071D3F"/>
<defs>
<linearGradient id="paint0_linear_1323_158" x1="76.2388" y1="86.8442" x2="76.2388" y2="168" gradientUnits="userSpaceOnUse">
<stop stop-color="#56CCF2"/>
<stop offset="1" stop-color="#AD00FF"/>
</linearGradient>
</defs>
</svg>
